<svg width="200" height="63" viewBox="0 0 200 63" fill="none" xmlns="http://www.w3.org/2000/svg">
<g clip-path="url(#clip0_541_6531)">
<path fill-rule="evenodd" clip-rule="evenodd" d="M124.076 49.2681C112.454 58.2226 95.6077 63.0001 81.1037 63.0001C60.7668 63.0001 42.4583 55.1376 28.6073 42.0608C27.5191 41.0325 28.4941 39.6311 29.8 40.4319C44.748 49.5229 63.2306 54.992 82.3225 54.992C95.1985 54.992 109.363 52.2074 122.387 46.4288C124.354 45.5552 126 47.7757 124.076 49.2681Z" fill="#FF9900"/>
<path fill-rule="evenodd" clip-rule="evenodd" d="M128.908 43.4895C127.428 41.5057 119.088 42.5522 115.344 43.0163C114.204 43.1619 114.03 42.1245 115.057 41.3783C121.699 36.4916 132.599 37.9021 133.87 39.5401C135.141 41.1872 133.539 52.6078 127.297 58.0588C126.34 58.896 125.426 58.4501 125.852 57.3399C127.254 53.6816 130.397 45.4825 128.908 43.4895Z" fill="#FF9900"/>
<path fill-rule="evenodd" clip-rule="evenodd" d="M115.605 6.87968V2.12943C115.605 1.41053 116.127 0.928223 116.754 0.928223H137.1C137.753 0.928223 138.275 1.41963 138.275 2.12943V6.19718C138.267 6.87968 137.718 7.77149 136.743 9.18201L126.2 24.9161C130.118 24.816 134.253 25.4257 137.805 27.5187C138.606 27.9919 138.824 28.6835 138.885 29.366V34.4348C138.885 35.1264 138.153 35.9363 137.387 35.5177C131.128 32.0869 122.814 31.7138 115.892 35.5541C115.187 35.9545 114.447 35.1537 114.447 34.4621V29.6481C114.447 28.8746 114.456 27.5551 115.196 26.3812L127.41 8.0718H116.78C116.127 8.0718 115.605 7.5895 115.605 6.87968Z" fill="black"/>
<path fill-rule="evenodd" clip-rule="evenodd" d="M41.3878 36.5185H35.1979C34.6059 36.473 34.1358 36.0089 34.0923 35.4174V2.21118C34.0923 1.54688 34.6233 1.01907 35.285 1.01907H41.057C41.6577 1.04635 42.1365 1.52867 42.18 2.12928V6.47003H42.2932C43.7993 2.27488 46.6287 0.318359 50.4419 0.318359C54.316 0.318359 56.7363 2.27488 58.4774 6.47003C59.9748 2.27488 63.3788 0.318359 67.0266 0.318359C69.621 0.318359 72.4591 1.43767 74.1915 3.9493C76.1504 6.74303 75.7499 10.8017 75.7499 14.3598L75.7412 35.3173C75.7412 35.9816 75.2101 36.5185 74.5485 36.5185H68.3673C67.7492 36.473 67.253 35.9543 67.253 35.3173V17.7177C67.253 16.3163 67.3748 12.8219 67.0788 11.4933C66.6174 9.26376 65.2332 8.63584 63.4398 8.63584C61.9424 8.63584 60.3753 9.68236 59.7398 11.3568C59.1043 13.0312 59.1652 15.834 59.1652 17.7177V35.3173C59.1652 35.9816 58.6341 36.5185 57.9725 36.5185H51.7913C51.1645 36.473 50.677 35.9543 50.677 35.3173L50.6683 17.7177C50.6683 14.014 51.2516 8.56304 46.8551 8.56304C42.4064 8.56304 42.5805 13.8775 42.5805 17.7177V35.3173C42.5805 35.9816 42.0495 36.5185 41.3878 36.5185" fill="black"/>
<path fill-rule="evenodd" clip-rule="evenodd" d="M155.792 0.318359C164.976 0.318359 169.947 8.56305 169.947 19.0464C169.947 29.1748 164.454 37.2101 155.792 37.2101C146.772 37.2101 141.862 28.9655 141.862 18.6915C141.862 8.35374 146.833 0.318359 155.792 0.318359ZM155.844 7.09793C151.282 7.09793 150.995 13.5954 150.995 17.6449C150.995 21.7036 150.934 30.3669 155.792 30.3669C160.589 30.3669 160.815 23.378 160.815 19.1192C160.815 16.3163 160.702 12.9675 159.892 10.3103C159.196 7.99884 157.811 7.09793 155.844 7.09793Z" fill="black"/>
<path fill-rule="evenodd" clip-rule="evenodd" d="M181.857 36.5185H175.693C175.075 36.473 174.579 35.9543 174.579 35.3173L174.57 2.10198C174.623 1.49227 175.136 1.01907 175.763 1.01907H181.5C182.04 1.04635 182.484 1.42857 182.606 1.94728V7.02513H182.719C184.451 2.48418 186.88 0.318359 191.155 0.318359C193.932 0.318359 196.64 1.36487 198.381 4.2314C200 6.88863 200 11.3568 200 14.5691V35.472C199.931 36.0544 199.417 36.5185 198.807 36.5185H192.6C192.034 36.473 191.564 36.0362 191.503 35.472V17.4356C191.503 13.8047 191.904 8.49024 187.629 8.49024C186.123 8.49024 184.739 9.54586 184.051 11.1475C183.18 13.1768 183.067 15.197 183.067 17.4356V35.3173C183.059 35.9816 182.519 36.5185 181.857 36.5185" fill="black"/>
<path fill-rule="evenodd" clip-rule="evenodd" d="M99.3863 20.6572C99.3863 23.1779 99.4472 25.2801 98.2284 27.5187C97.2446 29.3387 95.6776 30.458 93.9451 30.458C91.5684 30.458 90.1755 28.5652 90.1755 25.7715C90.1755 20.2568 94.9027 19.2558 99.3863 19.2558V20.6572ZM105.628 36.4277C105.219 36.8099 104.627 36.8372 104.166 36.5824C102.111 34.7988 101.737 33.9707 100.614 32.2689C97.2185 35.8908 94.807 36.9737 90.4105 36.9737C85.1957 36.9737 81.1475 33.6157 81.1475 26.8908C81.1475 21.64 83.8637 18.0637 87.7465 16.3165C91.107 14.7695 95.7994 14.4965 99.3863 14.0688V13.2315C99.3863 11.6936 99.4994 9.8736 98.6289 8.54499C97.8801 7.35288 96.435 6.86147 95.1552 6.86147C92.7959 6.86147 90.6978 8.12638 90.1842 10.7472C90.0797 11.3296 89.6705 11.9029 89.1046 11.9302L83.1063 11.2568C82.6013 11.1385 82.0355 10.7108 82.1835 9.90091C83.559 2.29323 90.1406 0 96.0258 0C99.038 0 102.973 0.83721 105.35 3.22143C108.362 6.16076 108.075 10.0829 108.075 14.3509V24.4338C108.075 27.4641 109.276 28.7927 110.408 30.4307C110.8 31.0131 110.887 31.7138 110.382 32.1506C109.119 33.2517 106.873 35.2993 105.637 36.4459L105.628 36.4277" fill="black"/>
<path fill-rule="evenodd" clip-rule="evenodd" d="M18.2388 20.6572C18.2388 23.1779 18.2997 25.2801 17.0809 27.5187C16.0972 29.3387 14.5388 30.458 12.7976 30.458C10.4209 30.458 9.03669 28.5652 9.03669 25.7715C9.03669 20.2568 13.764 19.2558 18.2388 19.2558V20.6572ZM24.4809 36.4277C24.0717 36.8099 23.4797 36.8372 23.0183 36.5824C20.9637 34.7988 20.5981 33.9707 19.4663 32.2689C16.071 35.8908 13.6682 36.9737 9.26304 36.9737C4.05693 36.9737 0 33.6157 0 26.8908C0 21.64 2.72494 18.0637 6.59905 16.3165C9.95951 14.7695 14.652 14.4965 18.2388 14.0688V13.2315C18.2388 11.6936 18.352 9.8736 17.4901 8.54499C16.7327 7.35288 15.2875 6.86147 14.0165 6.86147C11.6572 6.86147 9.55034 8.12638 9.03669 10.7472C8.93222 11.3296 8.52305 11.9029 7.96587 11.9302L1.95882 11.2568C1.45388 11.1385 0.896703 10.7108 1.036 9.90091C2.42023 2.29323 8.99316 0 14.8783 0C17.8906 0 21.8256 0.83721 24.2023 3.22143C27.2146 6.16076 26.9273 10.0829 26.9273 14.3509V24.4338C26.9273 27.4641 28.1287 28.7927 29.2604 30.4307C29.6609 31.0131 29.748 31.7138 29.243 32.1506C27.9807 33.2517 25.7346 35.2993 24.4983 36.4459L24.4809 36.4277" fill="black"/>
</g>
<defs>
<clipPath id="clip0_541_6531">
<rect width="200" height="63" fill="white"/>
</clipPath>
</defs>
</svg>
