<svg width="37" height="37" viewBox="0 0 37 37" fill="none" xmlns="http://www.w3.org/2000/svg">
<path d="M26.3001 0.583984C32.3506 0.583984 36.4159 4.8159 36.4159 11.1333V25.8501C36.4159 26.1206 36.3675 26.3625 36.3531 26.6241C36.3442 26.7764 36.346 26.9286 36.3334 27.0809C36.3263 27.149 36.3066 27.2117 36.2994 27.2798C36.2403 27.8424 36.1489 28.3799 36.0217 28.9013C35.9894 29.041 35.9518 29.1754 35.9142 29.3116C35.7709 29.8168 35.6024 30.2988 35.4 30.7592C35.3409 30.8882 35.2764 31.0119 35.2154 31.1391C34.9969 31.578 34.7604 31.9991 34.4862 32.3897L34.2211 32.7337C33.9362 33.1027 33.6388 33.4557 33.3019 33.7764C33.1926 33.8803 33.069 33.9699 32.9544 34.0684C32.6086 34.3659 32.2556 34.6507 31.8668 34.8944C31.7271 34.9822 31.573 35.0467 31.4296 35.1255C31.0337 35.3441 30.6341 35.5573 30.1988 35.7221C30.0196 35.7902 29.8207 35.8261 29.6344 35.8852C29.2062 36.0178 28.7834 36.1557 28.3229 36.2346C28.207 36.2549 28.0878 36.2692 27.9668 36.2804L27.2318 36.3331C26.92 36.3564 26.6244 36.4173 26.3001 36.4173H10.6839C10.0103 36.4173 9.36706 36.3492 8.74535 36.2471C8.72206 36.2435 8.70056 36.2399 8.67906 36.2364C6.25494 35.8189 4.24289 34.6489 2.83285 32.8842C2.81673 32.8842 2.81673 32.8662 2.8006 32.8501C1.38339 31.0656 0.58252 28.6666 0.58252 25.8501V11.1333C0.58252 4.8159 4.65139 0.583984 10.6839 0.583984H26.3001ZM26.3001 3.08336H10.6839C6.06681 3.08336 3.08369 6.24923 3.08369 11.1333V25.8501C3.08369 27.2207 3.3381 28.4444 3.77348 29.5033C3.82902 29.437 7.29948 25.2051 7.3156 25.1907C8.55544 23.7753 10.8828 21.6647 13.9376 22.9422C14.6722 23.2468 15.3172 23.675 15.9084 24.0512C16.9351 24.7374 17.5389 25.0599 18.1659 25.0062C18.4257 24.9704 18.6694 24.8933 18.9005 24.75C19.9003 24.1336 22.7257 20.0128 22.8959 19.7889C24.8489 17.2447 27.8589 16.5639 30.3672 18.0689C30.5356 18.1692 31.2232 18.6408 31.9685 19.1721L32.5311 19.5768C33.0902 19.9829 33.6168 20.3788 33.9165 20.6327V11.1333C33.9165 6.24923 30.9334 3.08336 26.3001 3.08336ZM12.1912 7.74993C13.4412 7.74993 14.5732 8.27557 15.3839 9.11417C16.1982 9.92338 16.7086 11.0386 16.7086 12.2559C16.7086 14.6835 14.6773 16.7083 12.2381 16.7083C10.094 16.7083 8.26589 15.1417 7.85616 13.1135C7.78846 12.8092 7.75026 12.4962 7.75026 12.1729C7.75026 9.72799 9.73637 7.74993 12.1912 7.74993Z" fill="#939393"/>
</svg>
