<svg width="50" height="50" viewBox="0 0 50 50" fill="none" xmlns="http://www.w3.org/2000/svg">
<path fill-rule="evenodd" clip-rule="evenodd" d="M25 5C19.4772 5 15 9.47715 15 15V17.5H12.5C11.2261 17.5 10.156 18.4578 10.0153 19.7239L7.5153 42.2239C7.43677 42.9307 7.66294 43.6374 8.13719 44.1673C8.61145 44.6972 9.2889 45 10 45H40C40.7111 45 41.3886 44.6972 41.8628 44.1673C42.3371 43.6374 42.5633 42.9307 42.4847 42.2239L39.9847 19.7239C39.844 18.4578 38.7739 17.5 37.5 17.5H35V15C35 9.47715 30.5228 5 25 5ZM30 17.5V15C30 12.2386 27.7614 10 25 10C22.2386 10 20 12.2386 20 15V17.5H30ZM15 25C15 23.6193 16.1193 22.5 17.5 22.5C18.8807 22.5 20 23.6193 20 25C20 26.3807 18.8807 27.5 17.5 27.5C16.1193 27.5 15 26.3807 15 25ZM32.5 22.5C31.1193 22.5 30 23.6193 30 25C30 26.3807 31.1193 27.5 32.5 27.5C33.8807 27.5 35 26.3807 35 25C35 23.6193 33.8807 22.5 32.5 22.5Z" fill="#BEAB32"/>
</svg>
