<svg width="60" height="60" viewBox="0 0 60 60" fill="none" xmlns="http://www.w3.org/2000/svg">
<path d="M60 30C60 46.5685 46.5685 60 30 60C13.4315 60 0 46.5685 0 30C0 13.4315 13.4315 0 30 0C46.5685 0 60 13.4315 60 30Z" fill="#F9F5C8"/>
<path d="M58.5551 17.0645C58.5108 12.4722 54.7522 8.78525 50.1598 8.8295L29.4356 9.02918C24.8433 9.07343 21.1563 12.8321 21.2006 17.4244L21.2797 25.6265C21.324 30.2187 25.0826 33.9056 29.6748 33.8614L42.2158 33.7406C42.4435 33.7384 42.6692 33.783 42.879 33.8715L50.8713 37.2475C51.9741 37.7134 53.193 36.8965 53.1815 35.6995L53.1705 34.5605C53.1656 34.0495 53.576 33.6311 54.087 33.6261C56.6426 33.6015 58.6943 31.5099 58.6697 28.9544L58.5551 17.0645Z" fill="#362C04"/>
<path d="M38.75 33.8276V27.049C38.75 24.6261 36.6342 22.6621 34.0244 22.6621H21.25L21.2818 25.8547C21.3264 30.3477 25.119 33.955 29.7529 33.9117L38.75 33.8276Z" fill="#F4EA93"/>
<path d="M35.0108 14.6284C35.0048 14.0033 35.5067 13.4916 36.1319 13.4856L50.8473 13.3438C51.4724 13.3377 51.984 13.8397 51.9902 14.4648C51.9962 15.0899 51.4943 15.6017 50.869 15.6077L36.1537 15.7494C35.5285 15.7554 35.0168 15.2536 35.0108 14.6284Z" fill="#DECF5A"/>
<path d="M41.8794 22.4869C41.8734 21.8618 42.3753 21.35 43.0006 21.344L50.9242 21.2676C51.5493 21.2616 52.0611 21.7635 52.0671 22.3888C52.0731 23.0139 51.5712 23.5255 50.9461 23.5315L43.0223 23.6079C42.3972 23.6139 41.8854 23.112 41.8794 22.4869Z" fill="#DECF5A"/>
<path d="M5 30.8279C5 28.3891 7.03508 26.4121 9.54545 26.4121H30.4545C32.9649 26.4121 35 28.3891 35 30.8279V41.3704C35 43.809 32.9649 45.786 30.4545 45.786H18.1616C18.0372 45.786 17.914 45.8109 17.7999 45.859L10.7303 48.8382C10.13 49.0912 9.45946 48.6637 9.45946 48.028V46.508C9.45946 46.1092 9.1267 45.786 8.71621 45.786C6.66381 45.786 5 44.1697 5 42.1759V30.8279Z" fill="#937E01"/>
<path d="M3.9375 28.3288C3.9375 25.9987 5.88346 24.1006 8.29545 24.1006H29.2045C31.6165 24.1006 33.5625 25.9987 33.5625 28.3288V38.8713C33.5625 41.2013 31.6165 43.0995 29.2045 43.0995H16.9116C16.7622 43.0995 16.6144 43.1292 16.477 43.1871L9.40752 46.1663C8.92307 46.3706 8.39696 46.0222 8.39696 45.529V44.009C8.39696 43.5016 7.9751 43.0995 7.46621 43.0995C5.5122 43.0995 3.9375 41.5621 3.9375 39.6768V28.3288Z" stroke="#FDFFF6" stroke-width="0.3"/>
<path d="M29.375 37.5C30.4105 37.5 31.25 36.6605 31.25 35.625C31.25 34.5895 30.4105 33.75 29.375 33.75C28.3395 33.75 27.5 34.5895 27.5 35.625C27.5 36.6605 28.3395 37.5 29.375 37.5Z" fill="#FDFFF6"/>
<path d="M20.625 37.5C21.6605 37.5 22.5 36.6605 22.5 35.625C22.5 34.5895 21.6605 33.75 20.625 33.75C19.5895 33.75 18.75 34.5895 18.75 35.625C18.75 36.6605 19.5895 37.5 20.625 37.5Z" fill="#FDFFF6"/>
<path d="M11.875 37.5C12.9105 37.5 13.75 36.6605 13.75 35.625C13.75 34.5895 12.9105 33.75 11.875 33.75C10.8395 33.75 10 34.5895 10 35.625C10 36.6605 10.8395 37.5 11.875 37.5Z" fill="#FDFFF6"/>
<path d="M52.4996 42.5714C53.2097 42.5714 53.7853 41.9958 53.7853 41.2857C53.7853 40.5756 53.2097 40 52.4996 40C51.7895 40 51.2139 40.5756 51.2139 41.2857C51.2139 41.9958 51.7895 42.5714 52.4996 42.5714Z" fill="#BACAF0"/>
<path d="M52.4996 54.5714C53.2097 54.5714 53.7853 53.9958 53.7853 53.2857C53.7853 52.5756 53.2097 52 52.4996 52C51.7895 52 51.2139 52.5756 51.2139 53.2857C51.2139 53.9958 51.7895 54.5714 52.4996 54.5714Z" fill="#BACAF0"/>
<path d="M52.4996 48.5714C53.2097 48.5714 53.7853 47.9958 53.7853 47.2857C53.7853 46.5756 53.2097 46 52.4996 46C51.7895 46 51.2139 46.5756 51.2139 47.2857C51.2139 47.9958 51.7895 48.5714 52.4996 48.5714Z" fill="#362C04"/>
<path d="M38.7857 42.5714C39.4958 42.5714 40.0714 41.9958 40.0714 41.2857C40.0714 40.5756 39.4958 40 38.7857 40C38.0756 40 37.5 40.5756 37.5 41.2857C37.5 41.9958 38.0756 42.5714 38.7857 42.5714Z" fill="#BACAF0"/>
<path d="M38.7857 54.5714C39.4958 54.5714 40.0714 53.9958 40.0714 53.2857C40.0714 52.5756 39.4958 52 38.7857 52C38.0756 52 37.5 52.5756 37.5 53.2857C37.5 53.9958 38.0756 54.5714 38.7857 54.5714Z" fill="#ECAE00"/>
<path d="M38.7857 48.5714C39.4958 48.5714 40.0714 47.9958 40.0714 47.2857C40.0714 46.5756 39.4958 46 38.7857 46C38.0756 46 37.5 46.5756 37.5 47.2857C37.5 47.9958 38.0756 48.5714 38.7857 48.5714Z" fill="#BACAF0"/>
<path d="M45.6431 42.5714C46.3532 42.5714 46.9288 41.9958 46.9288 41.2857C46.9288 40.5756 46.3532 40 45.6431 40C44.9331 40 44.3574 40.5756 44.3574 41.2857C44.3574 41.9958 44.9331 42.5714 45.6431 42.5714Z" fill="#BACAF0"/>
<path d="M45.6431 54.5714C46.3532 54.5714 46.9288 53.9958 46.9288 53.2857C46.9288 52.5756 46.3532 52 45.6431 52C44.9331 52 44.3574 52.5756 44.3574 53.2857C44.3574 53.9958 44.9331 54.5714 45.6431 54.5714Z" fill="#BACAF0"/>
<path d="M45.6431 48.5714C46.3532 48.5714 46.9288 47.9958 46.9288 47.2857C46.9288 46.5756 46.3532 46 45.6431 46C44.9331 46 44.3574 46.5756 44.3574 47.2857C44.3574 47.9958 44.9331 48.5714 45.6431 48.5714Z" fill="#BACAF0"/>
</svg>
