<svg width="60" height="60" viewBox="0 0 60 60" fill="none" xmlns="http://www.w3.org/2000/svg">
<mask id="mask0_443_7527" style="mask-type:alpha" maskUnits="userSpaceOnUse" x="0" y="0" width="60" height="60">
<path d="M60 30C60 46.5685 46.5685 60 30 60C13.4315 60 0 46.5685 0 30C0 13.4315 13.4315 0 30 0C46.5685 0 60 13.4315 60 30Z" fill="#E8EFFF"/>
</mask>
<g mask="url(#mask0_443_7527)">
<path d="M60 30C60 46.5685 46.5685 60 30 60C13.4315 60 0 46.5685 0 30C0 13.4315 13.4315 0 30 0C46.5685 0 60 13.4315 60 30Z" fill="#F9F5C8"/>
<path d="M46.25 36.25H23.75C20.2982 36.25 17.5 39.0482 17.5 42.5V68.75C17.5 72.2018 20.2982 75 23.75 75H46.25C49.7018 75 52.5 72.2018 52.5 68.75V42.5C52.5 39.0482 49.7018 36.25 46.25 36.25Z" fill="#CEB105"/>
<path d="M42.5 15.043H12.5C9.73858 15.043 7.5 17.2815 7.5 20.043V63.793C7.5 66.5544 9.73858 68.793 12.5 68.793H42.5C45.2614 68.793 47.5 66.5544 47.5 63.793V20.043C47.5 17.2815 45.2614 15.043 42.5 15.043Z" fill="#DECF5A"/>
<path fill-rule="evenodd" clip-rule="evenodd" d="M47.5 61.8965V20C47.5 17.2386 45.2614 15 42.5 15H12.5C9.73857 15 7.5 17.2386 7.5 20V61.4827L11.6379 66.0345V26.7241H13.6637C17.1156 26.7241 19.9137 23.9259 19.9137 20.4741V19.8276H33.7069V20.4741C33.7069 23.9259 36.5051 26.7241 39.9569 26.7241H43.3621V61.8965H47.5Z" fill="#362C04"/>
<path d="M35.8168 35.0455C35.8228 34.4203 35.3209 33.9087 34.6956 33.9027L19.9803 33.7608C19.3551 33.7548 18.8435 34.2567 18.8374 34.8819C18.8314 35.507 19.3334 36.0187 19.9585 36.0248L34.6739 36.1665C35.299 36.1725 35.8108 35.6707 35.8168 35.0455Z" fill="#FDFFF6"/>
<path d="M28.9485 42.48C28.9545 41.8549 28.4526 41.3432 27.8274 41.3372L19.9037 41.2608C19.2786 41.2548 18.7669 41.7567 18.7609 42.3819C18.7549 43.007 19.2567 43.5187 19.882 43.5247L27.8056 43.601C28.4307 43.607 28.9425 43.1052 28.9485 42.48Z" fill="#F9F5C8"/>
<path d="M32.5 43.75C33.1904 43.75 33.75 43.1904 33.75 42.5C33.75 41.8096 33.1904 41.25 32.5 41.25C31.8096 41.25 31.25 41.8096 31.25 42.5C31.25 43.1904 31.8096 43.75 32.5 43.75Z" fill="#FDFFF6"/>
<path d="M22.5 50H20C19.3096 50 18.75 50.5596 18.75 51.25C18.75 51.9404 19.3096 52.5 20 52.5H22.5C23.1904 52.5 23.75 51.9404 23.75 51.25C23.75 50.5596 23.1904 50 22.5 50Z" fill="#FDFFF6"/>
<path d="M22.5 50H20C19.3096 50 18.75 50.5596 18.75 51.25C18.75 51.9404 19.3096 52.5 20 52.5H22.5C23.1904 52.5 23.75 51.9404 23.75 51.25C23.75 50.5596 23.1904 50 22.5 50Z" fill="#FDFFF6"/>
<path d="M36.25 50H26.25C25.5596 50 25 50.5596 25 51.25C25 51.9404 25.5596 52.5 26.25 52.5H36.25C36.9404 52.5 37.5 51.9404 37.5 51.25C37.5 50.5596 36.9404 50 36.25 50Z" fill="#F9F5C8"/>
<path d="M40 30C46.2132 30 51.25 24.9632 51.25 18.75C51.25 12.5368 46.2132 7.5 40 7.5C33.7868 7.5 28.75 12.5368 28.75 18.75C28.75 24.9632 33.7868 30 40 30Z" fill="#F4A42B"/>
<path d="M37.073 17.6761C36.8251 17.2215 36.2556 17.054 35.8011 17.302C35.3465 17.5498 35.179 18.1193 35.427 18.5738L37.073 17.6761ZM38.125 21.25L37.375 21.8125C37.5381 22.0298 37.7875 22.1658 38.0585 22.1851C38.3296 22.2043 38.5958 22.1051 38.7879 21.9128L38.125 21.25ZM44.4129 16.2878C44.779 15.9217 44.779 15.3282 44.4129 14.9621C44.0468 14.596 43.4533 14.596 43.0871 14.9621L44.4129 16.2878ZM36.25 18.125C35.427 18.5738 35.427 18.574 35.427 18.574C35.427 18.574 35.427 18.5741 35.4271 18.5741C35.4271 18.5742 35.4273 18.5743 35.4273 18.5745C35.4275 18.5748 35.4278 18.5753 35.4281 18.576C35.4288 18.5772 35.4298 18.579 35.431 18.5812C35.4335 18.5858 35.4373 18.5926 35.442 18.6013C35.4516 18.619 35.4656 18.6445 35.4838 18.6772C35.5198 18.7427 35.5718 18.8368 35.6361 18.9523C35.7646 19.1831 35.9428 19.4998 36.1411 19.8435C36.527 20.5123 37.023 21.3431 37.375 21.8125L38.875 20.6875C38.602 20.3235 38.1605 19.5918 37.7651 18.9065C37.5729 18.5731 37.3994 18.2648 37.274 18.0397C37.2114 17.9273 37.1609 17.836 37.1261 17.7728C37.1088 17.7413 37.0954 17.7168 37.0864 17.7005C37.0819 17.6922 37.0785 17.686 37.0763 17.6818C37.0751 17.6798 37.0743 17.6783 37.0738 17.6773C37.0735 17.6768 37.0733 17.6765 37.0731 17.6762L37.073 17.6761C37.073 17.6761 37.073 17.6761 37.073 17.676C37.073 17.676 37.073 17.6761 36.25 18.125ZM38.7879 21.9128L44.4129 16.2878L43.0871 14.9621L37.4621 20.5871L38.7879 21.9128Z" fill="#FDFFF6"/>
<path d="M38.75 27.3125C44.8596 27.3125 49.8125 22.3596 49.8125 16.25C49.8125 10.1404 44.8596 5.1875 38.75 5.1875C32.6404 5.1875 27.6875 10.1404 27.6875 16.25C27.6875 22.3596 32.6404 27.3125 38.75 27.3125Z" stroke="#FDFFF6" stroke-width="0.3"/>
</g>
</svg>
