<svg width="147" height="46" viewBox="0 0 147 46" fill="none" xmlns="http://www.w3.org/2000/svg">
<path fill-rule="evenodd" clip-rule="evenodd" d="M16.6194 36.0143L15.0125 33.8875C11.7196 36.7026 8.24481 39.6542 5.43491 42.0347H20.6472C19.6574 39.8016 17.8626 37.6637 16.6194 36.0143ZM23.1783 26.8315C22.0111 27.8592 20.5577 29.1216 18.9418 30.5141L20.4921 32.5712C22.743 35.5592 26.024 40.7264 30.0965 39.3291L30.2456 39.5258L27.3552 42.0348H40.9486V32.089C33.9529 36.1349 27.9455 32.4538 23.1783 26.8315ZM1.4408 15.9101V42.0347H1.44378L13.3975 31.7479L1.4408 15.9101ZM29.2839 10.618L29.269 10.6307C25.1458 14.1944 26.161 19.7883 29.995 24.8079C32.9569 28.6889 36.9147 31.4089 40.9484 29.3471V12.8099C37.3261 8.86392 32.9793 7.42546 29.2839 10.618ZM23.9733 17.4714C24.2327 15.0955 24.908 10.604 29.0118 7.27499C32.567 4.39162 37.0078 3.8397 40.9476 5.61918V0H19.0243C17.5768 6.84356 21.381 14.358 23.9733 17.4714ZM17.3272 28.3687L21.5309 24.7526C20.8333 23.8169 20.1685 22.8526 19.5349 21.8788C14.653 14.3865 11.7774 6.74843 13.8614 0H1.44111V7.28764L17.3272 28.3687Z" fill="#F05A22"/>
<path fill-rule="evenodd" clip-rule="evenodd" d="M65.7029 37.6975L60.9237 37.707V21.1397V20.9034L66.0592 20.8812C72.0443 20.8812 76.9843 23.2475 76.9843 29.4424C76.9843 35.5104 71.8 37.6975 65.7029 37.6975ZM60.9237 3.87264L65.8802 3.96146C69.5578 3.96146 73.3232 5.87576 73.3232 10.2848C73.3232 15.5202 69.9962 16.9238 65.2528 16.9238L60.9237 16.9333V16.9238V3.87264ZM73.8632 17.5634C77.5001 16.8846 79.8646 13.5382 79.8646 9.25916C79.8646 3.57971 75.245 0.000111492 67.3204 0.000111492H51.6489V0.190431C54.8478 2.06032 54.7765 5.07371 54.7765 7.94756V34.0118C54.7765 36.9491 54.8478 39.9942 51.6489 41.8324V42.0227H59.1947C66.5694 42.0227 72.2159 42.1559 76.4434 40.0434C80.9261 37.8023 83.6495 33.7834 83.6495 28.8668C83.6495 22.6085 79.2654 18.7751 73.8632 17.5634ZM95.6615 34.0228C95.6615 37.6008 95.6001 40.1558 98.7814 42.1352V42.3255H88.1572V42.1352C91.3397 40.1558 91.2848 37.6008 91.2848 34.0228V8.48668C91.2848 4.91022 91.3397 2.10779 88.1619 0.191906V0H96.9819V0.06344C97.2206 0.831064 97.6054 1.24976 97.8825 1.66054C98.1614 2.06972 98.72 2.93727 98.72 2.93727L118.948 31.9483V8.23924C118.948 4.66123 119.01 2.10779 115.826 0.191906V0H126.391V0.191906C123.27 2.10779 123.27 4.66123 123.27 8.23924V44.4079C121.347 43.5943 115.961 38.8331 112.133 33.3535C105.266 23.5235 95.6615 9.87123 95.6615 9.87123V34.0228ZM136.235 7.61438C136.235 4.6771 136.196 2.06338 133.127 0.190319V0H145.556V0.190319C142.478 2.00787 142.451 4.74053 142.451 7.61438V34.4796C142.451 37.3518 142.381 40.2478 145.556 42.1288V42.3176H133.127V42.1288C136.321 40.2272 136.235 37.3724 136.235 34.5002V7.61438Z" fill="#005E6A"/>
</svg>
