<svg width="50" height="50" viewBox="0 0 50 50" fill="none" xmlns="http://www.w3.org/2000/svg">
<path d="M25.9848 5.20214C25.3559 4.93262 24.6441 4.93262 24.0152 5.20214L6.5152 12.7021C5.59599 13.0961 5 13.9999 5 15C5 16.0001 5.59599 16.9039 6.5152 17.2979L13.1259 20.131C13.3663 19.8587 13.6677 19.6368 14.0152 19.4879L24.0152 15.2022C25.2843 14.6583 26.754 15.2462 27.2979 16.5152C27.8418 17.7843 27.2539 19.254 25.9848 19.7979L19.1667 22.7199L24.0152 24.7979C24.6441 25.0674 25.3559 25.0674 25.9848 24.7979L43.4848 17.2979C44.404 16.9039 45 16.0001 45 15C45 13.9999 44.404 13.0961 43.4848 12.7021L25.9848 5.20214Z" fill="#BEAB32"/>
<path d="M8.27511 23.4918L12.5 25.3025V35.5566C11.6431 35.3623 10.7676 35.2168 9.87677 35.1234C8.70234 35.0003 7.77424 34.0722 7.6511 32.8978C7.55116 31.9446 7.5 30.9776 7.5 29.9996C7.5 27.7583 7.76853 25.5787 8.27511 23.4918Z" fill="#BEAB32"/>
<path d="M23.2499 41.4313C21.5677 39.7822 19.6292 38.396 17.5 37.3378V27.4453L22.0456 29.3935C23.9322 30.202 26.0678 30.202 27.9544 29.3935L41.7249 23.4918C42.2315 25.5787 42.5 27.7583 42.5 29.9996C42.5 30.9776 42.4488 31.9446 42.3489 32.8978C42.2258 34.0722 41.2977 35.0003 40.1232 35.1234C34.9411 35.6668 30.281 37.9699 26.7501 41.4313C25.778 42.3843 24.222 42.3843 23.2499 41.4313Z" fill="#BEAB32"/>
<path d="M15 44.9999C16.3807 44.9999 17.5 43.8806 17.5 42.4999V37.3378C15.9284 36.5566 14.2529 35.9542 12.5 35.5566V42.4999C12.5 43.8806 13.6193 44.9999 15 44.9999Z" fill="#BEAB32"/>
</svg>
