<svg width="50" height="51" viewBox="0 0 50 51" fill="none" xmlns="http://www.w3.org/2000/svg">
<path fill-rule="evenodd" clip-rule="evenodd" d="M7.5 7.625C6.11929 7.625 5 8.74429 5 10.125C5 11.5057 6.11929 12.625 7.5 12.625V32.625C7.5 35.3864 9.73858 37.625 12.5 37.625H18.9645L15.7322 40.8572C14.7559 41.8335 14.7559 43.4165 15.7322 44.3928C16.7085 45.3691 18.2915 45.3691 19.2678 44.3928L25 38.6605L30.7322 44.3928C31.7085 45.3691 33.2915 45.3691 34.2678 44.3928C35.2441 43.4165 35.2441 41.8335 34.2678 40.8572L31.0355 37.625H37.5C40.2614 37.625 42.5 35.3864 42.5 32.625V12.625C43.8807 12.625 45 11.5057 45 10.125C45 8.74429 43.8807 7.625 42.5 7.625H7.5ZM36.7678 19.3928C37.7441 18.4165 37.7441 16.8335 36.7678 15.8572C35.7915 14.8809 34.2085 14.8809 33.2322 15.8572L25 24.0895L21.7678 20.8572C20.7915 19.8809 19.2085 19.8809 18.2322 20.8572L13.2322 25.8572C12.2559 26.8335 12.2559 28.4165 13.2322 29.3928C14.2085 30.3691 15.7915 30.3691 16.7678 29.3928L20 26.1605L23.2322 29.3928C24.2085 30.3691 25.7915 30.3691 26.7678 29.3928L36.7678 19.3928Z" fill="#BEAB32"/>
</svg>
