<svg width="101" height="100" viewBox="0 0 101 100" fill="none" xmlns="http://www.w3.org/2000/svg">
<path d="M50.5002 49.9993C59.7049 49.9993 67.1668 42.5374 67.1668 33.3327C67.1668 24.1279 59.7049 16.666 50.5002 16.666C41.2954 16.666 33.8335 24.1279 33.8335 33.3327C33.8335 42.5374 41.2954 49.9993 50.5002 49.9993Z" fill="#564500"/>
<path fill-rule="evenodd" clip-rule="evenodd" d="M17.1948 78.769C17.1665 79.3857 17.1665 80.1123 17.1665 81.569L17.1682 81.744C17.1873 82.1591 17.3607 82.5521 17.6546 82.8459C17.9484 83.1398 18.3414 83.3132 18.7565 83.3323L18.9315 83.334H82.0665L82.2415 83.3323C82.6566 83.3132 83.0496 83.1398 83.3434 82.8459C83.6373 82.5521 83.8107 82.1591 83.8298 81.744L83.8315 81.569C83.8315 80.1123 83.8315 79.3857 83.8032 78.769C82.9265 59.7523 66.4965 53.334 50.4998 53.334C34.5032 53.334 18.0748 59.754 17.1948 78.769ZM51.1182 61.084C51.0608 60.9676 50.972 60.8697 50.8619 60.8012C50.7517 60.7327 50.6246 60.6964 50.4948 60.6964C50.3651 60.6964 50.238 60.7327 50.1278 60.8012C50.0177 60.8697 49.9289 60.9676 49.8715 61.084L47.8915 65.099L43.4598 65.7407C43.3317 65.7593 43.2114 65.8134 43.1125 65.8969C43.0136 65.9804 42.94 66.0899 42.9001 66.2131C42.8602 66.3362 42.8556 66.4681 42.8868 66.5937C42.9179 66.7194 42.9837 66.8338 43.0765 66.924L46.2865 70.0506L45.5298 74.464C45.5084 74.5915 45.5229 74.7225 45.5718 74.8422C45.6207 74.9619 45.702 75.0656 45.8066 75.1416C45.9112 75.2176 46.0349 75.2629 46.1638 75.2725C46.2928 75.282 46.4219 75.2554 46.5365 75.1957L50.4998 73.1123L54.4532 75.1957C54.568 75.256 54.6975 75.2831 54.8269 75.2737C54.9563 75.2643 55.0805 75.2189 55.1854 75.1426C55.2903 75.0663 55.3718 74.9621 55.4206 74.8419C55.4694 74.7217 55.4836 74.5902 55.4615 74.4623L54.7032 70.0506L57.9148 66.9256C58.0076 66.8351 58.0731 66.7205 58.1041 66.5947C58.1352 66.4688 58.1304 66.3368 58.0903 66.2136C58.0503 66.0903 57.9766 65.9808 57.8775 65.8972C57.7785 65.8136 57.6581 65.7594 57.5298 65.7407L53.0998 65.099L51.1165 61.0823L51.1182 61.084Z" fill="#BEAB32"/>
</svg>
