<svg width="235" height="215" viewBox="0 0 235 215" fill="none" xmlns="http://www.w3.org/2000/svg">
<rect y="0.952637" width="6.35132" height="5.84517" rx="1.34409" fill="white"/>
<rect x="25.4058" y="0.952637" width="6.35132" height="5.84517" rx="1.34409" fill="white"/>
<rect x="50.811" y="0.952637" width="6.35132" height="5.84517" rx="1.34409" fill="white"/>
<rect x="76.2163" y="0.952637" width="6.35132" height="5.84517" rx="1.34409" fill="white"/>
<rect x="101.622" y="0.952637" width="6.35132" height="5.84517" rx="1.34409" fill="white"/>
<rect x="127.027" y="0.952637" width="6.35144" height="5.84517" rx="1.34409" fill="white"/>
<rect x="152.433" y="0.952637" width="6.35132" height="5.84517" rx="1.34409" fill="white"/>
<rect x="177.838" y="0.952637" width="6.35144" height="5.84517" rx="1.34409" fill="white"/>
<rect x="203.244" y="0.952637" width="6.35132" height="5.84517" rx="1.34409" fill="white"/>
<rect x="228.648" y="0.952637" width="6.35132" height="5.84517" rx="1.34409" fill="white"/>
<rect y="24.3335" width="6.35132" height="5.84518" rx="1.34409" fill="white"/>
<rect x="25.4058" y="24.3335" width="6.35132" height="5.84516" rx="1.34409" fill="white"/>
<rect x="50.811" y="24.3335" width="6.35132" height="5.84516" rx="1.34409" fill="white"/>
<rect x="76.2163" y="24.3335" width="6.35132" height="5.84516" rx="1.34409" fill="white"/>
<rect x="101.622" y="24.3335" width="6.35132" height="5.84516" rx="1.34409" fill="white"/>
<rect x="127.027" y="24.3335" width="6.35144" height="5.84516" rx="1.34409" fill="white"/>
<rect x="152.433" y="24.3335" width="6.35132" height="5.84516" rx="1.34409" fill="white"/>
<rect x="177.838" y="24.3335" width="6.35144" height="5.84516" rx="1.34409" fill="white"/>
<rect x="203.244" y="24.3335" width="6.35132" height="5.84516" rx="1.34409" fill="white"/>
<rect x="228.648" y="24.3335" width="6.35132" height="5.84516" rx="1.34409" fill="white"/>
<rect y="47.7139" width="6.35132" height="5.84517" rx="1.34409" fill="white"/>
<rect x="25.4058" y="47.7139" width="6.35132" height="5.84517" rx="1.34409" fill="white"/>
<rect x="50.811" y="47.7139" width="6.35132" height="5.84517" rx="1.34409" fill="white"/>
<rect x="76.2163" y="47.7139" width="6.35132" height="5.84517" rx="1.34409" fill="white"/>
<rect x="101.622" y="47.7139" width="6.35132" height="5.84517" rx="1.34409" fill="white"/>
<rect x="127.027" y="47.7139" width="6.35144" height="5.84517" rx="1.34409" fill="white"/>
<rect x="152.433" y="47.7139" width="6.35132" height="5.84517" rx="1.34409" fill="white"/>
<rect x="177.838" y="47.7139" width="6.35144" height="5.84517" rx="1.34409" fill="white"/>
<rect x="203.244" y="47.7139" width="6.35132" height="5.84517" rx="1.34409" fill="white"/>
<rect x="228.648" y="47.7139" width="6.35132" height="5.84517" rx="1.34409" fill="white"/>
<rect y="71.0947" width="6.35132" height="5.84518" rx="1.34409" fill="white"/>
<rect x="25.4058" y="71.0947" width="6.35132" height="5.84518" rx="1.34409" fill="white"/>
<rect x="50.811" y="71.0947" width="6.35132" height="5.84518" rx="1.34409" fill="white"/>
<rect x="76.2163" y="71.0947" width="6.35132" height="5.84518" rx="1.34409" fill="white"/>
<rect x="101.622" y="71.0947" width="6.35132" height="5.84518" rx="1.34409" fill="white"/>
<rect x="127.027" y="71.0947" width="6.35144" height="5.84518" rx="1.34409" fill="white"/>
<rect x="152.433" y="71.0947" width="6.35132" height="5.84518" rx="1.34409" fill="white"/>
<rect x="177.838" y="71.0947" width="6.35144" height="5.84518" rx="1.34409" fill="white"/>
<rect x="203.244" y="71.0947" width="6.35132" height="5.84518" rx="1.34409" fill="white"/>
<rect x="228.648" y="71.0947" width="6.35132" height="5.84518" rx="1.34409" fill="white"/>
<rect y="94.4756" width="6.35132" height="5.84517" rx="1.34409" fill="white"/>
<rect x="25.4058" y="94.4756" width="6.35132" height="5.84517" rx="1.34409" fill="white"/>
<rect x="50.811" y="94.4756" width="6.35132" height="5.84517" rx="1.34409" fill="white"/>
<rect x="76.2163" y="94.4756" width="6.35132" height="5.84517" rx="1.34409" fill="white"/>
<rect x="101.622" y="94.4756" width="6.35132" height="5.84517" rx="1.34409" fill="white"/>
<rect x="127.027" y="94.4756" width="6.35144" height="5.84517" rx="1.34409" fill="white"/>
<rect x="152.433" y="94.4756" width="6.35132" height="5.84517" rx="1.34409" fill="white"/>
<rect x="177.838" y="94.4756" width="6.35144" height="5.84517" rx="1.34409" fill="white"/>
<rect x="203.244" y="94.4756" width="6.35132" height="5.84517" rx="1.34409" fill="white"/>
<rect x="228.648" y="94.4756" width="6.35132" height="5.84517" rx="1.34409" fill="white"/>
<rect y="117.856" width="6.35132" height="5.84517" rx="1.34409" fill="white"/>
<rect x="25.4058" y="117.856" width="6.35132" height="5.84517" rx="1.34409" fill="white"/>
<rect x="50.811" y="117.856" width="6.35132" height="5.84517" rx="1.34409" fill="white"/>
<rect x="76.2163" y="117.856" width="6.35132" height="5.84517" rx="1.34409" fill="white"/>
<rect x="101.622" y="117.856" width="6.35132" height="5.84517" rx="1.34409" fill="white"/>
<rect x="127.027" y="117.856" width="6.35144" height="5.84517" rx="1.34409" fill="white"/>
<rect x="152.433" y="117.856" width="6.35132" height="5.84517" rx="1.34409" fill="white"/>
<rect x="177.838" y="117.856" width="6.35144" height="5.84517" rx="1.34409" fill="white"/>
<rect x="203.244" y="117.856" width="6.35132" height="5.84517" rx="1.34409" fill="white"/>
<rect x="228.648" y="117.856" width="6.35132" height="5.84517" rx="1.34409" fill="white"/>
<rect y="141.237" width="6.35132" height="5.84517" rx="1.34409" fill="white"/>
<rect y="163.787" width="6.35132" height="5.84518" rx="1.34409" fill="white"/>
<rect y="186.336" width="6.35132" height="5.84517" rx="1.34409" fill="white"/>
<rect y="208.886" width="6.35132" height="5.84514" rx="1.34409" fill="white"/>
<rect x="25.4058" y="141.237" width="6.35132" height="5.84517" rx="1.34409" fill="white"/>
<rect x="25.4058" y="163.787" width="6.35132" height="5.84518" rx="1.34409" fill="white"/>
<rect x="25.4058" y="186.336" width="6.35132" height="5.84517" rx="1.34409" fill="white"/>
<rect x="25.4058" y="208.886" width="6.35132" height="5.84514" rx="1.34409" fill="white"/>
<rect x="50.811" y="141.237" width="6.35132" height="5.84517" rx="1.34409" fill="white"/>
<rect x="50.811" y="163.787" width="6.35132" height="5.84518" rx="1.34409" fill="white"/>
<rect x="50.811" y="186.336" width="6.35132" height="5.84517" rx="1.34409" fill="white"/>
<rect x="50.811" y="208.886" width="6.35132" height="5.84514" rx="1.34409" fill="white"/>
<rect x="76.2163" y="141.237" width="6.35132" height="5.84517" rx="1.34409" fill="white"/>
<rect x="76.2163" y="163.787" width="6.35132" height="5.84518" rx="1.34409" fill="white"/>
<rect x="76.2163" y="186.336" width="6.35132" height="5.84517" rx="1.34409" fill="white"/>
<rect x="76.2163" y="208.886" width="6.35132" height="5.84514" rx="1.34409" fill="white"/>
<rect x="101.622" y="141.237" width="6.35132" height="5.84517" rx="1.34409" fill="white"/>
<rect x="101.622" y="163.787" width="6.35132" height="5.84518" rx="1.34409" fill="white"/>
<rect x="101.622" y="186.336" width="6.35132" height="5.84517" rx="1.34409" fill="white"/>
<rect x="101.622" y="208.886" width="6.35132" height="5.84514" rx="1.34409" fill="white"/>
<rect x="127.027" y="141.237" width="6.35144" height="5.84517" rx="1.34409" fill="white"/>
<rect x="127.027" y="163.787" width="6.35144" height="5.84518" rx="1.34409" fill="white"/>
<rect x="127.027" y="186.336" width="6.35144" height="5.84517" rx="1.34409" fill="white"/>
<rect x="127.027" y="208.886" width="6.35144" height="5.84514" rx="1.34409" fill="white"/>
<rect x="152.433" y="141.237" width="6.35132" height="5.84517" rx="1.34409" fill="white"/>
<rect x="152.433" y="163.787" width="6.35132" height="5.84518" rx="1.34409" fill="white"/>
<rect x="152.433" y="186.336" width="6.35132" height="5.84517" rx="1.34409" fill="white"/>
<rect x="152.433" y="208.886" width="6.35132" height="5.84514" rx="1.34409" fill="white"/>
<rect x="177.838" y="141.237" width="6.35144" height="5.84517" rx="1.34409" fill="white"/>
<rect x="177.838" y="163.787" width="6.35144" height="5.84518" rx="1.34409" fill="white"/>
<rect x="177.838" y="186.336" width="6.35144" height="5.84517" rx="1.34409" fill="white"/>
<rect x="177.838" y="208.886" width="6.35144" height="5.84514" rx="1.34409" fill="white"/>
<rect x="203.244" y="141.237" width="6.35132" height="5.84517" rx="1.34409" fill="white"/>
<rect x="203.244" y="163.787" width="6.35132" height="5.84518" rx="1.34409" fill="white"/>
<rect x="228.648" y="141.237" width="6.35132" height="5.84517" rx="1.34409" fill="white"/>
</svg>
