<svg width="28" height="26" viewBox="0 0 28 26" fill="none" xmlns="http://www.w3.org/2000/svg">
<path d="M12.9735 6.72067V1.37532C12.9735 0.806952 13.4269 0.333313 14.0002 0.333313C14.5135 0.333313 14.9485 0.731301 15.0174 1.23542L15.0269 1.37532V6.72067L21.4001 6.72108C24.5734 6.72108 27.1805 9.31969 27.3269 12.5605L27.3334 12.8481V19.5672C27.3334 22.8307 24.817 25.5096 21.6908 25.66L21.4134 25.6666H6.58675C3.41341 25.6666 0.818868 23.081 0.673198 19.8283L0.666748 19.5396V12.8343C0.666748 9.57078 3.17063 6.87893 6.29608 6.72777L6.57342 6.72108H12.9734V15.2576L10.8401 13.0546C10.4401 12.6416 9.78675 12.6416 9.38675 13.0546C9.18675 13.2612 9.09342 13.5365 9.09342 13.8119C9.09342 14.0212 9.15315 14.2393 9.27944 14.4239L9.38675 14.5554L13.2667 18.5758C13.4534 18.7824 13.7201 18.8925 14.0001 18.8925C14.2223 18.8925 14.4445 18.816 14.6205 18.671L14.7201 18.5758L18.6001 14.5554C19.0001 14.1423 19.0001 13.4677 18.6001 13.0546C18.2364 12.6791 17.6634 12.645 17.2617 12.9522L17.1467 13.0546L15.0268 15.2576V6.72108L12.9735 6.72067Z" fill="#34364A"/>
</svg>
