<svg width="24" height="24" viewBox="0 0 24 24" fill="none" xmlns="http://www.w3.org/2000/svg">
<path d="M11.25 5.99999V19.91C11.25 20.62 10.53 21.11 9.88 20.84C8.02 20.06 5.71 19.38 4.07 19.16L3.76 19.12C2.79 19 2 18.11 2 17.14V5.24999C2 4.04999 2.97 3.07999 4.17 3.07999H4.24C6.12 3.23999 8.89 4.11999 10.72 5.10999C11.05 5.28999 11.25 5.61999 11.25 5.99999Z" fill="#292D32"/>
<path d="M19.83 3.07999H19.77C19.53 3.09999 19.27 3.12999 19 3.17999C17.77 3.37999 16.31 3.79999 15 4.31999C14.38 4.56999 13.8 4.83999 13.29 5.10999C12.96 5.28999 12.75 5.62999 12.75 5.99999V19.91C12.75 20.62 13.47 21.11 14.12 20.84C15.98 20.06 18.29 19.38 19.93 19.16L20.24 19.12C21.21 19 22 18.11 22 17.14V5.24999C22 4.04999 21.03 3.07999 19.83 3.07999ZM19.27 13.73C19.27 14.12 18.99 14.29 18.65 14.1L17.59 13.51C17.48 13.45 17.3 13.45 17.18 13.51L16.12 14.1C15.78 14.29 15.5 14.12 15.5 13.73V10.66C15.5 10.2 15.88 9.81999 16.34 9.81999H18.44C18.9 9.81999 19.28 10.2 19.28 10.66V13.73H19.27Z" fill="#292D32"/>
</svg>
