<svg width="48" height="48" viewBox="0 0 48 48" fill="none" xmlns="http://www.w3.org/2000/svg">
<path d="M34.2 4H25.8C19.2558 4 16.3997 6.46472 16.0543 12.4862C16.0224 13.0422 16.475 13.5 17.0319 13.5H22.2C30.6 13.5 34.5 17.4 34.5 25.8V30.9681C34.5 31.525 34.9578 31.9776 35.5138 31.9457C41.5353 31.6003 44 28.7442 44 22.2V13.8C44 6.8 41.2 4 34.2 4Z" fill="#435370"/>
<path d="M22.2 16H13.8C6.8 16 4 18.8 4 25.8V34.2C4 41.2 6.8 44 13.8 44H22.2C29.2 44 32 41.2 32 34.2V25.8C32 18.8 29.2 16 22.2 16ZM24.58 27.3L17.16 34.72C16.88 35 16.52 35.14 16.14 35.14C15.76 35.14 15.4 35 15.12 34.72L11.4 31C10.84 30.44 10.84 29.54 11.4 28.98C11.96 28.42 12.86 28.42 13.42 28.98L16.12 31.68L22.54 25.26C23.1 24.7 24 24.7 24.56 25.26C25.12 25.82 25.14 26.74 24.58 27.3Z" fill="#435370"/>
</svg>
