<svg width="92" height="91" viewBox="0 0 92 91" fill="none" xmlns="http://www.w3.org/2000/svg">
<g filter="url(#filter0_d_273_6491)">
<path fill-rule="evenodd" clip-rule="evenodd" d="M12.2646 3.456C17.9366 5.88492 27.2458 5.59733 33.4898 1C42.2206 7.24096 50.6235 6.60028 58.6354 1C63.9771 4.76683 72.2011 6.37514 79.9178 3.53505L83.3772 8.22423C74.3566 19.9853 77.6957 31.2274 87 41.1209L83.093 44.9857C83.9781 70.3523 63.8398 76.4086 52.276 77.0373L46.0587 82L39.8878 77.1113C19.2429 75.3719 8.34278 64.7464 9.01712 45.0509L5 41.0913C12.8491 32.8086 18.7472 21.4906 8.66437 8.22167L12.2646 3.456Z" fill="#939393" stroke="#939393" stroke-width="0.189272"/>
<path fill-rule="evenodd" clip-rule="evenodd" d="M12.7345 44.54H79.1642C80.9101 62.4739 69.2311 72.1604 51.4718 73.1127L40.1868 73.1406C23.1959 71.949 10.5372 63.1971 12.7345 44.54Z" fill="#939393"/>
<path d="M50.7815 44.7559H41.3716V73.4131H50.7815V44.7559Z" fill="#EFEFEF"/>
<path d="M32.0535 44.7559H22.6436V70.3672H32.0535V44.7559Z" fill="#EFEFEF"/>
<path d="M32.0534 69.0552H25.9243V71.6933H32.0534V69.0552Z" fill="#EFEFEF"/>
<path d="M69.4031 44.7559H59.9932V70.3672H69.4031V44.7559Z" fill="#EFEFEF"/>
<path d="M66.1222 69.0552H59.9932V71.6933H66.1222V69.0552Z" fill="#EFEFEF"/>
<path fill-rule="evenodd" clip-rule="evenodd" d="M45.7707 9.3815V34.8357L14.0601 35.0595L17.3287 22.8079L13.2573 8.15075L33.3273 5.6333L45.7707 9.3815Z" fill="white"/>
<path fill-rule="evenodd" clip-rule="evenodd" d="M46.2295 9.3815V34.8357L77.9401 35.0595L74.6715 22.8079L78.7429 8.15075L58.6729 5.6333L46.2295 9.3815Z" fill="#EFEFEF"/>
<path d="M36.5397 6.35889H27.4478V34.6784H36.5397V6.35889Z" fill="#939393"/>
<path d="M45.771 25.7919V16.9219H17.4798V25.7919H45.771Z" fill="#939393"/>
<path d="M52.4379 8.36621H49.0752V34.4939H52.4379V8.36621Z" fill="#939393"/>
<path d="M58.8212 6.49463H55.4585V34.5555H58.8212V6.49463Z" fill="#939393"/>
<path d="M65.247 8.07617H61.8843V34.6139H65.247V8.07617Z" fill="#939393"/>
<path d="M71.6117 9.04834H68.249V34.5902H71.6117V9.04834Z" fill="#939393"/>
<path fill-rule="evenodd" clip-rule="evenodd" d="M33.4367 3.01611C27.5806 7.20365 18.3139 7.64422 12.9942 5.55049L10.8636 8.22644C20.0041 20.7739 14.7525 33.3973 7.50488 41.1285L10.8424 44.5744C9.48806 63.4866 20.8009 74.4244 40.6886 75.5498L46.0788 79.9418L51.4585 75.4808C63.04 75.2859 83.3477 68.9491 81.1596 44.5468L84.5148 41.1561C76.0033 31.9471 73.0697 19.3337 81.2941 8.22644L79.2944 5.56776C72.0172 7.90094 63.6918 6.60765 58.682 3.07481C51.1678 8.32721 41.6252 8.86939 33.4367 3.01611ZM58.7492 6.61052C63.2673 9.34731 68.2598 10.1261 76.8665 9.39005C72.5567 16.6648 72.0912 25.3309 75.9074 33.698L16.1795 33.6635C19.3919 26.187 20.129 17.5837 15.093 9.22431C21.3008 10.1036 27.3649 9.89291 33.412 6.68303C41.6142 11.3806 50.0524 11.4665 58.7492 6.61052ZM14.0595 44.8231H78.1088C79.7921 62.114 68.5315 71.4516 51.4089 72.3698L40.5258 72.3974C24.144 71.2485 11.9409 62.8113 14.0595 44.8231Z" fill="#DEDEDE" stroke="#939393" stroke-width="0.177515"/>
<path fill-rule="evenodd" clip-rule="evenodd" d="M15.0239 9.31557C20.0599 17.675 19.3223 26.2781 16.1099 33.7546L75.8364 33.789C72.0203 25.422 72.4874 16.7557 76.7972 9.48093C68.1905 10.2169 63.1992 9.43895 58.6812 6.70215C49.9843 11.5581 41.5434 11.4703 33.3412 6.77278C27.294 9.98267 21.2318 10.1948 15.0239 9.31557Z" stroke="#939393" stroke-width="0.75709"/>
<path fill-rule="evenodd" clip-rule="evenodd" d="M14.0591 44.8232H78.1073C79.7906 62.1141 68.5303 71.4534 51.4077 72.3716L40.5272 72.3985C24.1455 71.2496 11.9405 62.8115 14.0591 44.8232Z" stroke="#939393" stroke-width="0.75709"/>
<path d="M46.0205 10.1899V33.8001" stroke="#939393" stroke-width="0.75709"/>
<path d="M54.8536 58.2971C54.8538 59.4129 54.6287 60.5177 54.1912 61.5486C53.7537 62.5795 53.1123 63.5162 52.3037 64.3052C51.4951 65.0942 50.5351 65.7201 49.4785 66.1472C48.4219 66.5742 47.2894 66.794 46.1458 66.794C45.0021 66.794 43.8697 66.5742 42.8131 66.1472C41.7565 65.7201 40.7965 65.0942 39.9879 64.3052C39.1793 63.5162 38.5379 62.5795 38.1004 61.5486C37.6629 60.5177 37.4378 59.4129 37.438 58.2971C37.4378 57.1814 37.6629 56.0765 38.1004 55.0457C38.5379 54.0148 39.1793 53.0781 39.9879 52.2891C40.7965 51.5 41.7565 50.8741 42.8131 50.4471C43.8697 50.0201 45.0021 49.8003 46.1458 49.8003C47.2894 49.8003 48.4219 50.0201 49.4785 50.4471C50.5351 50.8741 51.4951 51.5 52.3037 52.2891C53.1123 53.0781 53.7537 54.0148 54.1912 55.0457C54.6287 56.0765 54.8538 57.1814 54.8536 58.2971Z" fill="#939393" stroke="#939393" stroke-width="0.760882"/>
<path d="M41.1223 51.3774C40.1059 54.9915 39.4756 58.5501 42.4077 60.26C44.4565 61.4548 45.8419 59.0181 46.2258 58.074" stroke="#EFEFEF" stroke-width="0.662453"/>
<path d="M38.0874 61.7231C39.8039 61.6467 40.6997 61.509 41.8007 59.877" stroke="#EFEFEF" stroke-width="0.662453"/>
<path d="M46.1538 58.1374C47.8764 57.1044 49.4085 57.6043 50.1202 60.1903C51.7968 59.533 53.4126 60.7954 53.8335 62.0713" stroke="#EFEFEF" stroke-width="0.662453"/>
<path d="M50.1554 60.1899C48.8828 63.1874 45.5355 64.5749 40.8364 65.0318" stroke="#EFEFEF" stroke-width="0.662453"/>
<path d="M46.1566 58.2604C45.0993 57.3159 43.4727 56.235 45.8424 53.4583C44.8369 52.2152 44.5629 51.0007 45.8773 49.8481" stroke="#EFEFEF" stroke-width="0.662453"/>
<path d="M54.8136 58.8051C53.2671 56.1381 49.6677 52.4425 45.8418 53.424" stroke="#EFEFEF" stroke-width="0.662453"/>
<path d="M33.9707 35.3401H34.0653V35.309H38.2116V36.8461H34.0981H34.0035V36.9408V38.2425V38.3371H34.0981H36.442V39.8467H34.0981H34.0035V39.9413V43.1786H32.4833V39.9413V38.2425V35.3401H33.9707Z" fill="#F4F4F4" stroke="#F4F4F4" stroke-width="0.189272"/>
<path fill-rule="evenodd" clip-rule="evenodd" d="M46.9123 37.7293L48.4466 36.9476C47.4672 34.835 43.4963 34.2342 42.19 36.9476C40.8422 40.1841 42.2748 43.191 44.8836 43.4839C46.5412 43.7194 47.8548 42.9278 48.4125 41.5214L46.8952 40.6731C46.4911 41.6554 44.9504 42.3315 43.7754 40.6898C43.4136 39.9562 43.3208 38.827 43.7243 37.7293C44.6879 36.4376 46.0965 36.5774 46.9123 37.7293Z" fill="#F4F4F4" stroke="#F4F4F4" stroke-width="0.0378545"/>
<path fill-rule="evenodd" clip-rule="evenodd" d="M52.7778 35.2354L52.8097 43.3357L57.3293 43.3184C58.7999 43.1175 60.7278 40.769 58.4689 38.9437C59.6632 37.9169 59.5135 35.7204 57.124 35.2526L52.7778 35.2354ZM54.5156 36.8306H56.7665C57.7564 37.1085 57.4627 38.0369 56.7984 38.1944H54.5156V36.8306ZM54.5333 39.7758L56.901 39.8069C58.0722 40.147 57.8077 41.4491 56.9364 41.6714L54.551 41.6542L54.5333 39.7758Z" fill="#F4F4F4" stroke="#F4F4F4" stroke-width="0.189272"/>
</g>
<defs>
<filter id="filter0_d_273_6491" x="0.867676" y="0.883301" width="90.2646" height="89.2378" filterUnits="userSpaceOnUse" color-interpolation-filters="sRGB">
<feFlood flood-opacity="0" result="BackgroundImageFix"/>
<feColorMatrix in="SourceAlpha" type="matrix" values="0 0 0 0 0 0 0 0 0 0 0 0 0 0 0 0 0 0 127 0" result="hardAlpha"/>
<feOffset dy="4"/>
<feGaussianBlur stdDeviation="2"/>
<feComposite in2="hardAlpha" operator="out"/>
<feColorMatrix type="matrix" values="0 0 0 0 0 0 0 0 0 0 0 0 0 0 0 0 0 0 0.25 0"/>
<feBlend mode="normal" in2="BackgroundImageFix" result="effect1_dropShadow_273_6491"/>
<feBlend mode="normal" in="SourceGraphic" in2="effect1_dropShadow_273_6491" result="shape"/>
</filter>
</defs>
</svg>
