<svg width="233" height="57" viewBox="0 0 233 57" fill="none" xmlns="http://www.w3.org/2000/svg">
<g clip-path="url(#clip0_541_6551)">
<path fill-rule="evenodd" clip-rule="evenodd" d="M27.692 0.5C43.0268 0.5 55.384 12.9278 55.384 28.3503C55.384 39.8797 48.3866 49.762 38.4115 54.1043C37.816 54.4037 37.0716 54.5535 36.476 54.5535C33.6473 54.5535 31.2652 52.3075 31.2652 49.3128C31.2652 47.2166 32.6051 45.2701 34.3917 44.5214L34.8383 44.3717C40.9425 41.6765 45.1112 35.5374 45.1112 28.5C44.9623 18.7674 37.2204 10.9813 27.692 10.9813C18.1636 10.9813 10.4217 18.7674 10.4217 28.5C10.4217 35.6872 14.8882 41.9759 20.9923 44.5214L21.2901 44.6711C23.0767 45.5695 24.2677 47.3663 24.2677 49.3128C24.2677 52.1578 22.0345 54.5535 19.0569 54.5535C18.3125 54.5535 17.5681 54.4037 17.1214 54.1043C6.99744 49.762 0 39.8797 0 28.3503C0 12.9278 12.5061 0.5 27.692 0.5ZM27.692 17.869C33.4984 17.869 38.1137 22.5107 38.1137 28.3503C38.1137 34.1898 33.4984 38.8316 27.692 38.8316C21.8856 38.8316 17.2703 34.1898 17.2703 28.3503C17.2703 22.5107 22.0345 17.869 27.692 17.869Z" fill="#00AA13"/>
<path fill-rule="evenodd" clip-rule="evenodd" d="M156.921 9.78342V45.7192C156.921 53.2059 153.944 56.5 145.755 56.5H140.396V48.7139H145.011C147.393 48.7139 148.286 47.8155 148.286 45.5695V9.78342H156.921ZM104.068 9.78342V41.2273C104.068 49.9118 97.5176 56.5 87.6914 56.5C81.2895 56.5 75.7808 54.254 72.0588 50.361L77.5674 44.9706C79.9495 47.3663 82.7783 48.7139 87.5425 48.7139C92.3067 48.7139 95.8799 45.7192 95.8799 41.5267V38.3824H95.731C93.6466 40.7781 90.0735 42.1257 85.9048 42.1257C76.5252 42.1257 69.3789 35.238 69.3789 25.9545C69.3789 16.9706 76.2275 9.93316 85.607 9.93316C89.9246 9.93316 93.4978 11.2807 95.731 13.5267H95.8799V9.78342H104.068ZM126.252 9.78342C136.227 9.78342 143.373 16.8209 143.373 25.9545C143.373 35.0882 136.227 42.1257 126.252 42.1257C116.277 42.1257 109.13 35.0882 109.13 25.9545C109.13 16.8209 116.277 9.78342 126.252 9.78342ZM178.36 9.78342C188.484 9.78342 194.886 17.1203 194.886 26.254V28.6497H170.172C170.321 31.7941 174.341 35.0882 179.403 35.0882C182.827 35.0882 185.06 34.1898 187.74 31.7941L193.397 35.8369C191.015 38.8316 186.251 41.9759 179.7 41.9759C168.981 41.9759 161.834 35.5374 161.834 25.8048C161.983 16.5214 168.832 9.78342 178.36 9.78342ZM208.137 0.5V22.5107H208.286L221.983 9.48396H233L218.856 23.1096L233 41.9759H223.174L213.496 28.3503H213.348L208.137 33.2914V41.9759H199.948V0.5H208.137ZM126.252 17.2701C120.892 17.2701 117.617 21.0134 117.617 25.9545C117.617 30.8957 121.041 34.639 126.252 34.639C131.612 34.639 134.887 30.8957 134.887 25.9545C135.036 20.8636 131.612 17.2701 126.252 17.2701ZM87.2447 17.2701C81.5872 17.2701 78.0141 20.7139 78.0141 25.6551C78.0141 31.0455 81.4383 34.3396 86.947 34.3396C91.8601 34.3396 95.5821 31.3449 95.5821 27.6016V24.008C95.5821 20.4144 91.7112 17.2701 87.2447 17.2701ZM178.658 16.6711C174.043 16.6711 170.916 19.0668 170.47 22.6604H186.847C186.251 18.9171 183.125 16.6711 178.658 16.6711Z" fill="black"/>
</g>
<defs>
<clipPath id="clip0_541_6551">
<rect width="233" height="56" fill="white" transform="translate(0 0.5)"/>
</clipPath>
</defs>
</svg>
