<svg width="195" height="47" viewBox="0 0 195 47" fill="none" xmlns="http://www.w3.org/2000/svg">
<g clip-path="url(#clip0_273_6470)">
<path fill-rule="evenodd" clip-rule="evenodd" d="M23.1757 0.5C36.0096 0.5 46.3514 10.7086 46.3514 23.377C46.3514 32.8476 40.4952 40.9652 32.147 44.5321C31.6486 44.7781 31.0256 44.9011 30.5272 44.9011C28.1597 44.9011 26.1661 43.0561 26.1661 40.5963C26.1661 38.8743 27.2875 37.2754 28.7828 36.6604L29.1566 36.5374C34.2652 34.3235 37.754 29.2807 37.754 23.5C37.6294 15.5053 31.1502 9.10963 23.1757 9.10963C15.2013 9.10963 8.72205 15.5053 8.72205 23.5C8.72205 29.4037 12.4601 34.5695 17.5687 36.6604L17.8179 36.7834C19.3131 37.5214 20.3099 38.9973 20.3099 40.5963C20.3099 42.9332 18.4409 44.9011 15.9489 44.9011C15.3259 44.9011 14.7029 44.7781 14.3291 44.5321C5.85623 40.9652 0 32.8476 0 23.377C0 10.7086 10.4665 0.5 23.1757 0.5ZM23.1757 14.7674C28.0351 14.7674 31.8978 18.5802 31.8978 23.377C31.8978 28.1738 28.0351 31.9866 23.1757 31.9866C18.3163 31.9866 14.4537 28.1738 14.4537 23.377C14.4537 18.5802 18.4409 14.7674 23.1757 14.7674Z" fill="#DEDEDE"/>
<path fill-rule="evenodd" clip-rule="evenodd" d="M131.329 8.12567V37.6444C131.329 43.7941 128.837 46.5 121.984 46.5H117.498V40.1043H121.361C123.355 40.1043 124.102 39.3663 124.102 37.5214V8.12567H131.329ZM87.0959 8.12567V33.9545C87.0959 41.0882 81.6135 46.5 73.3898 46.5C68.032 46.5 63.4218 44.6551 60.3068 41.4572L64.917 37.0294C66.9106 38.9973 69.278 40.1043 73.2652 40.1043C77.2525 40.1043 80.2429 37.6444 80.2429 34.2005V31.6176H80.1183C78.3739 33.5856 75.3835 34.6925 71.8946 34.6925C64.0448 34.6925 58.064 29.0348 58.064 21.4091C58.064 14.0294 63.7956 8.24866 71.6454 8.24866C75.2589 8.24866 78.2493 9.35561 80.1183 11.2005H80.2429V8.12567H87.0959ZM105.661 8.12567C114.01 8.12567 119.99 13.9064 119.99 21.4091C119.99 28.9118 114.01 34.6925 105.661 34.6925C97.3132 34.6925 91.3323 28.9118 91.3323 21.4091C91.3323 13.9064 97.3132 8.12567 105.661 8.12567ZM149.272 8.12567C157.744 8.12567 163.102 14.1524 163.102 21.6551V23.623H142.419C142.543 26.2059 145.907 28.9118 150.144 28.9118C153.01 28.9118 154.879 28.1738 157.121 26.2059L161.856 29.5267C159.863 31.9866 155.875 34.5695 150.393 34.5695C141.422 34.5695 135.441 29.2807 135.441 21.2861C135.566 13.6604 141.297 8.12567 149.272 8.12567ZM174.192 0.5V18.5802H174.316L185.78 7.87968H195L183.163 19.0722L195 34.5695H186.776L178.677 23.377H178.553L174.192 27.4358V34.5695H167.339V0.5H174.192ZM105.661 14.2754C101.176 14.2754 98.4346 17.3503 98.4346 21.4091C98.4346 25.4679 101.3 28.5428 105.661 28.5428C110.147 28.5428 112.888 25.4679 112.888 21.4091C113.013 17.2273 110.147 14.2754 105.661 14.2754ZM73.016 14.2754C68.2812 14.2754 65.2908 17.1043 65.2908 21.1631C65.2908 25.5909 68.1566 28.2968 72.7668 28.2968C76.8787 28.2968 79.9937 25.8369 79.9937 22.762V19.8102C79.9937 16.8583 76.7541 14.2754 73.016 14.2754ZM149.521 13.7834C145.658 13.7834 143.042 15.7513 142.668 18.7032H156.374C155.875 15.6283 153.259 13.7834 149.521 13.7834Z" fill="#DEDEDE"/>
</g>
<defs>
<clipPath id="clip0_273_6470">
<rect width="195" height="46" fill="white" transform="translate(0 0.5)"/>
</clipPath>
</defs>
</svg>
