<svg width="46" height="38" viewBox="0 0 46 38" fill="none" xmlns="http://www.w3.org/2000/svg">
<path d="M30.5 8C30.5 12.1421 27.1421 15.5 23 15.5C18.8579 15.5 15.5 12.1421 15.5 8C15.5 3.85786 18.8579 0.5 23 0.5C27.1421 0.5 30.5 3.85786 30.5 8Z" fill="#BEAB32"/>
<path d="M43 13C43 15.7614 40.7614 18 38 18C35.2386 18 33 15.7614 33 13C33 10.2386 35.2386 8 38 8C40.7614 8 43 10.2386 43 13Z" fill="#BEAB32"/>
<path d="M33 30.5C33 24.9772 28.5228 20.5 23 20.5C17.4772 20.5 13 24.9772 13 30.5V38H33V30.5Z" fill="#BEAB32"/>
<path d="M13 13C13 15.7614 10.7614 18 8 18C5.23858 18 3 15.7614 3 13C3 10.2386 5.23858 8 8 8C10.7614 8 13 10.2386 13 13Z" fill="#BEAB32"/>
<path d="M38 38V30.5C38 27.8646 37.3204 25.388 36.1268 23.2358C36.7256 23.0819 37.3532 23 38 23C42.1421 23 45.5 26.3579 45.5 30.5V38H38Z" fill="#BEAB32"/>
<path d="M9.87316 23.2358C8.67962 25.388 8 27.8646 8 30.5V38H0.5V30.5C0.5 26.3579 3.85786 23 8 23C8.64677 23 9.27442 23.0819 9.87316 23.2358Z" fill="#BEAB32"/>
</svg>
