<svg width="30" height="25" viewBox="0 0 30 25" fill="none" xmlns="http://www.w3.org/2000/svg">
<path d="M19.8001 5.59999C19.8001 8.25095 17.6511 10.4 15.0001 10.4C12.3491 10.4 10.2001 8.25095 10.2001 5.59999C10.2001 2.94902 12.3491 0.799988 15.0001 0.799988C17.6511 0.799988 19.8001 2.94902 19.8001 5.59999Z" fill="#111827"/>
<path d="M27.8001 8.79999C27.8001 10.5673 26.3674 12 24.6001 12C22.8328 12 21.4001 10.5673 21.4001 8.79999C21.4001 7.03268 22.8328 5.59999 24.6001 5.59999C26.3674 5.59999 27.8001 7.03268 27.8001 8.79999Z" fill="#111827"/>
<path d="M21.4001 20C21.4001 16.4654 18.5347 13.6 15.0001 13.6C11.4655 13.6 8.6001 16.4654 8.6001 20V24.8H21.4001V20Z" fill="#111827"/>
<path d="M8.6001 8.79999C8.6001 10.5673 7.16741 12 5.4001 12C3.63279 12 2.2001 10.5673 2.2001 8.79999C2.2001 7.03268 3.63279 5.59999 5.4001 5.59999C7.16741 5.59999 8.6001 7.03268 8.6001 8.79999Z" fill="#111827"/>
<path d="M24.6001 24.8V20C24.6001 18.3134 24.1651 16.7283 23.4013 15.3509C23.7845 15.2524 24.1862 15.2 24.6001 15.2C27.2511 15.2 29.4001 17.349 29.4001 20V24.8H24.6001Z" fill="#111827"/>
<path d="M6.59892 15.3509C5.83505 16.7283 5.4001 18.3134 5.4001 20V24.8H0.600098V20C0.600098 17.349 2.74913 15.2 5.4001 15.2C5.81403 15.2 6.21573 15.2524 6.59892 15.3509Z" fill="#111827"/>
</svg>
