<svg width="28" height="28" viewBox="0 0 28 28" fill="none" xmlns="http://www.w3.org/2000/svg">
<g clip-path="url(#clip0_612_6982)">
<path fill-rule="evenodd" clip-rule="evenodd" d="M2.1875 16.625C2.1875 21.6991 6.30088 25.8125 11.375 25.8125H16.625C21.6991 25.8125 25.8125 21.6991 25.8125 16.625V11.375C25.8125 6.30088 21.6991 2.1875 16.625 2.1875H11.375C6.30088 2.1875 2.1875 6.30088 2.1875 11.375V16.625ZM11.375 0C5.09276 0 0 5.09276 0 11.375V16.625C0 22.9072 5.09276 28 11.375 28H16.625C22.9072 28 28 22.9072 28 16.625V11.375C28 5.09276 22.9072 0 16.625 0H11.375Z" fill="#999AA4"/>
<path fill-rule="evenodd" clip-rule="evenodd" d="M13.5625 19.6875H8.3125V20.5625H13.5625V19.6875ZM7.875 17.5C6.9085 17.5 6.125 18.2835 6.125 19.25V21C6.125 21.9665 6.9085 22.75 7.875 22.75H14C14.9665 22.75 15.75 21.9665 15.75 21V19.25C15.75 18.2835 14.9665 17.5 14 17.5H7.875Z" fill="#999AA4"/>
<path fill-rule="evenodd" clip-rule="evenodd" d="M25.375 22.9688H2.625V20.7812H25.375V22.9688Z" fill="#999AA4"/>
<path fill-rule="evenodd" clip-rule="evenodd" d="M14.397 7.875C14.397 7.27094 14.8867 6.78125 15.4907 6.78125H20.125C20.7291 6.78125 21.2188 7.27094 21.2188 7.875C21.2188 8.47906 20.7291 8.96875 20.125 8.96875H15.4907C14.8867 8.96875 14.397 8.47906 14.397 7.875ZM9.40625 12.25C9.40625 11.6459 9.89594 11.1562 10.5 11.1562H20.125C20.7291 11.1562 21.2188 11.6459 21.2188 12.25C21.2188 12.8541 20.7291 13.3438 20.125 13.3438H10.5C9.89594 13.3438 9.40625 12.8541 9.40625 12.25Z" fill="#999AA4"/>
</g>
<defs>
<clipPath id="clip0_612_6982">
<rect width="28" height="28" fill="white"/>
</clipPath>
</defs>
</svg>
