<svg width="74" height="57" viewBox="0 0 74 57" fill="none" xmlns="http://www.w3.org/2000/svg">
<path fill-rule="evenodd" clip-rule="evenodd" d="M3.66683 9.30469H4.8335V40.598C4.8335 42.268 5.10016 43.893 5.86016 45.328C7.1985 47.8597 9.7385 49.0047 12.4335 49.328C13.2835 49.4297 14.1352 49.4697 14.9852 49.548C21.1618 50.118 26.6285 52.4397 31.1668 56.668C19.0668 54.4347 12.0502 55.1497 7.00016 56.1364C1.36683 57.2364 0.333496 54.9764 0.333496 51.593V12.688C0.333496 10.8197 1.82516 9.30469 3.66683 9.30469ZM70.3335 9.30469H69.1668V40.598C69.1668 42.268 68.9002 43.893 68.1402 45.328C66.8018 47.8597 64.2602 49.0047 61.5668 49.328C60.7168 49.428 59.8652 49.4697 59.0152 49.548C52.8385 50.118 47.3718 52.4397 42.8335 56.668C54.9335 54.4347 61.9502 55.1497 67.0002 56.1364C72.6335 57.2364 73.6668 54.9764 73.6668 51.593V12.688C73.6668 10.8197 72.1752 9.30469 70.3335 9.30469Z" fill="#564500"/>
<path d="M13.6665 0C9.6115 0 8.6665 1.69167 8.6665 5.075V40.5967C8.6665 45.6717 11.9998 45.3633 15.3332 45.6717C24.4998 46.5183 32.8332 51.5917 35.3332 54.13V15.2233C35.3332 10.995 35.3332 10.995 33.6665 9.30333C26.9998 2.53667 20.3332 0 13.6665 0Z" fill="#BEAB32"/>
<path fill-rule="evenodd" clip-rule="evenodd" d="M65.3332 5.075C65.3332 1.69167 64.3882 0 60.3332 0C53.6665 0 46.9998 2.53667 40.3332 9.30333C39.7065 9.94 39.3148 10.3367 39.0715 10.81C38.6665 11.5933 38.6665 12.5867 38.6665 15.2233V54.13C41.1665 51.5917 49.4998 46.5167 58.6665 45.6717C58.9948 45.6417 59.3232 45.6167 59.6498 45.5933C62.6248 45.3717 65.3332 45.1717 65.3332 40.5967V5.075ZM58.2215 21.145L51.1115 28.3083C50.9783 28.4498 50.8175 28.5626 50.6391 28.6397C50.4607 28.7167 50.2684 28.7565 50.074 28.7565C49.8797 28.7565 49.6874 28.7167 49.5089 28.6397C49.3305 28.5626 49.1697 28.4498 49.0365 28.3083L45.7782 25.025C45.6375 24.8897 45.5256 24.7274 45.4492 24.5479C45.3728 24.3683 45.3334 24.1752 45.3334 23.98C45.3334 23.7848 45.3728 23.5917 45.4492 23.4121C45.5256 23.2326 45.6375 23.0703 45.7782 22.935C45.9114 22.7938 46.0721 22.6812 46.2503 22.6043C46.4286 22.5274 46.6207 22.4877 46.8148 22.4877C47.009 22.4877 47.2011 22.5274 47.3794 22.6043C47.5576 22.6812 47.7183 22.7938 47.8515 22.935L50.0732 25.175L56.1482 19.055C56.2814 18.9138 56.4421 18.8012 56.6203 18.7243C56.7986 18.6474 56.9907 18.6077 57.1848 18.6077C57.379 18.6077 57.5711 18.6474 57.7494 18.7243C57.9276 18.8012 58.0883 18.9138 58.2215 19.055C58.3622 19.1903 58.474 19.3526 58.5505 19.5321C58.6269 19.7117 58.6663 19.9048 58.6663 20.1C58.6663 20.2952 58.6269 20.4883 58.5505 20.6679C58.474 20.8474 58.3622 21.0097 58.2215 21.145Z" fill="#BEAB32"/>
</svg>
