<svg width="184" height="57" viewBox="0 0 184 57" fill="none" xmlns="http://www.w3.org/2000/svg">
<g clip-path="url(#clip0_443_7683)">
<path fill-rule="evenodd" clip-rule="evenodd" d="M1.99252 38.0033C1.99252 35.2594 1.9464 32.9526 1.80347 30.8934H6.74174L6.97689 34.4289H7.11521C8.56318 31.8297 11.2407 30.2679 14.1007 30.3543C16.8724 30.2734 19.3911 32.0427 20.3854 34.7689H20.4868C21.181 33.5564 22.1368 32.5332 23.2764 31.7821C24.613 30.8025 26.2135 30.3018 27.8412 30.3543C31.6129 30.3543 35.4308 33.0497 35.4308 40.7083V54.7921H29.8331V41.5825C29.8331 37.6148 28.5282 35.2691 25.7801 35.2691C23.8251 35.2691 22.3819 36.726 21.7778 38.4598C21.6093 39.1143 21.5149 39.7876 21.4966 40.4655V54.7776H15.9128V40.9415C15.9128 37.6148 14.6587 35.2545 12.0028 35.2545C9.86331 35.2545 8.4201 37.0223 7.9037 38.6881C7.67776 39.3076 7.56666 39.967 7.57629 40.6306V54.7776H1.99252V38.0033Z" fill="#003D79"/>
<path fill-rule="evenodd" clip-rule="evenodd" d="M57.1862 49.0343C57.1581 50.9519 57.2663 52.8691 57.5088 54.7698H52.34L51.9711 52.123H51.842C50.1905 54.2105 47.7212 55.3847 45.1424 55.3088C40.5776 55.3088 38.0186 51.8316 38.0186 48.199C38.0186 42.1623 43.0905 39.1271 51.4731 39.1757V38.7822C51.4731 37.2136 50.8645 34.6154 46.8622 34.6154C44.7159 34.6188 42.6095 35.2276 40.762 36.3783L39.6323 32.4348C41.3061 31.3567 44.2432 30.3271 47.8259 30.3271C55.0929 30.3271 57.1862 35.1836 57.1862 40.3801V49.0343ZM51.5989 43.1186C47.5459 43.0167 43.6866 43.9491 43.6866 47.5769C43.6866 49.9323 45.1344 51.0105 46.9465 51.0105C48.9541 51.0473 50.7568 49.7208 51.4145 47.7226C51.5398 47.2949 51.602 46.8493 51.5989 46.4017V43.1186Z" fill="#003D79"/>
<path fill-rule="evenodd" clip-rule="evenodd" d="M61.1394 38.0024C61.1394 35.2586 61.0886 32.9517 60.9549 30.8926H65.9765L66.253 34.4766H66.3959C67.3732 32.6118 69.8405 30.3486 73.6119 30.3486C77.5728 30.3486 81.6673 33.044 81.6673 40.6007V54.7767H75.9449V41.2903C75.9449 37.8567 74.7322 35.2537 71.6155 35.2537C69.5628 35.3042 67.7678 36.7228 67.1476 38.7844C66.9728 39.4148 66.8948 40.0706 66.917 40.7269V54.7767H61.1394V38.0024Z" fill="#003D79"/>
<path fill-rule="evenodd" clip-rule="evenodd" d="M106.493 21.2998V48.0541C106.493 50.4824 106.59 53.1583 106.682 54.7707H101.564L101.329 50.9971H101.232C99.8806 53.6439 97.1325 55.3097 93.8314 55.3097C88.4272 55.3097 84.1481 50.4533 84.1481 43.1054C84.0978 35.1116 88.8466 30.3523 94.2925 30.3523C97.4091 30.3523 99.6458 31.7266 100.669 33.4993H100.766V21.2998H106.493ZM100.774 40.8466C100.773 40.3202 100.725 39.795 100.631 39.278C100.167 36.7961 98.0985 35.0083 95.6968 35.014C92.0081 35.014 89.9701 38.4476 89.9701 42.9107C89.9701 47.2815 92.0222 50.4625 95.6557 50.4625C98.0509 50.4451 100.108 48.6651 100.589 46.1936C100.727 45.6176 100.79 45.0246 100.778 44.4307L100.774 40.8466Z" fill="#003D79"/>
<path fill-rule="evenodd" clip-rule="evenodd" d="M110.545 54.7748V30.8906H116.322V54.7748H110.545Z" fill="#003D79"/>
<path fill-rule="evenodd" clip-rule="evenodd" d="M120.366 38.5891C120.366 35.3547 120.32 33.043 120.182 30.8867H125.153L125.337 35.4421H125.526C126.642 32.0425 129.293 30.8867 131.723 30.8867C132.171 30.8373 132.622 30.8373 133.069 30.8867V36.1851C132.52 36.0573 131.958 35.9921 131.396 35.9909C128.629 35.9909 126.785 37.8509 126.273 40.5462C126.16 41.1626 126.098 41.7883 126.088 42.4159V54.7757H120.366V38.5891Z" fill="#003D79"/>
<path fill-rule="evenodd" clip-rule="evenodd" d="M135.737 54.7748V30.8906H141.505V54.7748H135.737Z" fill="#003D79"/>
<path fill-rule="evenodd" clip-rule="evenodd" d="M177.437 5.63349C174.578 2.19996 171.54 3.75404 169.138 5.01672C168.123 5.54608 160.792 9.92176 160.792 9.92176C156.776 11.6652 153.645 9.76148 152.419 8.15887C152.301 8.00571 152.195 7.84337 152.1 7.67323L151.805 7.18268C151.32 6.30186 150.78 5.45507 150.191 4.64763C149.834 4.15881 149.448 3.69485 149.034 3.25867C146.268 0.344789 141.892 -1.7095 134.551 2.00571C131.075 4.12799 119.75 10.9416 119.75 10.9416C115.499 12.7871 112.239 10.5386 111.183 8.89217C111.136 8.83004 111.094 8.76341 111.059 8.69307L110.92 8.44541L110.21 7.18268C109.902 6.67276 109.56 6.14831 109.173 5.60921C108.812 5.12341 108.426 4.65967 108.016 4.22026C105.286 1.30637 100.919 -0.728494 93.6387 2.91872L78.9994 11.7284L71.5062 16.2352L75.3843 21.2665C77.0165 22.9031 80.0828 25.5887 84.823 23.3257C84.823 23.3257 97.9129 15.3416 97.9638 15.3173C109.154 8.84845 114.678 15.0308 117.118 19.1491C117.2 19.2753 117.274 19.4162 117.348 19.5424C117.376 19.591 117.399 19.6396 117.422 19.6881L117.698 20.1738C118.829 22.1094 120.844 23.2754 123.001 23.2431C124.232 23.2188 125.071 22.7914 126.288 22.0824L138.955 14.346H138.982C150.311 7.79948 155.928 14.3849 158.348 18.5032C158.533 18.8538 158.738 19.1927 158.961 19.5182C160.151 21.2131 161.788 22.3252 163.867 22.2718C164.976 22.1709 166.049 21.8091 167.007 21.2131L182.196 11.9858C180.732 9.76969 179.143 7.64843 177.437 5.63349Z" fill="url(#paint0_linear_443_7683)"/>
</g>
<defs>
<linearGradient id="paint0_linear_443_7683" x1="212.333" y1="49.0882" x2="219.058" y2="-19.3763" gradientUnits="userSpaceOnUse">
<stop stop-color="#FDB913"/>
<stop offset="0.22" stop-color="#FFCB05"/>
<stop offset="0.39" stop-color="#FAA61A"/>
<stop offset="0.53" stop-color="#FFCB05"/>
<stop offset="0.65" stop-color="#FBAB17"/>
<stop offset="0.69" stop-color="#FDBD0D"/>
<stop offset="0.72" stop-color="#FFC807"/>
<stop offset="0.76" stop-color="#FFCB05"/>
<stop offset="0.8" stop-color="#FFCB05"/>
<stop offset="1" stop-color="#FFCB05"/>
</linearGradient>
<clipPath id="clip0_443_7683">
<rect width="184" height="57" fill="white"/>
</clipPath>
</defs>
</svg>
