<svg width="101" height="100" viewBox="0 0 101 100" fill="none" xmlns="http://www.w3.org/2000/svg">
<path d="M32.1668 51.6667C39.5306 51.6667 45.5002 45.6971 45.5002 38.3333C45.5002 30.9695 39.5306 25 32.1668 25C24.803 25 18.8335 30.9695 18.8335 38.3333C18.8335 45.6971 24.803 51.6667 32.1668 51.6667Z" fill="#564500"/>
<path d="M70.5002 61.6673C76.9435 61.6673 82.1668 56.444 82.1668 50.0007C82.1668 43.5573 76.9435 38.334 70.5002 38.334C64.0568 38.334 58.8335 43.5573 58.8335 50.0007C58.8335 56.444 64.0568 61.6673 70.5002 61.6673Z" fill="#564500"/>
<path d="M13.8335 71.6673C13.8335 61.5423 22.0418 53.334 32.1668 53.334C42.2918 53.334 50.5002 61.5423 50.5002 71.6673V86.6673H13.8335V71.6673ZM53.8335 80.0007C53.8335 70.7957 61.2952 63.334 70.5002 63.334C79.7052 63.334 87.1668 70.7957 87.1668 80.0007V86.6673H53.8335V80.0007Z" fill="#BEAB32"/>
<path fill-rule="evenodd" clip-rule="evenodd" d="M50.5 16.6674C50.5 15.7833 50.8512 14.9355 51.4763 14.3104C52.1014 13.6852 52.9493 13.3341 53.8333 13.3341H83.8333C84.6113 13.3288 85.3657 13.6006 85.9617 14.1007C86.3389 14.4137 86.6424 14.8059 86.8507 15.2495C87.059 15.6932 87.1669 16.1773 87.1667 16.6674V30.0007C87.1667 30.8848 86.8155 31.7326 86.1904 32.3577C85.5652 32.9829 84.7174 33.3341 83.8333 33.3341H57.05L51.9917 39.7724C51.8945 39.8951 51.7661 39.9895 51.62 40.0457C51.4937 40.0908 51.3585 40.1049 51.2256 40.0869C51.0928 40.0688 50.9662 40.0192 50.8565 39.9422C50.7468 39.8651 50.6571 39.7628 50.5951 39.644C50.5331 39.5251 50.5005 39.3931 50.5 39.2591V16.6674ZM60.975 23.3341C60.975 23.8391 60.7744 24.3234 60.4173 24.6805C60.0602 25.0376 59.5759 25.2382 59.0708 25.2382C58.5658 25.2382 58.0815 25.0376 57.7244 24.6805C57.3673 24.3234 57.1667 23.8391 57.1667 23.3341C57.1667 22.829 57.3673 22.3447 57.7244 21.9876C58.0815 21.6305 58.5658 21.4299 59.0708 21.4299C59.5759 21.4299 60.0602 21.6305 60.4173 21.9876C60.7744 22.3447 60.975 22.829 60.975 23.3341ZM68.8333 25.2341C69.0881 25.2416 69.3419 25.1979 69.5795 25.1056C69.8171 25.0133 70.0338 24.8743 70.2166 24.6967C70.3995 24.5191 70.5449 24.3067 70.6442 24.0719C70.7435 23.8371 70.7947 23.5848 70.7947 23.3299C70.7947 23.075 70.7435 22.8227 70.6442 22.5879C70.5449 22.3531 70.3995 22.1406 70.2166 21.9631C70.0338 21.7855 69.8171 21.6465 69.5795 21.5542C69.3419 21.4619 69.0881 21.4182 68.8333 21.4257C68.5765 21.415 68.3201 21.4563 68.0796 21.5472C67.8391 21.6381 67.6194 21.7767 67.4339 21.9546C67.2483 22.1326 67.1007 22.3462 66.9998 22.5827C66.899 22.8192 66.847 23.0736 66.847 23.3307C66.847 23.5878 66.899 23.8423 66.9998 24.0787C67.1007 24.3152 67.2483 24.5289 67.4339 24.7068C67.6194 24.8848 67.8391 25.0234 68.0796 25.1143C68.3201 25.2052 68.5765 25.2465 68.8333 25.2357V25.2341ZM80.5 23.3341C80.4997 23.584 80.4501 23.8314 80.3542 24.0622C80.2582 24.293 80.1177 24.5027 79.9408 24.6792C79.7638 24.8557 79.5538 24.9956 79.3227 25.091C79.0917 25.1863 78.8441 25.2352 78.5942 25.2349C78.3442 25.2346 78.0968 25.185 77.866 25.0891C77.6352 24.9931 77.4255 24.8526 77.249 24.6757C77.0725 24.4987 76.9326 24.2887 76.8373 24.0576C76.7419 23.8266 76.693 23.579 76.6933 23.3291C76.694 22.8243 76.8952 22.3404 77.2526 21.9839C77.61 21.6275 78.0944 21.4276 78.5992 21.4282C79.104 21.4289 79.5878 21.6301 79.9443 21.9875C80.3008 22.3449 80.5007 22.8293 80.5 23.3341Z" fill="#BEAB32"/>
</svg>
