<svg width="28" height="28" viewBox="0 0 28 28" fill="none" xmlns="http://www.w3.org/2000/svg">
<path d="M1.6875 16.625C1.6875 21.9752 6.02474 26.3125 11.375 26.3125H16.625C21.9752 26.3125 26.3125 21.9752 26.3125 16.625V11.375C26.3125 6.02474 21.9752 1.6875 16.625 1.6875H11.375C6.02474 1.6875 1.6875 6.02474 1.6875 11.375V16.625ZM0.5 11.375C0.5 5.3689 5.3689 0.5 11.375 0.5H16.625C22.6311 0.5 27.5 5.3689 27.5 11.375V16.625C27.5 22.6311 22.6311 27.5 16.625 27.5H11.375C5.3689 27.5 0.5 22.6311 0.5 16.625V11.375Z" fill="#999AA4" stroke="#999AA4"/>
<mask id="path-2-inside-1_886_6980" fill="white">
<path d="M13 16.1767C13 16.6504 13.175 16.8872 13.5 17H14V15.5H13.6875C13.3 15.5 13 15.8045 13 16.1767Z"/>
</mask>
<path d="M13 16.1767C13 16.6504 13.175 16.8872 13.5 17H14V15.5H13.6875C13.3 15.5 13 15.8045 13 16.1767Z" fill="#999AA4"/>
<path d="M13.5 17L12.9283 18.6474L13.206 18.7438H13.5V17ZM14 17V18.7438H15.7438V17H14ZM14 15.5H15.7438V13.7562H14V15.5ZM13.6875 15.5V17.2438V15.5ZM11.2562 16.1767C11.2562 16.6122 11.3345 17.1535 11.6572 17.6603C11.999 18.1971 12.4852 18.4937 12.9283 18.6474L14.0717 15.3526C14.1898 15.3935 14.426 15.5153 14.5991 15.7871C14.753 16.0288 14.7438 16.2149 14.7438 16.1767H11.2562ZM13.5 18.7438H14V15.2562H13.5V18.7438ZM15.7438 17V15.5H12.2562V17H15.7438ZM14 13.7562H13.6875V17.2438H14V13.7562ZM13.6875 13.7562C12.3474 13.7562 11.2562 14.8309 11.2562 16.1767H14.7438C14.7438 16.7781 14.2526 17.2438 13.6875 17.2438V13.7562Z" fill="#999AA4" mask="url(#path-2-inside-1_886_6980)"/>
<path d="M8.1912 12.0828L8.19256 12.0821C8.67576 11.8616 9.19215 11.75 9.75 11.75H19.25C19.6485 11.75 20.0306 11.8095 20.3985 11.9209C22.0231 12.4455 23.25 14.0557 23.25 16.0032V18.0024C23.25 18.186 23.2413 18.3734 23.2315 18.5689C23.1451 20.2438 22.6662 21.381 21.9032 22.1053C21.14 22.8297 19.9778 23.25 18.2961 23.25H10.7039C10.504 23.25 10.3156 23.2333 10.1149 23.2057L10.09 23.2023L10.0648 23.2005C8.64819 23.102 7.65796 22.6631 6.99384 21.9646C6.32477 21.2609 5.89678 20.1994 5.79706 18.6811L5.79576 18.6615L5.79344 18.6419C5.76623 18.4126 5.75 18.2085 5.75 18.0024V16.0032C5.75 14.2314 6.77021 12.7279 8.1912 12.0828ZM17.5471 18.9353C17.5471 18.2429 17.3504 17.7036 17.011 17.3041C16.9863 17.275 16.9612 17.2471 16.9358 17.2202C17.3118 16.9908 17.5471 16.5681 17.5471 16.1159C17.5471 14.9345 16.7792 13.8658 15.6757 13.583C15.5022 13.1108 15.0628 12.7516 14.5 12.7516C13.9511 12.7516 13.5196 13.0933 13.3377 13.5482C12.2267 13.7564 11.4529 14.7912 11.4529 15.9416C11.4529 16.6341 11.6496 17.1734 11.989 17.5729C12.0137 17.602 12.0388 17.6299 12.0642 17.6567C11.6882 17.8862 11.4529 18.3088 11.4529 18.761C11.4529 19.9424 12.2208 21.0112 13.3243 21.2939C13.4978 21.7662 13.9372 22.1254 14.5 22.1254C15.0489 22.1254 15.4804 21.7837 15.6623 21.3287C16.7733 21.1206 17.5471 20.0857 17.5471 18.9353Z" stroke="#999AA4" stroke-width="1.5"/>
<mask id="path-5-inside-2_886_6980" fill="white">
<path d="M15 18.75V18C15.5 18 16 18.0951 16 18.75C16 19.4049 15.325 19.5 15 19.5V18.75Z"/>
</mask>
<path d="M15 18.75V18C15.5 18 16 18.0951 16 18.75C16 19.4049 15.325 19.5 15 19.5V18.75Z" fill="#999AA4"/>
<path d="M15 18V16.2562H13.2562V18H15ZM15 19.5H13.2562V21.2438H15V19.5ZM16.7438 18.75V18H13.2562V18.75H16.7438ZM15 19.7438C15.0775 19.7438 15.0986 19.7481 15.086 19.7461C15.0759 19.7444 14.9718 19.7277 14.8316 19.6487C14.6726 19.5592 14.4997 19.4068 14.3806 19.1867C14.2677 18.9782 14.2562 18.807 14.2562 18.75H17.7438C17.7438 18.3655 17.6698 17.9368 17.4476 17.5263C17.2191 17.1042 16.8899 16.8053 16.5434 16.6101C15.9326 16.266 15.2819 16.2562 15 16.2562V19.7438ZM14.2562 18.75C14.2562 18.5975 14.3011 18.3792 14.4453 18.1661C14.5804 17.9664 14.7415 17.8616 14.8364 17.8137C14.9262 17.7684 14.986 17.7584 14.9916 17.7574C14.9984 17.7562 15.0012 17.7561 15.0002 17.7561C14.9994 17.7562 14.9988 17.7562 15 17.7562V21.2438C15.2748 21.2438 15.843 21.2122 16.4074 20.9275C16.7117 20.774 17.0618 20.5225 17.3336 20.1208C17.6145 19.7058 17.7438 19.23 17.7438 18.75H14.2562ZM16.7438 19.5V18.75H13.2562V19.5H16.7438Z" fill="#999AA4" mask="url(#path-5-inside-2_886_6980)"/>
<path d="M19.1006 9.00763H14.1781L15.6102 5.94126L17.5334 6.68674L17.5334 6.68674L17.5369 6.68807C18.693 7.12962 19.3916 7.54968 19.7884 7.98413C19.866 8.0797 19.9228 8.15308 19.9777 8.23531L19.982 8.24165L19.9863 8.2479C20.0457 8.33291 20.0673 8.3835 20.0759 8.41323L20.0934 8.4738L20.1208 8.53059C20.1476 8.58622 20.1527 8.60481 20.1549 8.61395L20.1613 8.64034L20.1695 8.66619C20.2106 8.79497 20.2377 8.93721 20.2467 9.09469C19.8694 9.03742 19.4873 9.00763 19.1006 9.00763Z" stroke="#999AA4" stroke-width="1.5"/>
<path d="M10.5724 7.736L10.579 7.71791L10.5847 7.6995L10.6307 7.55055C10.6371 7.53209 10.6427 7.51528 10.6473 7.50156L10.6609 7.46082C10.6619 7.45794 10.6627 7.45558 10.6634 7.4537L10.6769 7.42649L10.6917 7.38484C11.1675 6.04588 11.6199 5.33879 12.0664 5.00803C12.3116 4.82639 12.6027 4.7252 13.0103 4.75477L11.4582 9.13859H10.0888L10.5416 7.82L10.5724 7.736Z" stroke="#999AA4" stroke-width="1.5"/>
</svg>
