<svg width="257" height="81" viewBox="0 0 257 81" fill="none" xmlns="http://www.w3.org/2000/svg">
<path d="M44.1062 23.8662C43.7645 23.8662 43.4823 23.5913 43.4823 23.2587C43.4823 22.926 43.7645 22.6512 44.1062 22.6512C44.4479 22.6512 44.7301 22.926 44.7301 23.2587C44.7301 23.5913 44.4479 23.8662 44.1062 23.8662ZM7.23486 51.9124C7.23486 38.504 18.5547 27.598 32.3852 27.598C46.2157 27.598 57.5356 38.504 57.5356 51.9124C57.5356 65.2919 46.2157 76.2269 32.3852 76.2269C18.5547 76.2269 7.23486 65.2774 7.23486 51.9124ZM42.2493 14.7971C42.8435 14.9417 43.2149 15.5347 43.0515 16.1133C42.9029 16.6919 42.2938 17.039 41.6847 16.8944C41.0905 16.7497 40.7191 16.1567 40.8826 15.5781C41.0311 14.9996 41.6402 14.6524 42.2493 14.7971ZM43.2594 12.6708C43.6011 12.6708 43.8834 12.9456 43.8834 13.2783C43.8834 13.611 43.6011 13.8858 43.2594 13.8858C42.9178 13.8858 42.6355 13.611 42.6355 13.2783C42.6355 12.9456 42.9178 12.6708 43.2594 12.6708ZM42.7395 10.5012C43.0812 10.5012 43.3634 10.776 43.3634 11.1087C43.3634 11.4413 43.0812 11.7162 42.7395 11.7162C42.3978 11.7162 42.1156 11.4413 42.1156 11.1087C42.1156 10.776 42.3978 10.5012 42.7395 10.5012ZM50.4792 16.2001C50.8209 16.2001 51.1031 16.4749 51.1031 16.8076C51.1031 17.1403 50.8209 17.4151 50.4792 17.4151C50.1375 17.4151 49.8553 17.1403 49.8553 16.8076C49.8553 16.4749 50.1227 16.2001 50.4792 16.2001ZM49.9593 14.0449C50.3009 14.0449 50.5832 14.3197 50.5832 14.6524C50.5832 14.9851 50.3009 15.2599 49.9593 15.2599C49.6176 15.2599 49.3353 14.9851 49.3353 14.6524C49.3353 14.3197 49.6176 14.0449 49.9593 14.0449ZM49.0234 12.1501C49.365 12.1501 49.6473 12.4249 49.6473 12.7576C49.6473 13.0903 49.365 13.3506 49.0234 13.3506C48.6817 13.3506 48.3994 13.0758 48.3994 12.7431C48.3994 12.4105 48.6817 12.1501 49.0234 12.1501ZM47.5527 10.4722C47.8943 10.4722 48.1766 10.7471 48.1766 11.0797C48.1766 11.4124 47.8943 11.6872 47.5527 11.6872C47.211 11.6872 46.9287 11.4124 46.9287 11.0797C46.9287 10.7471 47.1961 10.4722 47.5527 10.4722ZM45.7254 9.18492C46.0671 9.18492 46.3494 9.45974 46.3494 9.79242C46.3494 10.1251 46.0671 10.3999 45.7254 10.3999C45.3838 10.3999 45.1015 10.1251 45.1015 9.79242C45.1015 9.45974 45.3838 9.18492 45.7254 9.18492ZM43.7645 8.44724C44.1062 8.44724 44.3884 8.72206 44.3884 9.05474C44.3884 9.38742 44.1062 9.66224 43.7645 9.66224C43.4228 9.66224 43.1406 9.38742 43.1406 9.05474C43.1406 8.72206 43.4228 8.44724 43.7645 8.44724ZM41.7739 8.60635C42.1156 8.60635 42.3978 8.88117 42.3978 9.21385C42.3978 9.54652 42.1156 9.82135 41.7739 9.82135C41.4322 9.82135 41.15 9.54652 41.15 9.21385C41.1479 9.13353 41.1627 9.05364 41.1933 8.97904C41.2239 8.90444 41.2698 8.83667 41.3282 8.77986C41.3865 8.72305 41.4561 8.67837 41.5327 8.64855C41.6093 8.61872 41.6914 8.60436 41.7739 8.60635ZM40.3032 6.97188C40.6449 6.97188 40.9271 7.2467 40.9271 7.57938C40.9271 7.91206 40.6449 8.18688 40.3032 8.18688C39.9615 8.18688 39.6793 7.91206 39.6793 7.57938C39.6793 7.2467 39.9615 6.97188 40.3032 6.97188ZM38.3868 5.74242C38.7285 5.74242 39.0108 6.01724 39.0108 6.34992C39.0108 6.68259 38.7285 6.95742 38.3868 6.95742C38.0452 6.95742 37.7629 6.68259 37.7629 6.34992C37.7629 6.01724 38.0452 5.74242 38.3868 5.74242ZM36.3962 5.03367C36.7379 5.03367 37.0201 5.30849 37.0201 5.64117C37.0201 5.97385 36.7379 6.24867 36.3962 6.24867C36.0545 6.24867 35.7723 5.97385 35.7723 5.64117C35.7723 5.29402 36.0545 5.03367 36.3962 5.03367ZM34.361 4.68652C34.7027 4.68652 34.9849 4.96135 34.9849 5.29402C34.9849 5.6267 34.7027 5.90152 34.361 5.90152C34.0193 5.90152 33.7371 5.6267 33.7371 5.29402C33.7371 4.96135 34.0193 4.68652 34.361 4.68652ZM15.0637 20.5683C14.5141 20.8576 13.8307 20.6696 13.5336 20.1488C13.2365 19.6281 13.4296 18.9628 13.9793 18.6735C14.5289 18.3842 15.2123 18.5722 15.5094 19.1074C15.8065 19.6281 15.6134 20.279 15.0637 20.5683ZM23.0708 16.8944C22.7833 16.965 22.4788 16.9227 22.2231 16.7766C21.9673 16.6304 21.7809 16.3922 21.7041 16.1133C21.5556 15.5347 21.9121 14.9417 22.5063 14.7971C23.1005 14.6524 23.7245 14.9996 23.873 15.5781C24.0364 16.1567 23.6799 16.7497 23.0708 16.8944ZM32.3852 15.7662C31.7613 15.7662 31.2562 15.2744 31.2562 14.6813C31.2562 14.0883 31.7613 13.5965 32.3852 13.5965C33.0091 13.5965 33.5142 14.0883 33.5142 14.6813C33.5066 14.9692 33.3847 15.243 33.1742 15.4452C32.9637 15.6475 32.6809 15.7625 32.3852 15.7662ZM21.4961 13.8713C21.1545 13.8713 20.8722 13.5965 20.8722 13.2638C20.8722 12.9312 21.1545 12.6563 21.4961 12.6563C21.8378 12.6563 22.1201 12.9312 22.1201 13.2638C22.1201 13.611 21.8378 13.8713 21.4961 13.8713ZM22.0161 11.7162C21.6744 11.7162 21.3921 11.4413 21.3921 11.1087C21.3921 10.776 21.6744 10.5012 22.0161 10.5012C22.3578 10.5012 22.64 10.776 22.64 11.1087C22.64 11.4413 22.3578 11.7162 22.0161 11.7162ZM14.2912 17.4151C13.9495 17.4151 13.6673 17.1403 13.6673 16.8076C13.6673 16.4749 13.9495 16.2001 14.2912 16.2001C14.6329 16.2001 14.9152 16.4749 14.9152 16.8076C14.9152 17.1403 14.6329 17.4151 14.2912 17.4151ZM14.8112 15.2455C14.4695 15.2455 14.1872 14.9706 14.1872 14.638C14.1872 14.3053 14.4695 14.0305 14.8112 14.0305C15.1528 14.0305 15.4351 14.3053 15.4351 14.638C15.4351 14.9851 15.1528 15.2455 14.8112 15.2455ZM15.7322 13.3506C15.3905 13.3506 15.1083 13.0758 15.1083 12.7431C15.1083 12.4105 15.3905 12.1356 15.7322 12.1356C16.0739 12.1356 16.3561 12.4105 16.3561 12.7431C16.3561 13.0758 16.0887 13.3506 15.7322 13.3506ZM17.2178 11.6728C16.8761 11.6728 16.5938 11.398 16.5938 11.0653C16.5938 10.7326 16.8761 10.4578 17.2178 10.4578C17.5594 10.4578 17.8417 10.7326 17.8417 11.0653C17.8417 11.398 17.5594 11.6728 17.2178 11.6728ZM19.045 10.3999C18.7033 10.3999 18.421 10.1251 18.421 9.79242C18.421 9.45974 18.7033 9.18492 19.045 9.18492C19.3867 9.18492 19.6689 9.45974 19.6689 9.79242C19.6689 10.1251 19.3867 10.3999 19.045 10.3999ZM20.991 9.64777C20.6494 9.64777 20.3671 9.37295 20.3671 9.04027C20.3671 8.7076 20.6494 8.43277 20.991 8.43277C21.3327 8.43277 21.615 8.7076 21.615 9.04027C21.6298 9.38742 21.3476 9.64777 20.991 9.64777ZM22.9965 9.82135C22.6549 9.82135 22.3726 9.54652 22.3726 9.21385C22.3726 8.88117 22.6549 8.60635 22.9965 8.60635C23.3382 8.60635 23.6205 8.88117 23.6205 9.21385C23.6205 9.54652 23.3382 9.82135 22.9965 9.82135ZM24.4672 8.18688C24.1256 8.18688 23.8433 7.91206 23.8433 7.57938C23.8433 7.2467 24.1256 6.97188 24.4672 6.97188C24.8089 6.97188 25.0912 7.2467 25.0912 7.57938C25.0874 7.73934 25.0204 7.89174 24.9042 8.00488C24.788 8.11802 24.6315 8.1832 24.4672 8.18688ZM26.3687 6.95742C26.0271 6.95742 25.7448 6.68259 25.7448 6.34992C25.7448 6.01724 26.0271 5.74242 26.3687 5.74242C26.7104 5.74242 26.9927 6.01724 26.9927 6.34992C26.9927 6.68259 26.7253 6.95742 26.3687 6.95742ZM28.3594 6.2342C28.0177 6.2342 27.7354 5.95938 27.7354 5.6267C27.7354 5.29402 28.0177 5.0192 28.3594 5.0192C28.701 5.0192 28.9833 5.29402 28.9833 5.6267C28.9833 5.97385 28.701 6.2342 28.3594 6.2342ZM32.3852 12.1501C32.0435 12.1501 31.7613 11.8753 31.7613 11.5426C31.7613 11.2099 32.0435 10.9351 32.3852 10.9351C32.7269 10.9351 33.0091 11.2099 33.0091 11.5426C33.0091 11.8753 32.7269 12.1501 32.3852 12.1501ZM32.3852 9.96599C32.0435 9.96599 31.7613 9.69117 31.7613 9.35849C31.7613 9.02581 32.0435 8.75099 32.3852 8.75099C32.7269 8.75099 33.0091 9.02581 33.0091 9.35849C33.0091 9.69117 32.7269 9.96599 32.3852 9.96599ZM32.3852 7.76742C32.0435 7.76742 31.7613 7.49259 31.7613 7.15992C31.7613 6.82724 32.0435 6.55242 32.3852 6.55242C32.7269 6.55242 33.0091 6.82724 33.0091 7.15992C33.0091 7.50706 32.7269 7.76742 32.3852 7.76742ZM30.4094 5.90152C30.0678 5.90152 29.7855 5.6267 29.7855 5.29402C29.7855 4.96135 30.0678 4.68652 30.4094 4.68652C30.7511 4.68652 31.0334 4.96135 31.0334 5.29402C31.0296 5.45399 30.9626 5.60638 30.8464 5.71952C30.7302 5.83266 30.5737 5.89784 30.4094 5.90152ZM50.7763 18.6735C51.326 18.9628 51.5191 19.6137 51.222 20.1488C50.9249 20.6696 50.2415 20.8576 49.6919 20.5683C49.1571 20.279 48.9491 19.6137 49.2462 19.093C49.5433 18.5722 50.2267 18.3842 50.7763 18.6735ZM36.3813 21.8412C36.0397 21.8412 35.7574 21.5663 35.7574 21.2337C35.7574 20.901 36.0397 20.6262 36.3813 20.6262C36.723 20.6262 37.0053 20.901 37.0053 21.2337C37.0053 21.5663 36.7379 21.8412 36.3813 21.8412ZM20.6494 23.8662C20.3077 23.8662 20.0254 23.5913 20.0254 23.2587C20.0254 22.926 20.3077 22.6512 20.6494 22.6512C20.991 22.6512 21.2733 22.926 21.2733 23.2587C21.2733 23.5913 20.991 23.8662 20.6494 23.8662ZM28.3742 21.8412C28.0326 21.8412 27.7503 21.5663 27.7503 21.2337C27.7503 20.901 28.0326 20.6262 28.3742 20.6262C28.7159 20.6262 28.9982 20.901 28.9982 21.2337C28.9982 21.5663 28.7159 21.8412 28.3742 21.8412Z" fill="white"/>
<path d="M37.0201 17.4873C37.1835 17.8489 37.3915 18.1238 37.644 18.3552C37.0795 18.2684 36.5001 18.1961 35.9208 18.1527C36.2476 17.9791 36.5298 17.7332 36.7378 17.4584C36.827 17.4729 36.9309 17.4873 37.0201 17.4873ZM27.7354 17.4873C27.8394 17.4873 27.9285 17.4729 28.0177 17.4584C28.2405 17.7477 28.5227 17.9791 28.8347 18.1527C28.2553 18.2105 27.6908 18.2829 27.1115 18.3552C27.3937 18.1238 27.6017 17.82 27.7354 17.4873ZM24.3929 18.8759C23.8878 18.9916 23.3827 19.1073 22.8925 19.252C23.1599 18.9193 23.3233 18.5143 23.3827 18.0804C23.6501 18.4275 23.9918 18.7023 24.3929 18.8759ZM18.6587 20.6839C18.8072 20.4525 18.9261 20.1921 18.9855 19.9173L19.0746 19.9029C19.2232 19.8595 19.3569 19.8016 19.4906 19.7293C19.7283 19.8884 19.9957 20.0041 20.2631 20.0764C19.7134 20.2645 19.1786 20.467 18.6587 20.6839ZM32.3852 16.9666C32.5486 17.3716 32.816 17.7332 33.1725 17.9936C32.9051 17.9936 32.6526 17.9791 32.3852 17.9791C32.1178 17.9791 31.8652 17.9791 31.5978 17.9936C31.9544 17.7332 32.2218 17.3861 32.3852 16.9666ZM45.2797 19.7293C45.3986 19.8016 45.5471 19.8739 45.6957 19.9029L45.7848 19.9173C45.8442 20.1921 45.9631 20.4525 46.1116 20.6839C45.5917 20.467 45.0569 20.2645 44.5072 20.0764C44.7895 19.9896 45.042 19.8884 45.2797 19.7293ZM41.863 19.2375C41.3727 19.1073 40.8677 18.9771 40.3626 18.8614C40.7637 18.6879 41.1202 18.413 41.3727 18.0659C41.4173 18.4998 41.5956 18.9048 41.863 19.2375ZM43.809 14.5221C44.225 14.3486 44.5518 13.987 44.6409 13.5386C45.3094 13.6832 46.0671 13.8713 46.691 14.1027C47.2704 14.3196 47.7309 14.6234 48.0577 14.8982C48.3994 15.7371 48.5925 16.7063 48.6816 17.8779C48.2657 18.0514 48.0131 18.4564 47.8646 18.8614C47.612 19.4834 47.612 20.1198 48.3103 20.5971C48.1548 20.6069 47.999 20.5846 47.853 20.5316C47.7071 20.4785 47.5743 20.396 47.4635 20.2894C47.3526 20.1829 47.2662 20.0547 47.2099 19.9133C47.1535 19.7718 47.1286 19.6204 47.1367 19.4689C47.2704 19.3243 47.3595 19.1363 47.4189 18.9338C47.5095 18.5827 47.4532 18.2111 47.2624 17.9005C47.0716 17.5899 46.7618 17.3658 46.4013 17.2776C46.0408 17.1894 45.6591 17.2442 45.3401 17.43C45.0211 17.6158 44.791 17.9174 44.7004 18.2684C44.6855 18.3552 44.6707 18.4275 44.6558 18.4998C44.017 19.252 42.7394 18.8614 42.68 17.8779C43.8536 18.1093 44.3587 17.5307 44.5518 16.7641C44.7301 16.1132 44.6558 15.4768 43.8833 15.0718C43.8994 14.8855 43.874 14.698 43.809 14.5221Z" fill="#767676"/>
<path d="M23.9025 11.832C26.1308 10.6315 29.0574 10.4145 31.3302 10.7472V10.9063C31.166 11.152 31.1023 11.4488 31.1518 11.738C31.2013 12.0272 31.3604 12.2879 31.5976 12.4684C31.1817 12.6131 30.8549 12.9024 30.7212 13.452C29.8744 13.6545 29.6516 14.262 29.6516 14.9274C29.6516 15.7229 29.9784 16.4027 31.1817 16.4606C31.2411 16.623 31.2598 16.797 31.2364 16.9679C31.2129 17.1388 31.1479 17.3018 31.0469 17.4434C30.9458 17.585 30.8115 17.7011 30.6551 17.7821C30.4987 17.863 30.3248 17.9065 30.1477 17.909C29.9706 17.9114 29.7955 17.8727 29.6368 17.796C29.4782 17.7194 29.3406 17.607 29.2354 17.4683C29.1303 17.3295 29.0606 17.1683 29.0322 16.9981C29.0039 16.8279 29.0176 16.6535 29.0722 16.4895C29.1268 16.287 29.1328 16.0749 29.0895 15.8698C29.0462 15.6646 28.9548 15.472 28.8226 15.3068C28.6904 15.1417 28.5208 15.0085 28.327 14.9176C28.1333 14.8267 27.9206 14.7805 27.7055 14.7827C26.933 14.7827 26.3091 15.3902 26.3091 16.1424C26.3091 16.3738 26.3685 16.5908 26.4725 16.7933C26.4428 17.2417 26.116 17.6467 25.6406 17.7768C25.4118 17.832 25.1709 17.8156 24.9523 17.7299C24.7336 17.6442 24.5482 17.4936 24.4224 17.2995C25.5663 16.9524 25.7149 16.2147 25.5069 15.4481C25.3286 14.7972 24.9572 14.262 24.0808 14.2765C23.9497 14.0109 23.7296 13.7966 23.4568 13.669C23.546 13.0181 23.6945 12.4106 23.9025 11.832ZM33.4249 10.7472C35.6978 10.429 38.6094 10.6315 40.8526 11.832C41.0606 12.4106 41.2092 13.0181 41.2834 13.6545C41.0309 13.7702 40.8229 13.9727 40.6595 14.262C39.783 14.2475 39.4116 14.7827 39.2334 15.4336C39.0254 16.2002 39.1739 16.9379 40.3178 17.285C40.3267 17.4535 40.2948 17.6217 40.2246 17.776C40.1545 17.9303 40.0482 18.0664 39.9142 18.1734C39.7802 18.2803 39.6223 18.3552 39.4532 18.3919C39.284 18.4285 39.1084 18.426 38.9404 18.3846C38.7725 18.3431 38.6169 18.2638 38.4861 18.1531C38.3554 18.0423 38.2532 17.9033 38.1878 17.747C38.1223 17.5908 38.0955 17.4218 38.1094 17.2536C38.1233 17.0855 38.1775 16.9228 38.2678 16.7788C38.3717 16.5908 38.4312 16.3738 38.4312 16.1279C38.4312 15.3758 37.8072 14.7683 37.0348 14.7683C36.8203 14.7678 36.6085 14.8151 36.4157 14.9065C36.2228 14.998 36.054 15.1311 35.9222 15.2958C35.7903 15.4605 35.6988 15.6524 35.6548 15.8568C35.6107 16.0611 35.6153 16.2726 35.668 16.475C35.59 16.6885 35.4453 16.8728 35.2543 17.0021C35.0632 17.1315 34.8353 17.1993 34.6027 17.1961C34.37 17.1929 34.1442 17.1188 33.9569 16.9843C33.7697 16.8498 33.6304 16.6616 33.5586 16.4461C34.7619 16.3883 35.0887 15.7084 35.0887 14.9129C35.0887 14.2475 34.851 13.64 34.0191 13.4375C33.8854 12.9024 33.5586 12.5986 33.1426 12.454C33.3799 12.2734 33.5389 12.0128 33.5884 11.7236C33.6379 11.4343 33.5743 11.1376 33.41 10.8918V10.7472H33.4249ZM18.0791 14.1029C18.6882 13.8715 19.4607 13.669 20.1292 13.5388C20.2183 13.9872 20.5303 14.3488 20.9611 14.5224C20.9017 14.6815 20.872 14.8695 20.872 15.072C20.0995 15.4625 20.0401 16.1134 20.2035 16.7643C20.4115 17.5309 20.9017 18.1095 22.0753 17.8781C22.0307 18.8617 20.7383 19.2522 20.0995 18.5C20.0995 18.4277 20.0846 18.3409 20.0549 18.2686C19.9602 17.9189 19.7277 17.6196 19.408 17.4355C19.0883 17.2515 18.7069 17.1974 18.3465 17.285C18.117 17.3396 17.9056 17.4505 17.7324 17.607C17.5592 17.7636 17.43 17.9606 17.3571 18.1795C17.2842 18.3983 17.2699 18.6317 17.3157 18.8574C17.3615 19.0831 17.4657 19.2937 17.6186 19.4692C17.6483 19.8742 17.4255 20.2647 17.0393 20.4672C16.8461 20.5684 16.6382 20.6118 16.4302 20.5974C17.1284 20.12 17.1135 19.4836 16.8759 18.8617C16.7124 18.4567 16.4599 18.0517 16.0439 17.8781C16.1479 16.7065 16.3411 15.7374 16.6679 14.9129C17.0393 14.6236 17.4998 14.3343 18.0791 14.1029ZM34.3756 21.0458L32.3701 21.769L30.3646 21.0458L32.3701 20.3225L34.3756 21.0458ZM19.3419 23.6638L19.1636 24.3436L19.0893 24.5895L18.9408 24.5027L18.2871 24.1556L18.4654 23.5047L18.4951 23.36L18.7328 23.4324L19.3419 23.6638ZM45.4281 23.6638L46.2749 23.36L46.3046 23.5047L46.468 24.17L45.8144 24.5172L45.6807 24.5895L45.6064 24.3436L45.4281 23.6638Z" fill="#939393"/>
<path d="M41.8626 19.2373C41.5952 18.9046 41.4318 18.4996 41.3724 18.0657C41.1198 18.4273 40.7633 18.7021 40.3622 18.8612C40.8673 18.9769 41.3724 19.1071 41.8626 19.2373ZM45.2794 19.7291C45.0417 19.8882 44.7743 20.0039 44.5069 20.0762C45.0417 20.2642 45.5765 20.4667 46.1113 20.6837C45.9627 20.4523 45.8439 20.1919 45.7845 19.9171L45.6953 19.9026C45.5468 19.8592 45.4131 19.8014 45.2794 19.7291ZM32.3848 16.9664C32.2214 17.3714 31.954 17.733 31.5975 17.9933C31.85 17.9933 32.1174 17.9789 32.3848 17.9789C32.6522 17.9789 32.9047 17.9789 33.1721 17.9933C32.8156 17.733 32.5482 17.3858 32.3848 16.9664ZM18.6583 20.6837C19.1783 20.4667 19.7131 20.2642 20.2627 20.0762C19.9805 20.0039 19.7131 19.8882 19.4902 19.7291C19.3714 19.8014 19.2228 19.8737 19.0743 19.9026L18.9851 19.9171C18.9109 20.1919 18.8069 20.4523 18.6583 20.6837ZM24.3925 18.8757C23.9914 18.7021 23.6349 18.4273 23.3824 18.0801C23.3378 18.5141 23.1595 18.9191 22.8921 19.2517C23.3972 19.1071 23.9023 18.9769 24.3925 18.8757ZM27.735 17.4871C27.6013 17.8198 27.3934 18.1091 27.126 18.3549C27.6905 18.2682 28.2698 18.1958 28.8492 18.1524C28.5224 17.9789 28.2401 17.733 28.0321 17.4582C27.9282 17.4726 27.839 17.4871 27.735 17.4871ZM37.0197 17.4871C36.9306 17.4871 36.8266 17.4726 36.7375 17.4582C36.5146 17.7474 36.2324 17.9789 35.9204 18.1524C36.4998 18.2103 37.0643 18.2826 37.6437 18.3549C37.3911 18.1235 37.198 17.8487 37.0494 17.5449L37.0197 17.4871ZM50.7759 18.6732C50.6474 18.6038 50.506 18.5601 50.3599 18.5444C50.2139 18.5287 50.0661 18.5414 49.9251 18.5818C49.7842 18.6221 49.6528 18.6894 49.5388 18.7795C49.4247 18.8697 49.3302 18.9811 49.2606 19.1071C48.9635 19.6278 49.1567 20.2932 49.7063 20.5824C50.256 20.8717 50.9393 20.6837 51.2364 20.163C51.5187 19.6133 51.3107 18.9624 50.7759 18.6732ZM42.2489 14.7967C41.9613 14.7261 41.6568 14.7684 41.4011 14.9146C41.1454 15.0607 40.959 15.2989 40.8821 15.5778C40.7336 16.1564 41.0901 16.7494 41.6843 16.8941C42.2934 17.0387 42.9025 16.6916 43.051 16.113C43.1232 15.8349 43.0793 15.5403 42.929 15.2936C42.7787 15.047 42.5341 14.8683 42.2489 14.7967ZM43.259 12.6705C42.9174 12.6705 42.6351 12.9453 42.6351 13.278C42.6351 13.6107 42.9174 13.8855 43.259 13.8855C43.6007 13.8855 43.883 13.6107 43.883 13.278C43.883 12.9453 43.6156 12.6705 43.259 12.6705ZM42.7391 10.5008C42.3974 10.5008 42.1152 10.7757 42.1152 11.1083C42.1152 11.441 42.3974 11.7158 42.7391 11.7158C43.0808 11.7158 43.363 11.441 43.363 11.1083C43.3651 11.028 43.3503 10.9481 43.3197 10.8735C43.289 10.7989 43.2432 10.7312 43.1848 10.6744C43.1265 10.6175 43.0569 10.5729 42.9802 10.543C42.9036 10.5132 42.8216 10.4989 42.7391 10.5008ZM50.4788 16.1998C50.1371 16.1998 49.8549 16.4746 49.8549 16.8073C49.8549 17.1399 50.1371 17.4148 50.4788 17.4148C50.8205 17.4148 51.1027 17.1399 51.1027 16.8073C51.1027 16.4746 50.8205 16.1998 50.4788 16.1998ZM49.9589 14.0446C49.6172 14.0446 49.3349 14.3194 49.3349 14.6521C49.3349 14.9848 49.6172 15.2596 49.9589 15.2596C50.3005 15.2596 50.5828 14.9848 50.5828 14.6521C50.5828 14.3194 50.3005 14.0446 49.9589 14.0446ZM49.023 12.1498C48.6813 12.1498 48.399 12.4246 48.399 12.7573C48.399 13.0899 48.6813 13.3503 49.023 13.3503C49.3646 13.3503 49.6469 13.0755 49.6469 12.7428C49.6469 12.4101 49.3646 12.1498 49.023 12.1498ZM47.5523 10.4719C47.2106 10.4719 46.9283 10.7467 46.9283 11.0794C46.9283 11.4121 47.2106 11.6869 47.5523 11.6869C47.8939 11.6869 48.1762 11.4121 48.1762 11.0794C48.1762 10.7467 47.8939 10.4719 47.5523 10.4719ZM45.725 9.18459C45.3834 9.18459 45.1011 9.45941 45.1011 9.79209C45.1011 10.1248 45.3834 10.3996 45.725 10.3996C46.0667 10.3996 46.349 10.1248 46.349 9.79209C46.349 9.45941 46.0667 9.18459 45.725 9.18459ZM43.7641 8.44691C43.4224 8.44691 43.1402 8.72173 43.1402 9.05441C43.1402 9.38709 43.4224 9.66191 43.7641 9.66191C44.1058 9.66191 44.388 9.38709 44.388 9.05441C44.388 8.72173 44.1058 8.44691 43.7641 8.44691ZM41.7735 8.60601C41.4318 8.60601 41.1495 8.88084 41.1495 9.21351C41.1495 9.54619 41.4318 9.82101 41.7735 9.82101C42.1152 9.82101 42.3974 9.54619 42.3974 9.21351C42.3936 9.05355 42.3267 8.90116 42.2105 8.78802C42.0943 8.67488 41.9378 8.60969 41.7735 8.60601ZM40.3028 6.97155C39.9611 6.97155 39.6788 7.24637 39.6788 7.57905C39.6788 7.91173 39.9611 8.18655 40.3028 8.18655C40.6445 8.18655 40.9267 7.91173 40.9267 7.57905C40.9267 7.24637 40.6445 6.97155 40.3028 6.97155ZM38.3864 5.74208C38.0447 5.74208 37.7625 6.01691 37.7625 6.34958C37.7625 6.68226 38.0447 6.95708 38.3864 6.95708C38.7281 6.95708 39.0104 6.68226 39.0104 6.34958C39.0104 6.01691 38.7281 5.74208 38.3864 5.74208ZM36.3958 5.03333C36.0541 5.03333 35.7719 5.30816 35.7719 5.64083C35.7719 5.97351 36.0541 6.24834 36.3958 6.24834C36.7375 6.24834 37.0197 5.97351 37.0197 5.64083C37.0197 5.30816 36.7375 5.03333 36.3958 5.03333ZM34.3606 4.68619C34.0189 4.68619 33.7367 4.96101 33.7367 5.29369C33.7367 5.62637 34.0189 5.90119 34.3606 5.90119C34.7023 5.90119 34.9845 5.62637 34.9845 5.29369C34.9845 4.96101 34.7023 4.68619 34.3606 4.68619ZM15.0633 20.568C15.613 20.2787 15.8061 19.6133 15.509 19.0926C15.2119 18.5719 14.5285 18.3694 13.9788 18.6587C13.444 18.948 13.2361 19.5989 13.5332 20.1341C13.8451 20.6692 14.5285 20.8573 15.0633 20.568ZM23.0704 16.8941C23.6646 16.7494 24.036 16.1564 23.8726 15.5778C23.7958 15.2989 23.6094 15.0607 23.3536 14.9146C23.0979 14.7684 22.7934 14.7261 22.5059 14.7967C21.9117 14.9414 21.5403 15.5344 21.7037 16.113C21.8671 16.706 22.4762 17.0532 23.0704 16.8941ZM32.3848 15.7658C33.0087 15.7658 33.5138 15.2741 33.5138 14.681C33.5138 14.088 33.0087 13.5962 32.3848 13.5962C31.7609 13.5962 31.2558 14.088 31.2558 14.681C31.2558 15.2741 31.7609 15.7658 32.3848 15.7658ZM21.4957 13.871C21.8374 13.871 22.1197 13.5962 22.1197 13.2635C22.1197 12.9308 21.8374 12.656 21.4957 12.656C21.1541 12.656 20.8718 12.9308 20.8718 13.2635C20.8718 13.6107 21.1541 13.871 21.4957 13.871ZM22.0157 11.7158C22.3573 11.7158 22.6396 11.441 22.6396 11.1083C22.6396 10.7757 22.3573 10.5008 22.0157 10.5008C21.674 10.5008 21.3917 10.7757 21.3917 11.1083C21.3917 11.441 21.674 11.7158 22.0157 11.7158ZM14.2908 17.4148C14.6325 17.4148 14.9147 17.1399 14.9147 16.8073C14.9147 16.4746 14.6325 16.1998 14.2908 16.1998C13.9491 16.1998 13.6669 16.4746 13.6669 16.8073C13.6669 17.1399 13.9491 17.4148 14.2908 17.4148ZM14.8108 15.2451C15.1524 15.2451 15.4347 14.9703 15.4347 14.6376C15.4347 14.3049 15.1524 14.0301 14.8108 14.0301C14.4691 14.0301 14.1868 14.3049 14.1868 14.6376C14.1868 14.9848 14.4542 15.2451 14.8108 15.2451ZM15.7318 13.3503C16.0735 13.3503 16.3557 13.0755 16.3557 12.7428C16.3557 12.4101 16.0883 12.1498 15.7318 12.1498C15.3901 12.1498 15.1079 12.4246 15.1079 12.7573C15.1079 13.0899 15.3901 13.3503 15.7318 13.3503ZM17.2173 11.6724C17.559 11.6724 17.8413 11.3976 17.8413 11.0649C17.8413 10.7323 17.559 10.4574 17.2173 10.4574C16.8757 10.4574 16.5934 10.7323 16.5934 11.0649C16.5934 11.3976 16.8757 11.6724 17.2173 11.6724ZM19.0446 10.3996C19.3862 10.3996 19.6685 10.1248 19.6685 9.79209C19.6685 9.45941 19.3862 9.18459 19.0446 9.18459C18.7029 9.18459 18.4206 9.45941 18.4206 9.79209C18.4206 10.1248 18.688 10.3996 19.0446 10.3996ZM20.9906 9.64744C21.3323 9.64744 21.6146 9.37262 21.6146 9.03994C21.6146 8.70726 21.3323 8.43244 20.9906 8.43244C20.649 8.43244 20.3667 8.70726 20.3667 9.03994C20.3667 9.38708 20.649 9.64744 20.9906 9.64744ZM22.9961 9.82101C23.3378 9.82101 23.6201 9.54619 23.6201 9.21351C23.6201 8.88084 23.3378 8.60601 22.9961 8.60601C22.6545 8.60601 22.3722 8.88084 22.3722 9.21351C22.3722 9.54619 22.6545 9.82101 22.9961 9.82101ZM24.4668 8.18655C24.8085 8.18655 25.0908 7.91173 25.0908 7.57905C25.0908 7.24637 24.8085 6.97155 24.4668 6.97155C24.1251 6.97155 23.8429 7.24637 23.8429 7.57905C23.828 7.91173 24.1103 8.18655 24.4668 8.18655ZM26.3683 6.95708C26.71 6.95708 26.9923 6.68226 26.9923 6.34958C26.9923 6.01691 26.71 5.74208 26.3683 5.74208C26.0267 5.74208 25.7444 6.01691 25.7444 6.34958C25.7444 6.68226 26.0267 6.95708 26.3683 6.95708ZM28.359 6.23387C28.7006 6.23387 28.9829 5.95905 28.9829 5.62637C28.9829 5.29369 28.7006 5.01887 28.359 5.01887C28.0173 5.01887 27.735 5.29369 27.735 5.62637C27.735 5.95905 28.0173 6.23387 28.359 6.23387ZM32.3848 12.1498C32.7265 12.1498 33.0087 11.8749 33.0087 11.5423C33.0087 11.2096 32.7265 10.9348 32.3848 10.9348C32.0431 10.9348 31.7609 11.2096 31.7609 11.5423C31.7609 11.8749 32.0431 12.1498 32.3848 12.1498ZM32.3848 9.96566C32.7265 9.96566 33.0087 9.69083 33.0087 9.35816C33.0087 9.02548 32.7265 8.75066 32.3848 8.75066C32.0431 8.75066 31.7609 9.02548 31.7609 9.35816C31.7609 9.69083 32.0431 9.96566 32.3848 9.96566ZM32.3848 7.76709C32.7265 7.76709 33.0087 7.49226 33.0087 7.15958C33.0087 6.82691 32.7265 6.55209 32.3848 6.55209C32.0431 6.55209 31.7609 6.82691 31.7609 7.15958C31.7609 7.50673 32.0431 7.76709 32.3848 7.76709ZM30.409 5.90119C30.7507 5.90119 31.033 5.62637 31.033 5.29369C31.033 4.96101 30.7507 4.68619 30.409 4.68619C30.0673 4.68619 29.7851 4.96101 29.7851 5.29369C29.7702 5.62637 30.0525 5.90119 30.409 5.90119ZM47.5671 20.6837C48.0871 20.9585 48.4882 20.8428 48.9932 20.6692C48.1613 20.2642 47.7305 19.9026 48.1019 18.948C48.2653 18.5141 48.4882 18.1958 48.9635 18.0657C48.6664 14.3628 47.5968 12.5982 44.1206 10.9203L43.8681 10.9926C43.8681 11.036 43.883 11.0794 43.883 11.1228C43.883 11.6291 43.6007 11.8749 43.2145 12.1498C43.8384 12.2799 44.4029 12.5548 44.4029 13.278C44.4029 13.8855 43.9869 14.2182 43.4373 14.3773C43.6156 14.7099 43.6453 14.8546 43.6156 15.2307C44.3286 15.5633 44.4772 15.9973 44.2989 16.6916C44.0315 17.6896 43.4076 17.7908 42.4271 17.5449C42.2786 19.0926 44.0464 19.6857 44.908 18.5719C44.908 18.4851 44.9228 18.3983 44.9377 18.2971C45.1011 17.7041 45.7102 17.3569 46.3193 17.5016C46.9283 17.6462 47.2997 18.2537 47.1363 18.8467C47.0917 19.0348 46.9878 19.1939 46.8541 19.3385C46.8095 19.9026 47.062 20.4089 47.5671 20.6837ZM31.4043 7.17405C31.4043 7.10173 31.4192 7.01494 31.4192 6.92816C26.8734 6.60994 23.6201 9.60405 23.1744 13.8132C23.5755 13.9723 23.7241 14.1458 23.9172 14.5219C24.7045 14.4785 25.061 14.7823 25.2393 15.491C25.5067 16.4891 25.0016 16.8651 24.036 17.111C24.3331 17.7619 24.9273 18.1958 25.6998 17.9933C26.3238 17.8342 26.7249 17.3135 26.7249 16.706C26.6146 16.5316 26.5532 16.3321 26.5466 16.1274C26.5466 15.5199 27.0517 15.0282 27.6905 15.0282C28.3144 15.0282 28.8343 15.5199 28.8343 16.1274C28.8343 16.2432 28.8046 16.3589 28.7749 16.4746C28.9532 17.0532 29.4583 17.4582 30.1119 17.4582C30.9141 17.4582 31.3746 16.8941 31.4935 16.1998C30.4833 16.1998 29.9039 15.9394 29.9039 14.9124C29.9039 14.1892 30.1713 13.7987 30.9438 13.654C31.1221 12.7428 31.5975 12.6849 32.3848 12.5692C33.1721 12.6994 33.6475 12.7573 33.8258 13.654C34.5983 13.7987 34.8657 14.1892 34.8657 14.9124C34.8657 15.9394 34.2863 16.1853 33.2761 16.1998C33.395 16.8941 33.8555 17.4582 34.6577 17.4582C35.2965 17.4582 35.8016 17.0532 35.9798 16.4746C35.9501 16.3589 35.9204 16.2432 35.9204 16.1274C35.9204 15.5199 36.4255 15.0282 37.0643 15.0282C37.6882 15.0282 38.1933 15.5199 38.1933 16.1274C38.1933 16.3444 38.1339 16.5324 38.015 16.706C38.0299 17.3135 38.4161 17.8487 39.0549 17.9933C39.8274 18.1814 40.4216 17.7474 40.7187 17.111C39.7383 16.8651 39.248 16.4746 39.5154 15.491C39.7086 14.7823 40.0651 14.4785 40.8376 14.5219C41.0307 14.1314 41.1644 13.9578 41.5804 13.8132C41.1347 9.58959 37.8813 6.59548 33.3356 6.92816C33.3504 7.01494 33.3653 7.08726 33.3653 7.17405C33.3653 7.39101 33.291 7.56458 33.1721 7.73816V8.80851C33.291 8.98209 33.3653 9.15566 33.3653 9.37262C33.3653 9.58959 33.291 9.76316 33.1721 9.93673L33.2019 11.036C33.3058 11.1807 33.3653 11.3687 33.3653 11.5712C33.3653 12.1932 32.8899 12.3957 32.3997 12.5982C31.9094 12.3812 31.4341 12.1932 31.4341 11.5712C31.4341 11.3542 31.5083 11.1807 31.6272 11.0071V9.92226C31.5042 9.75831 31.4367 9.56115 31.4341 9.35816C31.4341 9.14119 31.5083 8.96762 31.6272 8.79405V7.72369C31.4861 7.57336 31.4067 7.3777 31.4043 7.17405ZM16.6528 18.948C17.0242 19.8882 16.5934 20.2642 15.7615 20.6692C16.2666 20.8428 16.6677 20.9585 17.1876 20.6837C17.7076 20.4089 17.9453 19.9026 17.8858 19.353C17.7464 19.2146 17.647 19.0428 17.5978 18.8549C17.5486 18.667 17.5512 18.4699 17.6056 18.2833C17.6599 18.0968 17.7639 17.9276 17.907 17.7928C18.0501 17.6581 18.2274 17.5626 18.4206 17.516C19.0297 17.3714 19.6536 17.7185 19.8022 18.3116C19.8319 18.3983 19.8319 18.4851 19.8319 18.5864C20.6935 19.7001 22.4613 19.1071 22.3128 17.5594C21.3323 17.7908 20.7084 17.6896 20.441 16.706C20.2479 15.9973 20.4113 15.5633 21.1243 15.2451C21.0946 14.8546 21.1243 14.7244 21.3026 14.3917C20.753 14.2326 20.337 13.8999 20.337 13.3069C20.337 12.5837 20.9015 12.3089 21.5106 12.1787C21.1392 11.9039 20.8421 11.658 20.8421 11.1517C20.8421 11.1083 20.8421 11.0649 20.5895 10.9782C17.0539 12.6705 16.0586 14.3628 15.7615 18.1091C16.2814 18.1958 16.4894 18.5141 16.6528 18.948ZM46.7204 22.4483C42.3677 20.4667 37.5099 19.353 32.3848 19.353C27.2597 19.353 22.4168 20.4523 18.079 22.4339C17.7967 22.5641 17.4699 22.4483 17.3362 22.1591C17.2025 21.8698 17.351 21.6673 17.4699 21.4214C16.5786 21.6817 15.9249 21.6817 15.1524 21.1032C13.7263 22.0433 12.0773 20.1196 13.1618 19.2373C12.6419 18.6153 12.627 17.921 13.3698 17.4582C13.2361 17.2412 13.1469 17.0676 13.1469 16.8073C13.1469 16.0841 13.6966 15.8092 14.3205 15.6791C13.964 15.3898 13.6669 15.1583 13.6669 14.6521C13.6669 13.9144 14.2611 13.6107 14.9147 13.5383C14.7365 13.278 14.6028 13.0899 14.6028 12.7573C14.6028 12.1498 15.1079 11.658 15.7318 11.658C15.9249 11.658 16.118 11.7158 16.2963 11.7737C16.1775 11.5278 16.0735 11.3542 16.0735 11.0649C16.0735 10.4574 16.5786 9.96566 17.2025 9.96566C17.4996 9.96566 17.6927 10.0669 17.9453 10.1971C17.9304 10.0669 17.8858 9.9078 17.8858 9.77762C17.8858 9.17012 18.3909 8.67834 19.0149 8.67834C19.3565 8.67834 19.5645 8.80851 19.8319 8.98209C19.9656 8.40351 20.2924 7.94066 20.9758 7.94066C21.4809 7.94066 21.7631 8.20101 22.0157 8.57709C22.2831 8.2878 22.5356 8.09976 22.9664 8.09976C23.1447 8.09976 23.3081 8.14316 23.4715 8.18655C23.3824 7.96958 23.3081 7.79601 23.3081 7.56459C23.3081 6.95709 23.8132 6.4653 24.4371 6.4653C24.7936 6.4653 25.0016 6.60994 25.2839 6.78351C25.2542 6.65334 25.2096 6.47976 25.2096 6.33512C25.2096 5.72762 25.7147 5.23583 26.3386 5.23583C26.6951 5.23583 26.9031 5.38048 27.1854 5.56851C27.3191 4.98994 27.6459 4.51262 28.3293 4.51262C28.7452 4.51262 28.9829 4.70066 29.2652 4.96101C29.488 4.51262 29.7999 4.16548 30.3645 4.16548C30.5279 4.16548 30.6616 4.20887 30.8101 4.25226C31.1964 3.90512 31.5083 3.73155 31.9986 3.60137V2.44423H31.0478V1.76441H31.9986V0.939941H32.7562V1.76441H33.7069V2.44423H32.7562V3.60137C33.2464 3.71708 33.5584 3.89066 33.9149 4.28119C34.0635 4.22333 34.1972 4.19441 34.3606 4.19441C34.9399 4.19441 35.2371 4.52709 35.4599 4.98994C35.7421 4.72959 35.9798 4.54155 36.3958 4.54155C37.0791 4.54155 37.406 5.01887 37.5397 5.59744C37.8071 5.39494 38.015 5.26476 38.3864 5.26476C39.0104 5.26476 39.5154 5.75655 39.5154 6.36405C39.5154 6.50869 39.4709 6.68226 39.456 6.81244C39.7383 6.63887 39.9462 6.49423 40.3028 6.49423C40.9267 6.49423 41.4318 6.98601 41.4318 7.59351C41.4318 7.82494 41.3427 7.99851 41.2684 8.21548C41.4318 8.17208 41.5952 8.12869 41.7735 8.12869C42.2043 8.12869 42.4568 8.33119 42.7242 8.60601C42.9768 8.22994 43.259 7.96959 43.7641 7.96959C44.4475 7.96959 44.7891 8.44691 44.908 9.01101C45.1754 8.82298 45.3685 8.70726 45.725 8.70726C46.349 8.70726 46.8541 9.19905 46.8541 9.80655C46.8541 9.93673 46.8243 10.0958 46.7946 10.226C47.0472 10.0958 47.2403 9.99459 47.5374 9.99459C48.1613 9.99459 48.6664 10.4864 48.6664 11.0939C48.6664 11.3687 48.5624 11.5567 48.4436 11.8026C48.6367 11.7158 48.8298 11.658 49.023 11.658C49.6469 11.658 50.152 12.1498 50.152 12.7573C50.152 13.0899 50.0183 13.278 49.84 13.5383C50.4936 13.5962 51.0879 13.9144 51.0879 14.6521C51.0879 15.1583 50.8056 15.4042 50.4194 15.6791C51.0433 15.8092 51.593 16.0841 51.593 16.8073C51.593 17.0676 51.5038 17.2412 51.3701 17.4582C52.1129 17.9066 52.1129 18.6008 51.6078 19.2517C52.2615 19.7724 51.9198 20.5969 51.3701 21.0164C50.8056 21.4358 50.2411 21.5226 49.6172 21.1176C48.8447 21.6962 48.191 21.6962 47.2997 21.4358L47.4334 21.6962C47.6562 22.1301 47.2106 22.6219 46.7204 22.4483ZM19.5497 23.5476L18.6286 23.2149L18.5543 23.0703C18.4801 23.0992 18.4206 23.1137 18.3612 23.1282C18.1087 23.1426 18.1235 22.8823 18.2572 22.8244C22.5505 20.8717 27.3191 19.7869 32.3699 19.7869C37.4357 19.7869 42.2043 20.8717 46.4827 22.8244C46.6015 22.8823 46.6312 23.1571 46.3787 23.1282C46.3341 23.1282 46.2598 23.1137 46.1856 23.0703L46.1113 23.2149L45.1902 23.5476L45.4576 24.5746L45.3685 24.7482C45.8587 24.9651 45.5171 25.2978 45.3239 25.211C41.3872 23.4174 37.0049 22.4194 32.3551 22.4194C27.7053 22.4194 23.323 23.4174 19.3862 25.211C19.2823 25.2544 19.1634 25.211 19.104 25.0953C19.0446 24.9796 19.104 24.8928 19.1783 24.8349C19.2228 24.806 19.2823 24.7771 19.3268 24.7482L19.2377 24.5746L19.5497 23.5476ZM24.6748 22.7955L26.6506 21.4648L24.2588 21.2189L22.2831 22.5496L24.6748 22.7955ZM44.1058 24.0249C44.5515 24.0249 44.908 23.6778 44.908 23.2439C44.908 22.8099 44.5515 22.4628 44.1058 22.4628C43.6601 22.4628 43.3036 22.8099 43.3036 23.2439C43.3036 23.6923 43.6601 24.0249 44.1058 24.0249ZM28.3738 22.0144C28.8195 22.0144 29.176 21.6673 29.176 21.2333C29.176 20.7994 28.8195 20.4523 28.3738 20.4523C27.9282 20.4523 27.5716 20.7994 27.5716 21.2333C27.5716 21.6673 27.9282 22.0144 28.3738 22.0144ZM20.649 24.0249C21.0946 24.0249 21.4512 23.6778 21.4512 23.2439C21.4512 22.8099 21.0946 22.4628 20.649 22.4628C20.2033 22.4628 19.8468 22.8099 19.8468 23.2439C19.8468 23.6923 20.2033 24.0249 20.649 24.0249ZM36.3809 22.0144C36.8266 22.0144 37.1831 21.6673 37.1831 21.2333C37.1831 20.7994 36.8266 20.4523 36.3809 20.4523C35.9353 20.4523 35.5787 20.7994 35.5787 21.2333C35.5787 21.6673 35.9353 22.0144 36.3809 22.0144ZM40.0799 22.7955L42.4717 22.5496L40.4959 21.2189L38.1042 21.4648L40.0799 22.7955ZM34.8954 21.0453L32.3848 20.1341L29.8742 21.0453L32.3848 21.9566L34.8954 21.0453ZM6.37284 51.9121C6.37284 65.7399 18.0641 77.051 32.3848 77.051C46.6906 77.051 58.3968 65.7399 58.3968 51.9121C58.3968 38.0408 46.7055 26.7732 32.3848 26.7732C18.079 26.7587 6.37284 38.0408 6.37284 51.9121ZM61.2193 51.9121C61.2193 67.2587 48.2802 79.7848 32.3848 79.7848C16.4894 79.7848 3.55029 67.2442 3.55029 51.9121C3.55029 36.5365 16.4894 23.996 32.3848 23.996C48.2802 23.996 61.2193 36.5365 61.2193 51.9121ZM28.5967 40.0658L32.3551 43.7832L35.8758 40.1816C34.6428 39.8633 33.4693 39.6319 32.1768 39.5885C30.9735 39.5307 29.7554 39.8055 28.5967 40.0658ZM38.5053 37.4478L44.0315 31.9224C51.177 35.8857 55.9902 43.3203 55.9902 51.8108C55.9902 57.3507 53.9698 62.4132 50.5531 66.3764L47.9682 63.8741C50.865 60.446 52.7665 57.0324 52.7665 51.5939C52.7665 45.7648 49.6172 39.2703 44.5812 35.9001L41.2684 39.1835C42.9768 40.413 44.3138 41.6569 45.4576 43.4071L42.9173 45.5189C41.9072 43.8121 40.6147 42.6116 38.9509 41.5123L32.3402 48.2526L25.4919 41.411C21.9414 43.8121 19.8468 47.2401 19.7576 51.5071C19.6388 57.1626 23.4269 61.1114 28.7452 62.8182V51.4348H36.8563V53.778H31.8797V56.8155H36.782V59.4914H31.8797V63.3244C35.5193 63.5124 39.3817 61.473 41.7438 58.9417L44.1801 61.3139C41.0753 64.7998 36.5889 66.5644 31.8946 66.5933V70.0937H28.7601V66.2173C21.5849 64.496 16.4003 58.421 16.5043 51.1599C16.5637 46.1842 19.312 42.1053 23.2932 39.198L19.9359 35.8278C14.7216 39.9501 11.9288 44.9837 11.6911 51.5216C11.5128 57.3073 14.6028 61.9503 16.5488 63.903L14.2611 66.2028C10.7552 62.2541 8.70515 57.3941 8.70515 51.8253C8.70515 43.3926 13.5183 35.958 20.6044 32.0092L26.2049 37.6503C28.1807 36.9126 30.2456 36.5221 32.3848 36.5221C34.5091 36.551 36.3364 36.9271 38.3121 37.6503L38.5053 37.4478Z" fill="#939393"/>
<path d="M62.0812 51.9122C62.0812 67.7072 48.7558 80.6238 32.3851 80.6238C16.0143 80.6238 2.68896 67.7072 2.68896 51.9122C2.68896 36.0882 16.0143 23.1716 32.3851 23.1716C48.7558 23.1716 62.0812 36.0882 62.0812 51.9122ZM61.2196 51.9122C61.2196 36.5366 48.2805 23.9961 32.3851 23.9961C16.4897 23.9961 3.55058 36.5366 3.55058 51.9122C3.55058 67.2588 16.4897 79.7849 32.3851 79.7849C48.2805 79.7849 61.2196 67.2443 61.2196 51.9122ZM7.23475 51.9122C7.23475 65.2916 18.5546 76.2266 32.3851 76.2266C46.2156 76.2266 57.5354 65.2916 57.5354 51.9122C57.5354 38.5038 46.2156 27.5977 32.3851 27.5977C18.5546 27.5977 7.23475 38.5038 7.23475 51.9122ZM6.37313 51.9122C6.37313 38.0409 18.0644 26.7733 32.3851 26.7733C46.6909 26.7733 58.3971 38.0554 58.3971 51.9122C58.3971 65.74 46.7058 77.0511 32.3851 77.0511C18.0793 77.0511 6.37313 65.74 6.37313 51.9122ZM35.4156 46.3579L49.4838 60.3883C51.0882 57.8281 51.8904 55.21 51.8904 51.6084C51.8904 45.302 48.2359 39.5597 44.6854 37.014L42.5611 39.1113C44.2546 40.4131 45.4579 41.8161 46.5572 43.5952L42.6502 46.8642C41.7143 45.0995 40.7339 43.8122 39.0552 42.6406L35.4156 46.3579ZM53.2422 64.1345C50.7019 68.3002 46.8543 71.5836 42.264 73.5508L39.9911 71.2943L35.7424 67.0852C34.7768 67.2877 33.7667 67.4179 32.7565 67.4468V70.9616H27.8987V66.9116C20.5898 65.0023 15.5538 58.3922 15.643 51.2034C15.6578 50.0029 15.8212 48.8458 16.1332 47.7175L13.7266 45.3599C13.0135 47.2981 12.6124 49.3954 12.5233 51.6084C12.3896 56.0634 14.3951 60.88 17.7376 63.9465L14.2317 67.4034C10.1019 62.9195 7.84382 57.8715 7.84382 51.7965C7.84382 42.9299 12.865 35.2059 20.7681 30.9245L26.428 36.6379C28.2998 35.987 30.4242 35.6543 32.3851 35.6543C34.4946 35.6833 36.4109 36.0449 38.1045 36.6524L43.8684 30.8666C51.8309 35.1336 56.8521 42.872 56.8521 51.7965C56.8521 56.3527 55.6042 60.4606 53.2422 64.1345ZM27.8839 59.3613L20.6195 52.2015C20.7978 56.2225 23.3232 59.9977 27.8839 61.69V59.3613ZM38.5056 37.4479L38.3124 37.6359C36.3367 36.9127 34.5094 36.5366 32.3851 36.5077C30.2608 36.5077 28.1958 36.8983 26.2052 37.6359L20.6047 31.9949C13.5186 35.9581 8.70544 43.3927 8.70544 51.8254C8.70544 57.3941 10.7555 62.2541 14.2614 66.2029L16.5194 63.9754C14.5734 62.0227 11.4834 57.3797 11.6617 51.594C11.8994 45.0416 14.6922 40.0225 19.9065 35.9002L23.2638 39.2704C19.2825 42.1777 16.5491 46.2422 16.4749 51.2324C16.3857 58.4934 21.5554 64.554 28.7306 66.2897V70.1661H31.8652V66.6657C36.5743 66.6368 41.0458 64.8722 44.1506 61.3863L41.7143 59.0141C39.3523 61.5454 35.4899 63.5704 31.8503 63.3968V59.5638H36.7526V56.8879H31.8503V53.8504H36.8269V51.5072H28.7158V62.8906C23.3975 61.1838 19.6094 57.235 19.7282 51.5795C19.8173 47.3125 21.912 43.8845 25.4624 41.4834L32.3108 48.325L38.9215 41.5847C40.5853 42.684 41.8778 43.8845 42.8879 45.5913L45.4282 43.4795C44.2843 41.7293 42.9473 40.4854 41.239 39.2559L44.5517 35.9725C49.5878 39.3283 52.7371 45.8372 52.7371 51.6663C52.7371 57.1049 50.8505 60.5184 47.9388 63.9465L50.5236 66.4488C53.9404 62.4856 55.9608 57.4231 55.9608 51.8833C55.9608 43.3927 51.1476 35.9581 44.0021 31.9949L38.5056 37.4479ZM28.5969 40.0659C29.7705 39.8056 30.9738 39.5308 32.1771 39.5886C33.4695 39.632 34.6431 39.849 35.8761 40.1816L32.3554 43.7833L28.5969 40.0659ZM30.3053 40.5577L32.3405 42.5683L34.242 40.63C33.5587 40.4999 32.8605 40.4275 32.1474 40.4131C31.6869 40.3986 31.0035 40.4565 30.3053 40.5577ZM45.4282 23.6634L45.6065 24.3288L45.6808 24.5747L45.8145 24.5024L46.4681 24.1552L46.3047 23.4899L46.275 23.3452L45.4282 23.6634ZM46.7206 22.4484C47.2257 22.622 47.6565 22.1302 47.4486 21.6818L47.3149 21.4215C48.2062 21.6818 48.8598 21.6818 49.6323 21.1033C50.2562 21.5083 50.8208 21.4215 51.3853 21.002C51.9349 20.5825 52.2766 19.7725 51.623 19.2374C52.128 18.6009 52.1429 17.9067 51.3853 17.4438C51.519 17.2268 51.6081 17.0533 51.6081 16.7929C51.6081 16.0697 51.0436 15.7949 50.4345 15.6647C50.8059 15.3899 51.103 15.144 51.103 14.6377C51.103 13.9 50.5088 13.5963 49.8552 13.524C50.0334 13.2636 50.1671 13.0756 50.1671 12.7429C50.1671 12.4514 50.0482 12.1717 49.8364 11.9656C49.6247 11.7594 49.3375 11.6436 49.0381 11.6436C48.845 11.6436 48.6519 11.7015 48.4736 11.7593C48.5924 11.5134 48.6964 11.3399 48.6964 11.0506C48.6964 10.759 48.5775 10.4794 48.3657 10.2733C48.154 10.0671 47.8668 9.95129 47.5674 9.95129C47.2554 9.95129 47.0772 10.0525 46.8246 10.1827C46.8395 10.0525 46.8841 9.89344 46.8841 9.76326C46.8841 9.47171 46.7651 9.1921 46.5534 8.98595C46.3416 8.77979 46.0545 8.66397 45.755 8.66397C45.4134 8.66397 45.2054 8.79415 44.938 8.96772C44.8043 8.40362 44.4775 7.92629 43.7941 7.92629C43.289 7.92629 43.0068 8.18665 42.7542 8.56272C42.4868 8.27344 42.2343 8.0854 41.8035 8.0854C41.6252 8.0854 41.4618 8.12879 41.2984 8.17219C41.3875 7.95522 41.4618 7.78165 41.4618 7.55022C41.4618 7.25867 41.3428 6.97907 41.1311 6.77291C40.9194 6.56675 40.6322 6.45094 40.3328 6.45094C39.9762 6.45094 39.7683 6.59558 39.486 6.76915C39.5157 6.63897 39.5454 6.4654 39.5454 6.32076C39.5454 6.02921 39.4265 5.7496 39.2148 5.54345C39.003 5.33729 38.7159 5.22147 38.4164 5.22147C38.0599 5.22147 37.8519 5.36612 37.5697 5.55415C37.436 4.97558 37.1091 4.49826 36.4258 4.49826C36.0098 4.49826 35.7721 4.68629 35.4899 4.94665C35.2671 4.49826 34.9551 4.15112 34.3906 4.15112C34.2272 4.15112 34.0935 4.19451 33.9449 4.2379C33.5884 3.84737 33.2913 3.68826 32.7862 3.55808V2.40094H33.7369V1.76451H32.7862V0.940045H32.0286V1.76451H31.0481V2.44433H31.9988V3.60147C31.5086 3.73165 31.1967 3.90522 30.855 4.28129C30.7139 4.22344 30.5624 4.19392 30.4093 4.19451C29.8299 4.19451 29.5328 4.52719 29.31 4.99004C29.0278 4.72969 28.7901 4.54165 28.3741 4.54165C27.6759 4.54165 27.3639 5.01897 27.2302 5.59754C26.948 5.39504 26.74 5.2504 26.3686 5.2504C26.0692 5.2504 25.782 5.36622 25.5703 5.57237C25.3586 5.77853 25.2396 6.05814 25.2396 6.34969C25.2396 6.49433 25.2842 6.6679 25.3139 6.79808C25.0316 6.62451 24.8236 6.47987 24.4671 6.47987C24.1677 6.47987 23.8805 6.59568 23.6688 6.80184C23.457 7.008 23.3381 7.2876 23.3381 7.57915C23.3381 7.81058 23.4272 7.98415 23.5015 8.20112C23.3381 8.15772 23.1747 8.11433 22.9964 8.11433C22.5656 8.11433 22.3131 8.31683 22.0457 8.59165C21.7931 8.21558 21.5109 7.95522 21.0058 7.95522C20.3224 7.95522 19.9956 8.43254 19.8619 8.99665C19.5945 8.82308 19.3865 8.6929 19.0449 8.6929C18.7454 8.6929 18.4583 8.80872 18.2465 9.01487C18.0348 9.22103 17.9158 9.50064 17.9158 9.79219C17.9158 9.92237 17.9456 10.0815 17.9753 10.2117C17.7227 10.0815 17.5296 9.98022 17.2325 9.98022C16.9331 9.98022 16.6459 10.096 16.4342 10.3022C16.2224 10.5084 16.1035 10.788 16.1035 11.0795C16.1035 11.3543 16.2075 11.5424 16.3263 11.7883C16.1332 11.7449 15.9549 11.6725 15.7618 11.6725C15.4624 11.6725 15.1752 11.7884 14.9635 11.9945C14.7517 12.2007 14.6328 12.4803 14.6328 12.7718C14.6328 13.1045 14.7665 13.2925 14.9447 13.5529C14.2614 13.5963 13.6672 13.9145 13.6672 14.6522C13.6672 15.1584 13.9494 15.4043 14.3208 15.6791C13.6969 15.8093 13.1472 16.0841 13.1472 16.8074C13.1472 17.0677 13.2364 17.2413 13.3701 17.4583C12.6273 17.9066 12.6273 18.6009 13.1324 19.2518C12.0479 20.1197 13.6969 22.0579 15.123 21.1177C15.8955 21.6963 16.5491 21.6963 17.4405 21.4359C17.3216 21.6818 17.1731 21.8988 17.3068 22.1736C17.4405 22.4629 17.7673 22.5786 18.0495 22.4484C22.4022 20.4668 27.2302 19.3675 32.3554 19.3675C37.4805 19.3675 42.368 20.4668 46.7206 22.4484ZM19.342 23.6634L18.7329 23.4465L18.4952 23.3741L18.4655 23.5188L18.2872 24.1697L18.9409 24.5168L19.0894 24.6036L19.1488 24.3433L19.342 23.6634ZM18.9557 24.7049L18.0941 24.242L18.3021 23.4031C17.9753 23.3597 17.8119 22.9836 17.9604 22.7377C17.7805 22.764 17.5966 22.7332 17.4361 22.6499C17.2756 22.5665 17.1469 22.435 17.0691 22.2749C16.9948 22.1302 16.9799 21.9711 16.9948 21.812C16.3412 21.9422 15.6578 21.7975 15.1082 21.4215C13.578 22.3038 11.7805 20.192 12.761 19.2084C12.3302 18.572 12.4342 17.7909 12.9987 17.3715C12.9176 17.2042 12.8726 17.0226 12.8664 16.8377C12.8601 16.6529 12.8928 16.4688 12.9624 16.2967C13.032 16.1246 13.137 15.9682 13.271 15.8372C13.4049 15.7061 13.5651 15.6031 13.7415 15.5345C13.5099 15.2905 13.3825 14.9699 13.3849 14.6377C13.3849 14.0013 13.8454 13.4661 14.4545 13.3215C14.3753 13.1435 14.3348 12.9514 14.3357 12.7574C14.3357 12.0052 14.9596 11.4122 15.7321 11.4122L15.8658 11.4267C15.8134 11.227 15.8089 11.0183 15.8525 10.8166C15.8962 10.615 15.9868 10.4258 16.1174 10.2636C16.2481 10.1015 16.4152 9.97075 16.606 9.88149C16.7967 9.79222 17.006 9.74682 17.2176 9.74879C17.3662 9.74879 17.5147 9.77772 17.6336 9.80665C17.6336 9.06897 18.2575 8.46147 19.03 8.46147C19.2677 8.46147 19.4757 8.51933 19.6688 8.62058C19.7533 8.39551 19.8972 8.1961 20.0861 8.04241C20.2749 7.88873 20.502 7.78619 20.7445 7.74513C20.9869 7.70407 21.2362 7.72594 21.4673 7.80853C21.6983 7.89111 21.9029 8.03151 22.0605 8.21558C22.2982 8.01308 22.625 7.8829 22.9816 7.8829H23.0707C23.0259 7.68498 23.0276 7.47977 23.0758 7.28259C23.1239 7.08541 23.2171 6.90137 23.3485 6.74421C23.4799 6.58704 23.6461 6.46082 23.8347 6.37497C24.0232 6.28913 24.2293 6.24587 24.4374 6.24844C24.6157 6.24844 24.7939 6.27737 24.9573 6.34969C24.9628 6.11503 25.0305 5.88573 25.1539 5.68407C25.2772 5.48241 25.452 5.31523 25.6613 5.19878C25.8706 5.08233 26.1073 5.02055 26.3484 5.01946C26.5895 5.01837 26.8267 5.07799 27.0371 5.19254C27.2302 4.67183 27.7502 4.31022 28.3444 4.31022C28.6712 4.31022 28.9683 4.41147 29.206 4.59951C29.4586 4.22344 29.8894 3.97754 30.3945 3.97754C30.5282 3.97754 30.647 3.99201 30.7658 4.02094C30.9887 3.78951 31.2709 3.60147 31.5829 3.48576L31.7315 3.44237V2.70469H30.7807V1.50415H31.7315V0.679688H33.0239V1.50415H33.9746V2.70469H33.0239V3.41344L33.1724 3.45683C33.4844 3.57254 33.7667 3.76058 33.9895 3.99201C34.1083 3.96308 34.2272 3.94862 34.3609 3.94862C34.866 3.94862 35.2968 4.19451 35.5345 4.57058C35.7721 4.39701 36.0693 4.28129 36.3961 4.28129C37.0051 4.28129 37.5102 4.6429 37.7034 5.16362C37.9113 5.06237 38.1342 4.99004 38.3867 4.99004C39.1592 4.99004 39.7683 5.58308 39.7831 6.32076C39.9935 6.23743 40.2217 6.2055 40.4477 6.22777C40.6737 6.25004 40.8907 6.32582 41.0797 6.4485C41.2687 6.57119 41.424 6.73705 41.532 6.93161C41.6401 7.12617 41.6976 7.34352 41.6995 7.56469C41.6995 7.66594 41.6846 7.75272 41.6698 7.85397H41.7738C42.1303 7.85397 42.4423 7.98415 42.6948 8.18665C42.9473 7.8829 43.3336 7.69487 43.7793 7.69487C44.3883 7.69487 44.8934 8.07094 45.0865 8.59165C45.2971 8.48156 45.5334 8.42653 45.7723 8.43194C46.0112 8.43735 46.2446 8.50302 46.4497 8.62253C46.6548 8.74204 46.8245 8.9113 46.9423 9.11378C47.0601 9.31625 47.1219 9.54502 47.1217 9.77772C47.2554 9.73433 47.404 9.71986 47.5525 9.71986C48.325 9.71986 48.949 10.3274 48.949 11.065C48.949 11.1808 48.9341 11.2965 48.9044 11.3977H49.0232C49.7957 11.3977 50.4197 12.0052 50.4197 12.7429C50.4197 12.9454 50.3751 13.1479 50.286 13.3215C50.895 13.4661 51.3556 14.0013 51.3556 14.6377C51.3556 14.9849 51.2219 15.3031 50.999 15.5345C51.1758 15.6026 51.3364 15.7053 51.4708 15.8363C51.6051 15.9672 51.7104 16.1237 51.78 16.296C51.8497 16.4682 51.8822 16.6526 51.8756 16.8376C51.8691 17.0226 51.8235 17.2043 51.7418 17.3715C52.3063 17.7909 52.4103 18.572 51.9795 19.2084C52.6034 19.8304 52.0686 20.814 51.5487 21.2045C51.0436 21.595 50.3305 21.8265 49.6472 21.4215C49.1124 21.7975 48.429 21.9422 47.7605 21.812C47.8348 22.3472 47.3446 22.8245 46.7949 22.7377C46.9435 22.9836 46.7801 23.3597 46.4681 23.4031L46.6761 24.242L45.8145 24.7049C45.9333 24.835 45.963 25.0375 45.8739 25.1966C45.8497 25.2545 45.8137 25.307 45.768 25.351C45.7224 25.3949 45.6681 25.4295 45.6084 25.4524C45.5487 25.4754 45.4849 25.4864 45.4207 25.4847C45.3566 25.483 45.2934 25.4686 45.2351 25.4425C41.2125 23.6128 36.825 22.6695 32.3851 22.6799C27.7799 22.6799 23.4421 23.6634 19.5351 25.4425C19.2826 25.5583 19.0152 25.4281 18.8963 25.1966C18.8545 25.1183 18.8379 25.0295 18.8485 24.9419C18.8591 24.8542 18.8964 24.7716 18.9557 24.7049ZM19.5499 23.5477L19.2825 24.5747L19.3717 24.7483C19.3271 24.7772 19.2677 24.7917 19.2231 24.835C19.1488 24.9074 19.0894 24.9797 19.1488 25.0954C19.2083 25.2111 19.3271 25.2545 19.4311 25.2111C23.3678 23.4175 27.7502 22.4195 32.3999 22.4195C37.0497 22.4195 41.4321 23.4175 45.3688 25.2111C45.5768 25.2979 45.9036 24.9652 45.4134 24.7483L45.5025 24.5747L45.2351 23.5477L46.1561 23.215L46.2304 23.0704C46.3047 23.0993 46.3641 23.1138 46.4235 23.1283C46.6761 23.1572 46.6612 22.8824 46.5275 22.8245C42.2343 20.8718 37.4657 19.787 32.4148 19.787C27.3639 19.787 22.5805 20.8718 18.3021 22.8245C18.1832 22.8824 18.1684 23.1572 18.4061 23.1283C18.4506 23.1283 18.5249 23.1138 18.5992 23.0704L18.6735 23.215L19.5499 23.5477ZM40.7636 11.5858C39.6643 8.90987 37.0794 6.97165 33.6181 7.15969C33.6181 7.39112 33.5438 7.62254 33.425 7.79611V8.70737C33.5504 8.89716 33.6171 9.11809 33.6171 9.34379C33.6171 9.5695 33.5504 9.79043 33.425 9.98022V10.5588C35.8019 10.255 38.5798 10.4865 40.7636 11.5858ZM33.425 10.9059C33.5892 11.1517 33.6529 11.4484 33.6034 11.7377C33.5539 12.0269 33.3948 12.2875 33.1576 12.4681C33.5735 12.6127 33.9004 12.902 34.0341 13.4517C34.8808 13.6542 35.1036 14.2616 35.1036 14.927C35.1036 15.7225 34.7768 16.4024 33.5735 16.4602C33.5142 16.6227 33.4954 16.7966 33.5189 16.9675C33.5423 17.1384 33.6073 17.3015 33.7084 17.4431C33.8094 17.5847 33.9437 17.7008 34.1001 17.7817C34.2565 17.8627 34.4304 17.9062 34.6075 17.9086C34.7846 17.911 34.9598 17.8723 35.1184 17.7957C35.2771 17.719 35.4147 17.6067 35.5198 17.4679C35.625 17.3291 35.6946 17.168 35.723 16.9977C35.7514 16.8275 35.7377 16.6532 35.683 16.4891C35.6682 16.3734 35.6533 16.2577 35.6533 16.142C35.6533 15.3899 36.2772 14.7824 37.0646 14.7824C37.8371 14.7824 38.461 15.3899 38.461 16.142C38.461 16.3734 38.4016 16.5904 38.2976 16.7929C38.3273 17.2413 38.6541 17.6463 39.1295 17.7765C39.6049 17.8922 40.0951 17.6897 40.3476 17.2992C39.2038 16.952 39.0552 16.2143 39.2632 15.4477C39.4415 14.7968 39.8128 14.2617 40.6893 14.2761C40.8527 13.9724 41.0607 13.7843 41.3132 13.6686C41.2093 13.0177 41.0607 12.4102 40.8527 11.8317C38.6244 10.6311 35.6979 10.4142 33.425 10.7468V10.9059ZM31.4046 7.17415C31.4046 7.39112 31.4789 7.56469 31.5978 7.73826V8.80862C31.4789 8.98219 31.4046 9.15576 31.4046 9.37272C31.4046 9.58969 31.4789 9.76326 31.5978 9.93683V11.0072C31.4789 11.1808 31.4046 11.3543 31.4046 11.5713C31.4046 12.1933 31.88 12.3958 32.3702 12.5983C32.8605 12.3813 33.3358 12.1933 33.3358 11.5713C33.3365 11.3812 33.2796 11.195 33.1724 11.0361L33.1427 9.93683C33.2616 9.76326 33.3358 9.58969 33.3358 9.37272C33.3358 9.15576 33.2616 8.98219 33.1427 8.80862V7.72379C33.2616 7.55022 33.3358 7.37665 33.3358 7.15969C33.3358 7.0729 33.321 7.00058 33.3061 6.91379C37.8519 6.59558 41.1053 9.57522 41.5509 13.7988C41.1498 13.9579 41.0013 14.1315 40.8082 14.5075C40.0208 14.4641 39.6643 14.7679 39.486 15.4766C39.2186 16.4747 39.7089 16.8508 40.6893 17.0966C40.3922 17.7475 39.798 18.1815 39.0255 17.979C38.7306 17.9062 38.4686 17.7405 38.2805 17.5076C38.0924 17.2748 37.9888 16.9879 37.9856 16.6916C38.0896 16.5036 38.1639 16.33 38.1639 16.1131C38.1639 15.9687 38.1347 15.8258 38.0779 15.6924C38.0212 15.559 37.938 15.4378 37.8332 15.3358C37.7284 15.2337 37.6039 15.1527 37.4669 15.0975C37.3299 15.0422 37.1831 15.0138 37.0349 15.0138C36.4109 15.0138 35.891 15.5056 35.891 16.1131C35.891 16.2288 35.9207 16.3445 35.9504 16.4602C35.7721 17.0388 35.2671 17.4438 34.6283 17.4438C33.8261 17.4438 33.3656 16.8797 33.2467 16.1854C34.2569 16.1854 34.8363 15.925 34.8363 14.8981C34.8363 14.1749 34.5689 13.7843 33.7964 13.6397C33.6181 12.7284 33.1427 12.6706 32.3554 12.5549C31.568 12.685 31.0927 12.7429 30.9144 13.6397C30.1419 13.7843 29.8745 14.1749 29.8745 14.8981C29.8745 15.925 30.4539 16.1709 31.4641 16.1854C31.3452 16.8797 30.8847 17.4438 30.0825 17.4438C29.4437 17.4438 28.9386 17.0388 28.7455 16.4602C28.7752 16.3445 28.8049 16.2288 28.8049 16.1131C28.8049 15.5056 28.2998 15.0138 27.661 15.0138C27.0371 15.0138 26.5172 15.5056 26.5172 16.1131C26.5172 16.33 26.5766 16.5181 26.6954 16.6916C26.6806 17.2991 26.2943 17.8343 25.6704 17.979C24.8979 18.167 24.3037 17.7331 24.0066 17.0966C24.9871 16.8508 25.4773 16.4602 25.2099 15.4766C25.0168 14.7679 24.6602 14.4641 23.8878 14.5075C23.7095 14.117 23.5609 13.9434 23.145 13.7988C23.5906 9.57522 26.844 6.58112 31.3898 6.91379C31.4195 7.00058 31.4046 7.08737 31.4046 7.17415ZM23.9026 11.8317C23.6946 12.4102 23.5461 13.0177 23.4718 13.6542C23.7243 13.7699 23.9323 13.9724 24.0957 14.2616C24.9722 14.2472 25.3436 14.7824 25.5219 15.4333C25.7298 16.1999 25.5813 16.9375 24.4374 17.2847C24.4286 17.4532 24.4605 17.6213 24.5306 17.7756C24.6007 17.9299 24.707 18.066 24.841 18.173C24.975 18.28 25.1329 18.3548 25.3021 18.3915C25.4712 18.4282 25.6468 18.4257 25.8148 18.3842C25.9827 18.3427 26.1383 18.2634 26.2691 18.1527C26.3998 18.042 26.502 17.9029 26.5675 17.7467C26.6329 17.5905 26.6598 17.4214 26.6459 17.2533C26.632 17.0851 26.5777 16.9225 26.4875 16.7784C26.3778 16.5782 26.3216 16.3544 26.3241 16.1275C26.3241 15.3754 26.948 14.7679 27.7205 14.7679C27.935 14.7674 28.1467 14.8147 28.3395 14.9062C28.5324 14.9976 28.7012 15.1307 28.8331 15.2954C28.9649 15.4601 29.0564 15.652 29.1004 15.8564C29.1445 16.0608 29.1399 16.2723 29.0872 16.4747C29.1652 16.6881 29.3099 16.8725 29.5009 17.0018C29.692 17.1311 29.9199 17.1989 30.1526 17.1957C30.3852 17.1925 30.611 17.1185 30.7983 16.984C30.9855 16.8495 31.1248 16.6613 31.1967 16.4458C29.9934 16.3879 29.6665 15.7081 29.6665 14.9125C29.6665 14.2472 29.9042 13.6397 30.7361 13.4372C30.8698 12.902 31.1967 12.5983 31.6126 12.4536C31.3754 12.273 31.2163 12.0124 31.1668 11.7232C31.1173 11.434 31.1809 11.1372 31.3452 10.8915V10.7468C29.0723 10.4286 26.1458 10.6311 23.9026 11.8317ZM31.1372 7.17415C27.6759 6.98612 25.1059 8.90987 24.0066 11.6002C26.1755 10.5154 28.9683 10.255 31.3304 10.5877V10.0092C31.2049 9.81936 31.1382 9.59842 31.1382 9.37272C31.1382 9.14702 31.2049 8.92609 31.3304 8.73629V7.81058C31.2066 7.62 31.1397 7.39963 31.1372 7.17415ZM45.2054 19.4688L45.2797 19.4109C45.4282 19.5266 45.5619 19.599 45.755 19.6568L45.9927 19.7002C46.0819 20.1775 46.2601 20.5681 46.6018 20.9152L46.4532 21.1177C45.6362 20.7706 44.7894 20.4379 43.9278 20.1486L43.9575 19.9027C44.418 19.8593 44.8489 19.7147 45.2054 19.4688ZM45.2797 19.7291C45.042 19.8883 44.7746 20.004 44.5072 20.0763C45.042 20.2643 45.5768 20.4668 46.1116 20.6838C45.963 20.4524 45.8442 20.192 45.7847 19.9172L45.6956 19.9027C45.5471 19.8593 45.4134 19.8015 45.2797 19.7291ZM32.2514 16.4458H32.5188C32.6228 17.1545 33.0833 17.7331 33.7221 18.0224L33.6627 18.2683C33.2467 18.2538 32.8159 18.2393 32.3851 18.2393C31.9543 18.2393 31.5383 18.2538 31.1075 18.2683L31.0481 18.0224C31.6869 17.7331 32.1474 17.14 32.2514 16.4458ZM32.3851 16.9665C32.2217 17.3715 31.9543 17.7331 31.5978 17.9934C31.8503 17.9934 32.1177 17.979 32.3851 17.979C32.6525 17.979 32.905 17.979 33.1724 17.9934C32.8159 17.7331 32.5485 17.3859 32.3851 16.9665ZM18.3021 21.1177L18.1535 20.9152C18.4952 20.5536 18.6735 20.1775 18.7626 19.7002C19.0894 19.6568 19.2083 19.6279 19.4905 19.4254C19.8916 19.7147 20.2927 19.8738 20.7978 19.9027L20.8275 20.1486C19.9659 20.4379 19.1191 20.7561 18.3021 21.1177ZM18.6586 20.6838C19.1786 20.4668 19.7134 20.2643 20.263 20.0763C19.9808 20.004 19.7134 19.8883 19.4905 19.7291C19.3717 19.8015 19.2231 19.8738 19.0746 19.9027L18.9854 19.9172C18.9112 20.192 18.8072 20.4524 18.6586 20.6838ZM24.9425 18.76V19.0059C24.1254 19.1795 23.3084 19.382 22.5062 19.599L22.3873 19.382C22.9221 18.9481 23.2044 18.2683 23.1301 17.574L23.3827 17.5161C23.6501 18.167 24.2443 18.6299 24.9425 18.76ZM24.3928 18.8758C23.9917 18.7022 23.6352 18.4274 23.3827 18.0802C23.3381 18.5141 23.1598 18.9191 22.8924 19.2518C23.3975 19.1072 23.9026 18.977 24.3928 18.8758ZM26.6657 18.7022L26.5766 18.4708C27.0668 18.167 27.3639 17.762 27.5571 17.2413H27.7205C27.869 17.2413 28.0027 17.2124 28.1364 17.169C28.4632 17.6318 28.8643 17.95 29.414 18.1236L29.3843 18.3695C28.4632 18.4418 27.5571 18.5575 26.6657 18.7022ZM27.7353 17.4872C27.6016 17.8199 27.3936 18.1091 27.1262 18.355C27.6908 18.2683 28.2701 18.1959 28.8495 18.1525C28.5227 17.979 28.2404 17.7331 28.0324 17.4583C27.9284 17.4727 27.8393 17.4872 27.7353 17.4872ZM35.3859 18.3695L35.3562 18.1236C35.9058 17.95 36.3069 17.6318 36.6338 17.169C36.7823 17.2124 36.9012 17.2413 37.0497 17.2413H37.2131C37.4062 17.762 37.7034 18.167 38.1936 18.4708L38.1045 18.7022C37.2131 18.5575 36.2921 18.4418 35.3859 18.3695ZM37.02 17.4872C36.9309 17.4872 36.8269 17.4727 36.7378 17.4583C36.5149 17.7475 36.2327 17.979 35.9207 18.1525C36.5001 18.2104 37.0646 18.2827 37.6439 18.355C37.3914 18.1236 37.1983 17.8488 37.0497 17.545L37.02 17.4872ZM42.3828 19.3965L42.264 19.6134C41.4618 19.382 40.6596 19.1795 39.8277 19.0204V18.7745C40.511 18.6299 41.1053 18.1815 41.3875 17.5306L41.6401 17.5884C41.5658 18.2827 41.848 18.9625 42.3828 19.3965ZM41.8629 19.2374C41.5955 18.9047 41.4321 18.4997 41.3727 18.0658C41.1201 18.4274 40.7636 18.7022 40.3625 18.8613C40.8676 18.977 41.3727 19.1072 41.8629 19.2374ZM42.2491 14.7968C41.9616 14.7262 41.6571 14.7685 41.4014 14.9147C41.1457 15.0608 40.9593 15.299 40.8824 15.5779C40.7339 16.1565 41.0904 16.7495 41.6846 16.8941C42.2937 17.0388 42.9028 16.6917 43.0513 16.1131C43.1235 15.835 43.0796 15.5404 42.9293 15.2937C42.779 15.0471 42.5344 14.8684 42.2491 14.7968ZM42.2937 14.6233C42.9919 14.7968 43.4079 15.4767 43.2296 16.1565C43.0513 16.8363 42.3383 17.2413 41.6401 17.0677C41.4747 17.0277 41.3192 16.9562 41.1824 16.8573C41.0456 16.7583 40.9304 16.634 40.8434 16.4914C40.7563 16.3488 40.6992 16.1908 40.6753 16.0265C40.6514 15.8623 40.6612 15.695 40.7042 15.5345C40.8824 14.8692 41.5955 14.4497 42.2937 14.6233ZM43.2593 12.6706C42.9176 12.6706 42.6354 12.9454 42.6354 13.2781C42.6354 13.6108 42.9176 13.8856 43.2593 13.8856C43.601 13.8856 43.8832 13.6108 43.8832 13.2781C43.8832 12.9454 43.6158 12.6706 43.2593 12.6706ZM43.2593 12.497C43.705 12.497 44.0615 12.8442 44.0615 13.2781C44.0615 13.712 43.705 14.0592 43.2593 14.0592C42.8136 14.0592 42.4571 13.712 42.4571 13.2781C42.4571 12.8442 42.8285 12.497 43.2593 12.497ZM42.7394 10.5009C42.3977 10.5009 42.1154 10.7758 42.1154 11.1084C42.1154 11.4411 42.3977 11.7159 42.7394 11.7159C43.081 11.7159 43.3633 11.4411 43.3633 11.1084C43.3653 11.0281 43.3506 10.9482 43.32 10.8736C43.2893 10.799 43.2434 10.7313 43.1851 10.6745C43.1267 10.6176 43.0571 10.573 42.9805 10.5431C42.9039 10.5133 42.8219 10.499 42.7394 10.5009ZM42.7394 10.3274C43.185 10.3274 43.5416 10.6745 43.5416 11.1084C43.5416 11.5424 43.185 11.8895 42.7394 11.8895C42.2937 11.8895 41.9372 11.5424 41.9372 11.1084C41.9372 10.6745 42.3086 10.3274 42.7394 10.3274ZM50.4791 16.1999C50.1374 16.1999 49.8552 16.4747 49.8552 16.8074C49.8552 17.14 50.1374 17.4149 50.4791 17.4149C50.8208 17.4149 51.103 17.14 51.103 16.8074C51.103 16.4747 50.8208 16.1999 50.4791 16.1999ZM50.4791 16.0263C50.9247 16.0263 51.2813 16.3734 51.2813 16.8074C51.2813 17.2413 50.9247 17.5884 50.4791 17.5884C50.0334 17.5884 49.6769 17.2413 49.6769 16.8074C49.6769 16.3734 50.0334 16.0263 50.4791 16.0263ZM49.9591 14.0447C49.6175 14.0447 49.3352 14.3195 49.3352 14.6522C49.3352 14.9849 49.6175 15.2597 49.9591 15.2597C50.3008 15.2597 50.5831 14.9849 50.5831 14.6522C50.5831 14.3195 50.3008 14.0447 49.9591 14.0447ZM49.9591 13.8711C50.4048 13.8711 50.7613 14.2183 50.7613 14.6522C50.7613 15.0861 50.4048 15.4333 49.9591 15.4333C49.5135 15.4333 49.1569 15.0861 49.1569 14.6522C49.1569 14.2183 49.5135 13.8711 49.9591 13.8711ZM49.0232 12.1499C48.6816 12.1499 48.3993 12.4247 48.3993 12.7574C48.3993 13.09 48.6816 13.3504 49.0232 13.3504C49.3649 13.3504 49.6472 13.0756 49.6472 12.7429C49.6472 12.4102 49.3649 12.1499 49.0232 12.1499ZM49.0232 11.9763C49.4689 11.9763 49.8254 12.3234 49.8254 12.7574C49.8254 13.1913 49.4689 13.5384 49.0232 13.5384C48.5776 13.5384 48.221 13.1913 48.221 12.7574C48.221 12.3234 48.5776 11.9763 49.0232 11.9763ZM47.5525 10.472C47.2109 10.472 46.9286 10.7468 46.9286 11.0795C46.9286 11.4122 47.2109 11.687 47.5525 11.687C47.8942 11.687 48.1765 11.4122 48.1765 11.0795C48.1765 10.7468 47.8942 10.472 47.5525 10.472ZM47.5525 10.2984C47.9982 10.2984 48.3547 10.6456 48.3547 11.0795C48.3547 11.5134 47.9982 11.8606 47.5525 11.8606C47.1069 11.8606 46.7504 11.5134 46.7504 11.0795C46.7355 10.6456 47.1069 10.2984 47.5525 10.2984ZM45.7253 9.18469C45.3836 9.18469 45.1014 9.45951 45.1014 9.79219C45.1014 10.1249 45.3836 10.3997 45.7253 10.3997C46.067 10.3997 46.3493 10.1249 46.3493 9.79219C46.3493 9.45951 46.067 9.18469 45.7253 9.18469ZM45.7253 9.01112C46.171 9.01112 46.5275 9.35826 46.5275 9.79219C46.5275 10.2261 46.171 10.5733 45.7253 10.5733C45.2797 10.5733 44.9231 10.2261 44.9231 9.79219C44.9231 9.35826 45.2797 9.01112 45.7253 9.01112ZM43.7644 8.44701C43.4227 8.44701 43.1405 8.72183 43.1405 9.05451C43.1405 9.38719 43.4227 9.66201 43.7644 9.66201C44.1061 9.66201 44.3883 9.38719 44.3883 9.05451C44.3883 8.72183 44.1061 8.44701 43.7644 8.44701ZM43.7644 8.27344C44.2101 8.27344 44.5666 8.62058 44.5666 9.05451C44.5666 9.48844 44.2101 9.83558 43.7644 9.83558C43.3187 9.83558 42.9622 9.48844 42.9622 9.05451C42.9622 8.62058 43.3187 8.27344 43.7644 8.27344ZM41.7738 8.60612C41.4321 8.60612 41.1498 8.88094 41.1498 9.21362C41.1498 9.54629 41.4321 9.82112 41.7738 9.82112C42.1154 9.82112 42.3977 9.54629 42.3977 9.21362C42.3939 9.05365 42.327 8.90126 42.2108 8.78812C42.0946 8.67498 41.9381 8.60979 41.7738 8.60612ZM41.7738 8.43254C42.2194 8.43254 42.576 8.77969 42.576 9.21362C42.576 9.64754 42.2194 9.99469 41.7738 9.99469C41.3281 9.99469 40.9716 9.64754 40.9716 9.21362C40.9567 8.77969 41.3281 8.43254 41.7738 8.43254ZM40.3031 6.97165C39.9614 6.97165 39.6791 7.24647 39.6791 7.57915C39.6791 7.91183 39.9614 8.18665 40.3031 8.18665C40.6447 8.18665 40.927 7.91183 40.927 7.57915C40.927 7.24647 40.6447 6.97165 40.3031 6.97165ZM40.3031 6.79808C40.7487 6.79808 41.1053 7.14522 41.1053 7.57915C41.1053 8.01308 40.7487 8.36022 40.3031 8.36022C39.8574 8.36022 39.5009 8.01308 39.5009 7.57915C39.5009 7.15969 39.8574 6.79808 40.3031 6.79808ZM38.3867 5.74219C38.045 5.74219 37.7628 6.01701 37.7628 6.34969C37.7628 6.68236 38.045 6.95719 38.3867 6.95719C38.7284 6.95719 39.0106 6.68236 39.0106 6.34969C39.0106 6.01701 38.7284 5.74219 38.3867 5.74219ZM38.3867 5.56862C38.8324 5.56862 39.1889 5.91576 39.1889 6.34969C39.1889 6.78362 38.8324 7.13076 38.3867 7.13076C37.941 7.13076 37.5845 6.78362 37.5845 6.34969C37.5845 5.91576 37.941 5.56862 38.3867 5.56862ZM36.3961 5.03344C36.0544 5.03344 35.7721 5.30826 35.7721 5.64094C35.7721 5.97362 36.0544 6.24844 36.3961 6.24844C36.7378 6.24844 37.02 5.97362 37.02 5.64094C37.02 5.30826 36.7378 5.03344 36.3961 5.03344ZM36.3961 4.85987C36.8417 4.85987 37.1983 5.20701 37.1983 5.64094C37.1983 6.07487 36.8417 6.40754 36.3961 6.40754C35.9504 6.40754 35.5939 6.0604 35.5939 5.62647C35.5939 5.19254 35.9504 4.85987 36.3961 4.85987ZM34.3609 4.68629C34.0192 4.68629 33.7369 4.96112 33.7369 5.29379C33.7369 5.62647 34.0192 5.90129 34.3609 5.90129C34.7025 5.90129 34.9848 5.62647 34.9848 5.29379C34.9848 4.96112 34.7025 4.68629 34.3609 4.68629ZM34.3609 4.51272C34.8065 4.51272 35.1631 4.85987 35.1631 5.29379C35.1631 5.72772 34.8065 6.07486 34.3609 6.07486C33.9152 6.07486 33.5587 5.72772 33.5587 5.29379C33.5587 4.85987 33.9152 4.51272 34.3609 4.51272ZM15.0636 20.5681C15.6132 20.2788 15.8064 19.6134 15.5093 19.0927C15.2121 18.572 14.5288 18.3695 13.9791 18.6588C13.4443 18.9481 13.2364 19.599 13.5335 20.1341C13.8454 20.6693 14.5288 20.8574 15.0636 20.5681ZM15.1527 20.7272C14.8509 20.8883 14.496 20.9271 14.165 20.835C13.8341 20.7429 13.5537 20.5275 13.3849 20.2354C13.3027 20.0904 13.2509 19.9309 13.2326 19.7662C13.2142 19.6015 13.2297 19.4349 13.2781 19.2761C13.3265 19.1173 13.4068 18.9694 13.5144 18.8411C13.622 18.7127 13.7547 18.6065 13.9049 18.5286C14.2067 18.3675 14.5616 18.3287 14.8926 18.4208C15.2235 18.5129 15.5038 18.7283 15.6727 19.0204C16.0143 19.6279 15.7915 20.3945 15.1527 20.7272ZM23.0707 16.8941C23.6649 16.7495 24.0363 16.1565 23.8729 15.5779C23.7961 15.299 23.6097 15.0608 23.3539 14.9147C23.0982 14.7685 22.7937 14.7262 22.5062 14.7968C21.912 14.9415 21.5406 15.5345 21.704 16.1131C21.8674 16.7061 22.4765 17.0533 23.0707 16.8941ZM23.1153 17.0677C22.9494 17.1095 22.7768 17.1191 22.6072 17.0959C22.4375 17.0727 22.2743 17.0173 22.1267 16.9326C21.9791 16.848 21.85 16.7359 21.7469 16.6027C21.6438 16.4696 21.5686 16.3179 21.5257 16.1565C21.3475 15.4767 21.7634 14.7968 22.4616 14.6233C23.1598 14.4497 23.8729 14.8547 24.0512 15.5345C24.2294 16.2143 23.8135 16.8941 23.1153 17.0677ZM32.3851 15.7659C33.009 15.7659 33.5141 15.2741 33.5141 14.6811C33.5141 14.0881 33.009 13.5963 32.3851 13.5963C31.7612 13.5963 31.2561 14.0881 31.2561 14.6811C31.2561 15.2741 31.7612 15.7659 32.3851 15.7659ZM32.3851 15.9395C32.0409 15.9395 31.7107 15.8074 31.4659 15.5718C31.2212 15.3362 31.0817 15.0162 31.0778 14.6811C31.0778 13.9868 31.6572 13.4227 32.3851 13.4227C33.0982 13.4227 33.6924 13.9868 33.6924 14.6811C33.6775 15.3754 33.0982 15.9395 32.3851 15.9395ZM21.496 13.8711C21.8377 13.8711 22.1199 13.5963 22.1199 13.2636C22.1199 12.9309 21.8377 12.6561 21.496 12.6561C21.1543 12.6561 20.8721 12.9309 20.8721 13.2636C20.8721 13.6108 21.1543 13.8711 21.496 13.8711ZM21.496 14.0447C21.0504 14.0447 20.6938 13.6975 20.6938 13.2636C20.6938 12.8297 21.0504 12.4825 21.496 12.4825C21.9417 12.4825 22.2982 12.8297 22.2982 13.2636C22.2982 13.6975 21.9417 14.0447 21.496 14.0447ZM22.016 11.7159C22.3576 11.7159 22.6399 11.4411 22.6399 11.1084C22.6399 10.7758 22.3576 10.5009 22.016 10.5009C21.6743 10.5009 21.392 10.7758 21.392 11.1084C21.392 11.4411 21.6743 11.7159 22.016 11.7159ZM22.016 11.8895C21.5703 11.8895 21.2138 11.5424 21.2138 11.1084C21.2138 10.6745 21.5703 10.3274 22.016 10.3274C22.4616 10.3274 22.8182 10.6745 22.8182 11.1084C22.8182 11.5424 22.4616 11.8895 22.016 11.8895ZM14.2911 17.4149C14.6328 17.4149 14.915 17.14 14.915 16.8074C14.915 16.4747 14.6328 16.1999 14.2911 16.1999C13.9494 16.1999 13.6672 16.4747 13.6672 16.8074C13.6672 17.14 13.9494 17.4149 14.2911 17.4149ZM14.2911 17.574C13.8454 17.574 13.4889 17.2268 13.4889 16.7929C13.4889 16.359 13.8454 16.0118 14.2911 16.0118C14.7368 16.0118 15.0933 16.359 15.0933 16.7929C15.0933 17.2413 14.7368 17.574 14.2911 17.574ZM14.811 15.2452C15.1527 15.2452 15.435 14.9704 15.435 14.6377C15.435 14.305 15.1527 14.0302 14.811 14.0302C14.4694 14.0302 14.1871 14.305 14.1871 14.6377C14.1871 14.9849 14.4545 15.2452 14.811 15.2452ZM14.811 15.4188C14.3654 15.4188 14.0089 15.0716 14.0089 14.6377C14.0089 14.2038 14.3654 13.8566 14.811 13.8566C15.2567 13.8566 15.6132 14.2038 15.6132 14.6377C15.6132 15.0716 15.2419 15.4188 14.811 15.4188ZM15.7321 13.3504C16.0738 13.3504 16.356 13.0756 16.356 12.7429C16.356 12.4102 16.0886 12.1499 15.7321 12.1499C15.3904 12.1499 15.1082 12.4247 15.1082 12.7574C15.1082 13.09 15.3904 13.3504 15.7321 13.3504ZM15.7321 13.524C15.2864 13.524 14.9299 13.1768 14.9299 12.7429C14.9299 12.309 15.2864 11.9618 15.7321 11.9618C16.1778 11.9618 16.5343 12.309 16.5343 12.7429C16.5343 13.1768 16.1778 13.524 15.7321 13.524ZM17.2176 11.6725C17.5593 11.6725 17.8416 11.3977 17.8416 11.065C17.8416 10.7324 17.5593 10.4575 17.2176 10.4575C16.876 10.4575 16.5937 10.7324 16.5937 11.065C16.5937 11.3977 16.876 11.6725 17.2176 11.6725ZM17.2176 11.8461C16.772 11.8461 16.4154 11.499 16.4154 11.065C16.4154 10.6311 16.772 10.284 17.2176 10.284C17.6633 10.284 18.0198 10.6311 18.0198 11.065C18.0198 11.499 17.6633 11.8461 17.2176 11.8461ZM19.0449 10.3997C19.3865 10.3997 19.6688 10.1249 19.6688 9.79219C19.6688 9.45951 19.3865 9.18469 19.0449 9.18469C18.7032 9.18469 18.4209 9.45951 18.4209 9.79219C18.4209 10.1249 18.6883 10.3997 19.0449 10.3997ZM19.0449 10.5733C18.5992 10.5733 18.2427 10.2261 18.2427 9.79219C18.2427 9.35826 18.5992 9.01112 19.0449 9.01112C19.4905 9.01112 19.8471 9.35826 19.8471 9.79219C19.8471 10.2261 19.4905 10.5733 19.0449 10.5733ZM20.9909 9.64754C21.3326 9.64754 21.6149 9.37272 21.6149 9.04004C21.6149 8.70737 21.3326 8.43254 20.9909 8.43254C20.6493 8.43254 20.367 8.70737 20.367 9.04004C20.367 9.38719 20.6493 9.64754 20.9909 9.64754ZM20.9909 9.82112C20.5453 9.82112 20.1887 9.47397 20.1887 9.04004C20.1887 8.60612 20.5453 8.25897 20.9909 8.25897C21.4366 8.25897 21.7931 8.60612 21.7931 9.04004C21.808 9.47397 21.4366 9.82112 20.9909 9.82112ZM22.9964 9.82112C23.3381 9.82112 23.6204 9.54629 23.6204 9.21362C23.6204 8.88094 23.3381 8.60612 22.9964 8.60612C22.6547 8.60612 22.3725 8.88094 22.3725 9.21362C22.3725 9.54629 22.6547 9.82112 22.9964 9.82112ZM22.9964 9.99469C22.5508 9.99469 22.1942 9.64754 22.1942 9.21362C22.1942 8.77969 22.5508 8.43254 22.9964 8.43254C23.4421 8.43254 23.7986 8.77969 23.7986 9.21362C23.7986 9.64754 23.4421 9.99469 22.9964 9.99469ZM24.4671 8.18665C24.8088 8.18665 25.091 7.91183 25.091 7.57915C25.091 7.24647 24.8088 6.97165 24.4671 6.97165C24.1254 6.97165 23.8432 7.24647 23.8432 7.57915C23.8283 7.91183 24.1106 8.18665 24.4671 8.18665ZM24.4671 8.36022C24.0215 8.36022 23.6649 8.01308 23.6649 7.57915C23.6649 7.14522 24.0215 6.79808 24.4671 6.79808C24.9128 6.79808 25.2693 7.14522 25.2693 7.57915C25.2693 8.01308 24.8979 8.36022 24.4671 8.36022ZM26.3686 6.95719C26.7103 6.95719 26.9925 6.68236 26.9925 6.34969C26.9925 6.01701 26.7103 5.74219 26.3686 5.74219C26.0269 5.74219 25.7447 6.01701 25.7447 6.34969C25.7447 6.68236 26.0269 6.95719 26.3686 6.95719ZM26.3686 7.13076C25.923 7.13076 25.5664 6.78362 25.5664 6.34969C25.5664 5.91576 25.923 5.56862 26.3686 5.56862C26.8143 5.56862 27.1708 5.91576 27.1708 6.34969C27.1708 6.78362 26.8143 7.13076 26.3686 7.13076ZM28.3593 6.23397C28.7009 6.23397 28.9832 5.95915 28.9832 5.62647C28.9832 5.29379 28.7009 5.01897 28.3593 5.01897C28.0176 5.01897 27.7353 5.29379 27.7353 5.62647C27.7353 5.95915 28.0176 6.23397 28.3593 6.23397ZM28.3593 6.40754C27.9136 6.40754 27.5571 6.0604 27.5571 5.62647C27.5571 5.19254 27.9136 4.8454 28.3593 4.8454C28.8049 4.8454 29.1615 5.19254 29.1615 5.62647C29.1615 6.0604 28.8049 6.40754 28.3593 6.40754ZM32.3851 12.1499C32.7268 12.1499 33.009 11.875 33.009 11.5424C33.009 11.2097 32.7268 10.9349 32.3851 10.9349C32.0434 10.9349 31.7612 11.2097 31.7612 11.5424C31.7612 11.875 32.0434 12.1499 32.3851 12.1499ZM32.3851 12.3234C31.9394 12.3234 31.5829 11.9763 31.5829 11.5424C31.5829 11.1084 31.9394 10.7613 32.3851 10.7613C32.8308 10.7613 33.1873 11.1084 33.1873 11.5424C33.1873 11.9763 32.8308 12.3234 32.3851 12.3234ZM32.3851 9.96576C32.7268 9.96576 33.009 9.69094 33.009 9.35826C33.009 9.02558 32.7268 8.75076 32.3851 8.75076C32.0434 8.75076 31.7612 9.02558 31.7612 9.35826C31.7612 9.69094 32.0434 9.96576 32.3851 9.96576ZM32.3851 10.1393C31.9394 10.1393 31.5829 9.79219 31.5829 9.35826C31.5829 8.92433 31.9394 8.57719 32.3851 8.57719C32.8308 8.57719 33.1873 8.92433 33.1873 9.35826C33.1873 9.79219 32.8308 10.1393 32.3851 10.1393ZM32.3851 7.76719C32.7268 7.76719 33.009 7.49237 33.009 7.15969C33.009 6.82701 32.7268 6.55219 32.3851 6.55219C32.0434 6.55219 31.7612 6.82701 31.7612 7.15969C31.7612 7.50683 32.0434 7.76719 32.3851 7.76719ZM32.3851 7.94076C31.9394 7.94076 31.5829 7.59362 31.5829 7.15969C31.5829 6.72576 31.9394 6.37861 32.3851 6.37861C32.8308 6.37861 33.1873 6.72576 33.1873 7.15969C33.1873 7.59362 32.8308 7.94076 32.3851 7.94076ZM30.4093 5.90129C30.751 5.90129 31.0332 5.62647 31.0332 5.29379C31.0332 4.96112 30.751 4.68629 30.4093 4.68629C30.0676 4.68629 29.7854 4.96112 29.7854 5.29379C29.7705 5.62647 30.0528 5.90129 30.4093 5.90129ZM30.4093 6.07486C29.9636 6.07486 29.6071 5.72772 29.6071 5.29379C29.6071 4.85987 29.9636 4.51272 30.4093 4.51272C30.855 4.51272 31.2115 4.85987 31.2115 5.29379C31.2077 5.49979 31.122 5.69631 30.9723 5.84199C30.8227 5.98767 30.6209 6.07115 30.4093 6.07486ZM50.7762 18.6733C50.6477 18.6039 50.5063 18.5602 50.3602 18.5445C50.2142 18.5288 50.0664 18.5415 49.9254 18.5819C49.7845 18.6222 49.6531 18.6895 49.5391 18.7796C49.425 18.8698 49.3305 18.9812 49.2609 19.1072C48.9638 19.6279 49.1569 20.2933 49.7066 20.5825C50.2562 20.8718 50.9396 20.6838 51.2367 20.1631C51.519 19.6134 51.311 18.9625 50.7762 18.6733ZM50.8653 18.5142C51.5041 18.8468 51.7269 19.6134 51.3853 20.2209C51.2164 20.513 50.9361 20.7285 50.6052 20.8205C50.2742 20.9126 49.9193 20.8739 49.6175 20.7127C49.468 20.6341 49.3361 20.5273 49.2296 20.3985C49.123 20.2697 49.0439 20.1215 48.9969 19.9626C48.9498 19.8037 48.9358 19.6372 48.9557 19.4729C48.9755 19.3087 49.0288 19.1499 49.1124 19.0059C49.4392 18.3984 50.2265 18.1815 50.8653 18.5142ZM16.6531 18.9481C16.4897 18.5142 16.2669 18.1959 15.7915 18.0658C16.0886 14.334 17.0839 12.6272 20.575 10.9204C20.8721 11.0217 20.8721 11.065 20.8721 11.1229C20.8721 11.6292 21.1692 11.875 21.5406 12.1499C20.9167 12.28 20.367 12.5549 20.367 13.2781C20.367 13.8856 20.783 14.2183 21.3326 14.3629C21.1543 14.6956 21.1246 14.8402 21.1543 15.2163C20.4413 15.549 20.2927 15.9829 20.471 16.6772C20.7384 17.6752 21.3623 17.7765 22.3428 17.5306C22.4913 19.0783 20.7235 19.6713 19.8619 18.5575C19.8619 18.4708 19.8471 18.384 19.8322 18.2827C19.7556 17.9999 19.5677 17.7578 19.3091 17.6089C19.0505 17.46 18.7421 17.4163 18.4506 17.4872C17.8416 17.6318 17.4702 18.2393 17.6336 18.8324C17.6782 19.0204 17.7821 19.1795 17.9158 19.3241C17.9753 19.8738 17.7227 20.3945 17.2176 20.6549C16.6977 20.9297 16.2966 20.814 15.7915 20.6404C16.6086 20.2643 17.0245 19.8883 16.6531 18.9481ZM16.7125 14.9125C16.3709 15.7515 16.1926 16.7061 16.0886 17.8777C16.5046 18.0513 16.7571 18.4563 16.9205 18.8613C17.1582 19.4833 17.1731 20.1197 16.4749 20.597C16.6828 20.6115 16.8908 20.5681 17.0839 20.4668C17.4702 20.2643 17.6782 19.8593 17.6633 19.4688C17.5289 19.3134 17.4324 19.1305 17.381 18.9336C17.291 18.5846 17.3468 18.215 17.5361 17.9059C17.7255 17.5968 18.033 17.3734 18.3912 17.2847C18.5697 17.2389 18.7558 17.2281 18.9387 17.2529C19.1215 17.2776 19.2975 17.3375 19.4564 17.429C19.6153 17.5205 19.754 17.6418 19.8644 17.7859C19.9748 17.9299 20.0548 18.0939 20.0996 18.2683L20.1442 18.4997C20.783 19.2518 22.0605 18.8613 22.1199 17.8777C20.9464 18.1091 20.4413 17.5306 20.2482 16.764C20.0699 16.1131 20.1442 15.4767 20.9167 15.0717C20.9167 14.8692 20.9464 14.6811 21.0058 14.522C20.7955 14.4362 20.6099 14.3017 20.4649 14.1304C20.32 13.959 20.2201 13.7558 20.1739 13.5384C19.5054 13.6831 18.7477 13.8711 18.1238 14.1025C17.4999 14.334 17.0394 14.6233 16.7125 14.9125ZM20.6195 11.1952C18.6735 12.1788 17.5296 13.1768 16.8611 14.5799C17.2176 14.3195 17.6039 14.117 18.0198 13.9579C18.6438 13.7265 19.4311 13.524 20.0996 13.3793V13.2925C20.0996 12.7284 20.4561 12.2367 20.9761 12.0342C20.7625 11.8022 20.6367 11.5062 20.6195 11.1952ZM47.5674 20.6838C47.0475 20.409 46.8098 19.9027 46.8692 19.3531C47.0029 19.2084 47.092 19.0493 47.1515 18.8613C47.1893 18.7207 47.1982 18.5742 47.1776 18.4303C47.1569 18.2863 47.1072 18.1478 47.0312 18.0227C46.9552 17.8976 46.8545 17.7884 46.7349 17.7015C46.6153 17.6145 46.4792 17.5515 46.3344 17.5161C45.7253 17.3715 45.1014 17.7186 44.9528 18.3116C44.9231 18.3984 44.9231 18.4852 44.9231 18.5865C44.0615 19.7002 42.2937 19.1072 42.4423 17.5595C43.4227 17.7909 44.0467 17.6897 44.3141 16.7061C44.5072 15.9974 44.3438 15.5634 43.6307 15.2452C43.6604 14.8547 43.6307 14.7245 43.4524 14.3918C43.9872 14.2327 44.418 13.9 44.418 13.2925C44.418 12.5693 43.8535 12.2945 43.2296 12.1643C43.601 11.8895 43.8981 11.6436 43.8981 11.1374C43.8981 11.094 43.8981 11.0506 43.8832 11.0072L44.1358 10.9349C47.612 12.6127 48.6816 14.3774 48.9787 18.0802C48.5033 18.2249 48.2953 18.5431 48.1171 18.9625C47.7457 19.9027 48.1765 20.2788 49.0084 20.6838C48.4884 20.8429 48.0873 20.9586 47.5674 20.6838ZM44.6409 13.5384C44.5517 13.9868 44.2249 14.3484 43.809 14.522C43.8684 14.6811 43.8981 14.8692 43.8981 15.0717C44.6706 15.4622 44.73 16.1131 44.5666 16.764C44.3586 17.5306 43.8684 18.1091 42.6948 17.8777C42.7542 18.8613 44.0318 19.2518 44.6706 18.4997C44.6706 18.4274 44.6854 18.3406 44.7152 18.2683C44.9083 17.545 45.6808 17.0966 46.4235 17.2847C46.6531 17.3393 46.8645 17.4501 47.0377 17.6067C47.2108 17.7632 47.34 17.9603 47.413 18.1791C47.4859 18.398 47.5002 18.6313 47.4544 18.8571C47.4086 19.0828 47.3043 19.2934 47.1515 19.4688C47.1069 20.1197 47.6714 20.6404 48.325 20.597C47.6268 20.1197 47.6268 19.4833 47.8794 18.8613C48.0428 18.4563 48.2953 18.0513 48.6964 17.8777C48.5924 16.7061 48.4142 15.737 48.0725 14.8981C47.7457 14.6233 47.2852 14.3195 46.7058 14.1025C46.067 13.8711 45.3094 13.6831 44.6409 13.5384ZM44.1506 11.1518C44.1358 11.4845 44.0021 11.7883 43.7941 12.0197C44.3141 12.2222 44.6706 12.714 44.6706 13.2781V13.3649C45.3688 13.5095 46.0967 13.6975 46.7504 13.9434C47.2109 14.117 47.5971 14.3484 47.9091 14.5654C47.2406 13.1768 46.0967 12.1643 44.1506 11.1518ZM40.0802 22.7956L38.1045 21.4649L40.4962 21.219L42.472 22.5497L40.0802 22.7956ZM36.3812 22.0145C35.9356 22.0145 35.579 21.6674 35.579 21.2334C35.579 20.7995 35.9356 20.4524 36.3812 20.4524C36.8269 20.4524 37.1834 20.7995 37.1834 21.2334C37.1983 21.6674 36.8269 22.0145 36.3812 22.0145ZM36.3812 21.8409C36.7229 21.8409 37.0051 21.5661 37.0051 21.2334C37.0051 20.9008 36.7229 20.6259 36.3812 20.6259C36.0395 20.6259 35.7573 20.9008 35.7573 21.2334C35.7573 21.5661 36.0395 21.8409 36.3812 21.8409ZM20.6493 23.8659C20.9909 23.8659 21.2732 23.5911 21.2732 23.2584C21.2732 22.9258 20.9909 22.6509 20.6493 22.6509C20.3076 22.6509 20.0253 22.9258 20.0253 23.2584C20.0253 23.5911 20.3076 23.8659 20.6493 23.8659ZM20.6493 24.025C20.2036 24.025 19.8471 23.6779 19.8471 23.244C19.8471 22.81 20.2036 22.4629 20.6493 22.4629C21.0949 22.4629 21.4515 22.81 21.4515 23.244C21.4515 23.6924 21.0949 24.025 20.6493 24.025ZM28.3741 21.8409C28.7158 21.8409 28.998 21.5661 28.998 21.2334C28.998 20.9008 28.7158 20.6259 28.3741 20.6259C28.0324 20.6259 27.7502 20.9008 27.7502 21.2334C27.7502 21.5661 28.0324 21.8409 28.3741 21.8409ZM28.3741 22.0145C27.9284 22.0145 27.5719 21.6674 27.5719 21.2334C27.5719 20.7995 27.9284 20.4524 28.3741 20.4524C28.8198 20.4524 29.1763 20.7995 29.1763 21.2334C29.1763 21.6674 28.8198 22.0145 28.3741 22.0145ZM44.1061 23.8659C44.4478 23.8659 44.73 23.5911 44.73 23.2584C44.73 22.9258 44.4478 22.6509 44.1061 22.6509C43.7644 22.6509 43.4821 22.9258 43.4821 23.2584C43.4821 23.5911 43.7644 23.8659 44.1061 23.8659ZM44.1061 24.025C43.6604 24.025 43.3039 23.6779 43.3039 23.244C43.3039 22.81 43.6604 22.4629 44.1061 22.4629C44.5517 22.4629 44.9083 22.81 44.9083 23.244C44.9083 23.6924 44.5517 24.025 44.1061 24.025ZM24.6751 22.7956L22.2834 22.5497L24.2591 21.219L26.6509 21.4649L24.6751 22.7956ZM34.3757 21.0454L32.3702 20.3222L30.3647 21.0454L32.3702 21.7686L34.3757 21.0454ZM34.8957 21.0454L32.3851 21.9566L29.8745 21.0454L32.3851 20.1341L34.8957 21.0454ZM255.247 38.8654V64.6118H250.256V62.2107C248.948 64.3659 246.69 65.1181 244.581 65.1181C238.847 65.1181 236.455 60.099 236.455 54.8629C236.455 48.2672 240.228 45.0416 244.462 45.0416C247.745 45.0416 249.275 46.8063 250.063 48.0213L250.137 38.8799H255.247V38.8654ZM241.684 55.2245C241.684 57.4809 242.59 60.9957 245.873 60.9957C249.112 60.9957 250.389 58.3488 250.389 55.5138C250.389 52.4763 249.528 49.3809 246.022 49.3809C242.769 49.3809 241.684 52.2159 241.684 55.2245ZM80.4872 41.845V50.5815H88.6577C91.2425 50.5815 93.9611 49.9306 93.9611 46.1409C93.9611 42.1633 91.0197 41.845 89.2816 41.845H80.4872ZM80.4872 53.5611V64.6118H76.9516V38.8654H89.0142C93.2926 38.8654 97.5858 40.3263 97.5858 45.7793C97.5858 49.569 95.6249 50.972 93.976 51.9411C95.4615 52.5486 96.9619 53.1995 97.0956 56.7866L97.3184 61.4586C97.3482 62.8906 97.5413 63.4258 98.6257 64.0332V64.6118H94.3028C93.7977 63.0352 93.6789 59.1154 93.6789 58.1463C93.6789 56.02 93.248 53.5466 89.0142 53.5466H80.4872V53.5611ZM103.781 53.7781H114.358C114.179 50.8563 112.946 48.1515 109.054 48.1515C106.098 48.1515 103.781 50.8563 103.781 53.7781ZM114.209 58.7538H117.388C117.284 59.6506 116.408 62.2975 114.016 63.8741C113.14 64.4527 111.907 65.1759 108.861 65.1759C103.513 65.1759 100.349 61.1982 100.349 55.7886C100.349 49.9595 103.186 45.3454 109.47 45.3454C114.967 45.3454 117.641 49.6413 117.641 56.2949H103.766C103.766 60.2002 105.623 62.4566 109.292 62.4566C112.322 62.4422 114.09 60.1424 114.209 58.7538ZM131.961 58.1318V55.0365C131.456 55.427 130.654 55.7163 126.703 56.2225C125.143 56.4395 122.632 56.9024 122.632 59.2745C122.632 61.314 123.687 62.5434 126.079 62.5434C129.05 62.5434 131.961 60.6486 131.961 58.1318ZM123.182 51.565H120.255C120.404 47.0811 123.405 45.3309 128.099 45.3309C129.629 45.3309 135.141 45.7649 135.141 50.5525V61.3574C135.141 62.1529 135.542 62.4711 136.195 62.4711C136.492 62.4711 136.879 62.3988 137.25 62.3265V64.6118C136.7 64.7565 136.225 64.9734 135.512 64.9734C132.689 64.9734 132.244 63.5415 132.14 62.1095C130.907 63.4402 128.976 65.1615 125.276 65.1615C121.785 65.1615 119.319 62.9774 119.319 59.7518C119.319 58.1752 119.795 54.5013 125.083 53.8649L130.357 53.214C131.13 53.1416 132.036 52.8524 132.036 50.9865C132.036 49.0193 130.58 47.9345 127.564 47.9345C123.91 47.9345 123.405 50.1186 123.182 51.565ZM142.732 38.8654V64.6118H139.553V38.8654H142.732ZM173.765 64.6263H168.669V53.0549C168.669 50.2199 167.407 49.2941 165.906 49.2941C163.366 49.2941 162.475 50.9431 162.475 53.1995V64.6408H157.379V53.1706C157.379 51.565 157.379 49.2941 154.334 49.2941C151.942 49.2941 151.184 50.9431 151.184 53.0259V64.6408H146.089V45.5479H150.962V48.3395C151.69 47.0811 153.101 45.0416 156.503 45.0416C159.296 45.0416 160.573 46.0541 161.88 48.0936C162.534 47.1534 163.945 45.0416 167.035 45.0416C170.809 45.0416 173.75 47.2258 173.75 51.4349V64.6263H173.765ZM187.625 57.7702V55.3402C187.105 55.7307 186.273 56.0634 184.164 56.3672C182.277 56.6854 180.717 57.1627 180.717 59.2311C180.717 60.9958 182.099 61.5309 183.079 61.5309C185.337 61.5309 187.625 60.099 187.625 57.7702ZM192.602 50.567V60.8945C192.602 63.1509 193.107 63.6572 193.731 63.8741V64.6263H188.234C187.937 63.7295 187.878 63.4402 187.759 62.3699C186.6 63.5559 184.966 65.1325 181.505 65.1325C178.593 65.1325 175.607 63.5125 175.607 59.5638C175.607 55.832 178.013 53.9372 181.252 53.4743L185.827 52.7945C186.63 52.6933 187.61 52.3606 187.61 51.2902C187.61 49.1784 185.575 49.0627 184.253 49.0627C181.712 49.0627 181.267 50.6104 181.133 51.7097H176.216C176.795 45.8661 180.91 45.0416 184.877 45.0416C187.625 45.0416 192.602 45.8661 192.602 50.567ZM199.717 55.2245C199.717 57.4809 200.624 60.9957 203.907 60.9957C207.145 60.9957 208.423 58.3488 208.423 55.5138C208.423 52.4763 207.546 49.3809 204.055 49.3809C200.817 49.3809 199.717 52.2159 199.717 55.2245ZM213.295 38.8654V64.6118H208.319V62.2107C207.011 64.3659 204.753 65.1181 202.644 65.1181C196.91 65.1181 194.518 60.099 194.518 54.8629C194.518 48.2672 198.276 45.0416 202.525 45.0416C205.808 45.0416 207.323 46.8063 208.126 48.0213L208.2 38.8799H213.295V38.8654ZM216.311 45.5479H221.184V48.8458C222.313 46.9075 223.471 45.0416 226.561 45.0416C226.888 45.0416 227.215 45.0706 227.542 45.114V50.2343C227.111 50.162 226.561 50.162 226.086 50.162C222.119 50.162 221.392 52.592 221.392 54.7038V64.6263H216.296V45.5479H216.311ZM234.227 45.5479V64.6263H229.131V45.5479H234.227ZM234.227 38.6195V43.2915H229.131V38.6195H234.227Z" fill="#DEDEDE"/>
</svg>
