<svg width="24" height="24" viewBox="0 0 24 24" fill="none" xmlns="http://www.w3.org/2000/svg">
<path d="M4.06661 21.2731L4.06601 21.2735C3.52827 21.5741 3.14892 21.537 2.93316 21.4094C2.71633 21.2813 2.5 20.9647 2.5 20.3499V8.98988C2.5 7.55602 3.67614 6.37988 5.11 6.37988H12.89C14.3239 6.37988 15.5 7.55602 15.5 8.98988V20.3499C15.5 20.9641 15.2841 21.2776 15.0671 21.4048C14.849 21.5327 14.4655 21.569 13.9216 21.2721L9.99463 19.0838C9.99437 19.0837 9.99411 19.0835 9.99386 19.0834C9.69486 18.9159 9.33246 18.8474 8.99875 18.8474C8.66413 18.8474 8.30135 18.9162 7.99984 19.0813L7.99984 19.0813L7.99661 19.0831L4.06661 21.2731Z" fill="#292D32" stroke="black"/>
<path d="M8.81489 3.87919C9.25665 3.05842 10.1238 2.5 11.1098 2.5H18.8898C20.3237 2.5 21.4998 3.67614 21.4998 5.11V16.47C21.4998 17.0843 21.2839 17.3981 21.0676 17.5252C20.851 17.6526 20.4706 17.689 19.9325 17.3928C19.9321 17.3926 19.9316 17.3923 19.9312 17.3921L18.005 16.3142C18.0049 16.3142 18.0049 16.3142 18.0049 16.3142C18.0034 16.3133 18.0017 16.3118 18.0004 16.3096C18.0002 16.3091 18 16.3087 17.9998 16.3085V8.99C17.9998 6.17386 15.706 3.88 12.8898 3.88H8.81984C8.81755 3.88 8.81616 3.87972 8.81489 3.87919Z" fill="#292D32" stroke="black"/>
</svg>
