<svg width="28" height="28" viewBox="0 0 28 28" fill="none" xmlns="http://www.w3.org/2000/svg">
<g clip-path="url(#clip0_609_6870)">
<path fill-rule="evenodd" clip-rule="evenodd" d="M2.4157 16.625C2.4157 21.6991 6.49268 25.8125 11.5219 25.8125H16.7254C21.7546 25.8125 25.8316 21.6991 25.8316 16.625V11.375C25.8316 6.30088 21.7546 2.1875 16.7254 2.1875H11.5219C6.49268 2.1875 2.4157 6.30088 2.4157 11.375V16.625ZM11.5219 0C5.29525 0 0.247559 5.09276 0.247559 11.375V16.625C0.247559 22.9072 5.29525 28 11.5219 28H16.7254C22.9521 28 27.9998 22.9072 27.9998 16.625V11.375C27.9998 5.09276 22.9521 0 16.7254 0H11.5219Z" fill="#999AA4"/>
<path d="M8.74078 14.4667C8.74078 14.1795 8.74078 13.3179 7.20087 12.1692C6.99555 11.9778 6.76969 11.3651 7.50885 10.4462C8.43279 9.29744 9.04876 9.58462 10.2807 10.159C11.5126 10.7333 12.1286 9.01026 12.1286 8.72308C12.1286 8.4359 12.4366 7 13.6685 7C14.9004 7 16.3252 7.25846 16.3252 8.40718C16.3252 9.5559 16.4403 10.4462 18.2882 9.87179C20.1361 9.29744 20.1361 9.58462 20.7521 11.0205C21.368 12.4564 20.7521 12.4564 19.8281 13.0308C19.6228 13.1265 19.2121 13.5477 19.2121 14.4667" stroke="#999AA4" stroke-width="2"/>
<path d="M19.1592 14.4667C19.1592 14.7166 19.2085 14.8871 20.6953 15.887C21.3098 16.4551 20.9177 17.2004 20.204 18.0003C19.3119 19.0002 18.8771 18.7503 17.6876 18.2503C16.4981 17.7504 16.2795 19.8221 16.2795 20.0721C16.2795 20.322 15.4332 21 14.2438 21C13.0543 21 12.1751 20.75 12.1751 19.7501C12.1751 18.7503 11.7112 17.6014 9.98399 18.2503C8.71385 18.7275 8.09941 18.7275 7.41716 17.5004C6.74198 16.286 6.90009 16.1028 7.79219 15.6029C7.99044 15.5196 8.71385 15.2666 8.71385 14.4667" stroke="#999AA4" stroke-width="2"/>
<path d="M14 16C15.1046 16 16 15.1046 16 14C16 12.8954 15.1046 12 14 12C12.8954 12 12 12.8954 12 14C12 15.1046 12.8954 16 14 16Z" stroke="#999AA4" stroke-width="2"/>
</g>
<defs>
<clipPath id="clip0_609_6870">
<rect width="28" height="28" fill="white"/>
</clipPath>
</defs>
</svg>
