<svg width="59" height="89" viewBox="0 0 59 89" fill="none" xmlns="http://www.w3.org/2000/svg">
<g clip-path="url(#clip0_273_6478)" filter="url(#filter0_d_273_6478)">
<path d="M38.041 43.8265C37.752 46.603 36.245 48.851 33.9109 49.9624C32.6031 50.5782 30.8565 50.9157 29.4556 50.8154C27.3003 50.715 25.2798 50.1187 23.3939 49.0597C22.7416 48.6586 21.7362 47.9066 20.9693 47.2046C20.7802 47.0039 20.7485 46.9036 20.8857 46.696C20.9459 46.5743 21.0806 46.3516 21.3566 45.9007C21.7776 45.2359 21.8226 45.1481 21.8674 45.0629C22.0021 44.8471 22.2072 44.8275 22.4217 44.9979C22.451 45.0314 22.451 45.0314 22.4672 45.0476C22.4958 45.0825 22.4958 45.0825 22.5727 45.1479C22.6521 45.2159 22.7097 45.2482 22.7238 45.2866C24.7447 47.0535 27.097 48.0566 29.4718 48.1569C32.7681 48.1073 35.1369 46.452 35.5733 43.8939C36.0226 41.1099 34.0581 38.6795 30.2165 37.3243C29.0063 36.9232 25.9605 35.5645 25.3982 35.1865C22.7653 33.464 21.5295 31.2033 21.7092 28.3996C21.9787 24.5249 25.2015 21.641 29.2748 21.6158C31.0828 21.6158 32.9052 22.0367 34.6342 22.8491C35.2578 23.1453 36.3707 23.8187 36.7409 24.1407C36.963 24.3245 37.0103 24.5249 36.8734 24.7495C36.8278 24.8866 36.6937 25.0907 36.4623 25.5282C36.1248 26.103 36.1122 26.127 36.051 26.2534C35.9308 26.4644 35.7591 26.4813 35.5304 26.3302C33.6824 24.9265 31.598 24.2239 29.3206 24.1739C26.4918 24.2239 24.3649 26.1071 24.2279 28.6875C24.1997 31.0054 25.7496 32.694 29.1061 33.9655C35.933 36.422 38.5371 39.2918 38.041 43.8265ZM29.6229 3.82712C34.0583 3.82712 37.6818 8.52754 37.8613 14.4201H21.3951C21.5535 8.52754 25.1876 3.82712 29.6229 3.82712ZM52.6117 15.5364C52.6117 14.9215 52.1855 14.4201 51.6417 14.4201H51.6062H40.9617C40.6924 6.64565 35.7133 0.431641 29.6229 0.431641C23.5288 0.431641 18.5627 6.64565 18.297 14.4201H7.60791C7.07183 14.4337 6.64645 14.9241 6.64645 15.5364C6.64645 15.5718 6.64645 15.5873 6.64645 15.6227H6.63428L8.15249 53.1221C8.15249 53.2235 8.17026 53.3258 8.17026 53.4477C8.17026 53.4714 8.17316 53.4788 8.17316 53.5234V53.5808L8.18437 53.6007C8.4129 56.2151 10.104 58.2994 12.4152 58.4014V58.4213H46.3203C46.3381 58.4213 46.3485 58.4213 46.3661 58.4213C46.3924 58.4213 46.3924 58.4213 46.4117 58.4213H46.482V58.4014C48.8261 58.3378 50.7454 56.2151 50.9283 53.572L50.9385 53.5234C50.9385 53.4986 50.9385 53.4716 50.9385 53.4477C50.9385 53.3713 50.9563 53.3228 50.9563 53.2434L52.6117 15.5873C52.6117 15.5735 52.6117 15.5522 52.6117 15.5364Z" fill="#DEDEDE"/>
<path d="M48.9485 71.145C49.2427 70.1053 50.0766 69.4414 51.058 69.4414C52.0199 69.4414 52.9214 70.1586 53.2158 71.145L53.2637 71.2009H48.9398L48.9485 71.145ZM54.198 72.6254C54.2113 72.6254 54.2113 72.6254 54.2326 72.6254C54.2463 72.6254 54.2463 72.6254 54.2463 72.6254C54.4425 72.6209 54.6135 72.4062 54.6135 72.1865C54.6135 72.1578 54.6127 72.133 54.6108 72.1309C54.6116 72.1309 54.6116 72.1309 54.6116 72.1056C54.6116 69.8299 53.0196 68.0231 51.0576 68.0231C49.1007 68.0231 47.5261 69.8299 47.5261 72.1056C47.5261 72.2806 47.5261 72.4539 47.5545 72.6247L47.5568 72.6254L47.5703 72.675C47.6667 73.4764 47.9675 74.213 48.458 74.8167C48.9979 75.4929 49.7334 75.9661 50.5671 76.1316H50.6162C50.6653 76.1316 50.6726 76.1316 50.7143 76.143C51.7934 76.2949 52.7665 76.1316 53.5597 75.6713C53.756 75.5548 53.9521 75.4182 54.0989 75.3086C54.1483 75.2549 54.197 75.2042 54.2465 75.1904C54.2465 75.1453 54.2716 75.1453 54.2917 75.1453C54.4555 74.9261 54.4837 74.8568 54.3554 74.6512C54.2465 74.432 54.1479 74.2689 54.0502 74.1034C54.0007 74.0496 53.993 73.9938 53.952 73.9713C53.952 73.94 53.952 73.94 53.9513 73.94C53.9466 73.94 53.9466 73.94 53.9408 73.94H53.9385C53.8361 73.7745 53.7558 73.7745 53.6576 73.8842C53.6526 73.8842 53.6082 73.94 53.6074 73.94C52.8233 74.7071 51.7442 74.9664 50.6854 74.7071C50.485 74.6512 50.3166 74.5839 50.1257 74.4879C49.4766 74.1034 48.9979 73.4459 48.8503 72.6789V72.6252H54.198V72.6254ZM40.5126 71.145C40.8068 70.1053 41.6392 69.4414 42.627 69.4414C43.594 69.4414 44.4844 70.1586 44.7856 71.145L44.8287 71.2009H40.5126V71.145ZM45.7708 72.6254C45.7855 72.6254 45.7855 72.6254 45.8067 72.6254C45.8098 72.6254 45.8098 72.6254 45.8098 72.6254C46.0061 72.6209 46.1879 72.4062 46.1879 72.1865C46.1879 72.1578 46.1871 72.133 46.1852 72.1309C46.1856 72.1309 46.1856 72.1309 46.1856 72.1056C46.1856 69.8299 44.5827 68.0231 42.6245 68.0231C40.6753 68.0231 39.0887 69.8299 39.0887 72.1056C39.0887 72.2806 39.0887 72.4539 39.1287 72.6247L39.1314 72.6254L39.1393 72.675C39.2374 73.4764 39.5316 74.213 40.0221 74.8167C40.5601 75.4929 41.2975 75.9661 42.1297 76.1316H42.1809C42.2279 76.1316 42.2468 76.1316 42.2781 76.143C43.3572 76.2949 44.3382 76.1316 45.1231 75.6713C45.3205 75.5548 45.5154 75.4182 45.6622 75.3086C45.7117 75.2549 45.7604 75.2042 45.8098 75.1904C45.8098 75.1453 45.8458 75.1453 45.8585 75.1453C46.0297 74.9261 46.0544 74.8568 45.9292 74.6512C45.8098 74.432 45.7117 74.2689 45.6136 74.1034C45.5645 74.0496 45.5637 73.9938 45.5154 73.9713C45.5154 73.94 45.5154 73.94 45.5154 73.94C45.5154 73.94 45.5154 73.94 45.5147 73.94H45.5127C45.4101 73.7745 45.3192 73.7745 45.221 73.8842L45.1712 73.94C44.3863 74.7071 43.3074 74.9664 42.2595 74.7071C42.059 74.6512 41.8855 74.5839 41.6899 74.4879C41.0498 74.1034 40.5601 73.4459 40.4154 72.6789L40.4145 72.6252H45.7708V72.6254ZM34.0855 74.8704C32.7622 74.8704 31.683 73.7206 31.6446 72.2405V72.1039C31.683 70.6531 32.7622 69.4793 34.0855 69.4793C35.4113 69.4793 36.5043 70.6904 36.5043 72.1872C36.5045 73.6652 35.4115 74.8704 34.0855 74.8704ZM34.0855 68.0385C33.2067 68.0385 32.3864 68.3675 31.7292 68.9714L31.6446 69.0603V68.2959C31.6446 68.0767 31.6183 68.0385 31.4267 68.0385H30.5864C30.3965 68.0385 30.3626 68.0769 30.3626 68.2959V80.3271C30.3626 80.5139 30.3965 80.5683 30.5864 80.5683H31.4267C31.6143 80.5683 31.6446 80.5139 31.6446 80.3271V75.3086L31.7292 75.3645C32.3868 75.9661 33.2067 76.2949 34.0855 76.2949C36.1452 76.2949 37.8129 74.4531 37.8129 72.1872C37.8129 69.8861 36.1452 68.0385 34.0855 68.0385ZM25.3434 74.7651C23.9935 74.7651 22.9145 73.5801 22.9145 72.106C22.9145 70.6324 23.9936 69.447 25.3434 69.447C26.6912 69.447 27.7717 70.6324 27.7717 72.106C27.7719 73.5799 26.6912 74.7651 25.3434 74.7651ZM25.3434 68.0231C23.2831 68.0231 21.6152 69.8299 21.6152 72.1112C21.6152 74.3785 23.2831 76.1857 25.3434 76.1857C27.4035 76.1857 29.0724 74.3785 29.0724 72.1112C29.0724 69.8299 27.4035 68.0231 25.3434 68.0231ZM17.0291 68.1004C16.2892 68.1004 15.5572 68.3643 14.9495 68.8715L14.8766 68.9408V63.3523C14.8766 63.1467 14.8218 63.0923 14.6572 63.0923H13.7674C13.5953 63.0923 13.5464 63.1467 13.5464 63.3523V76.0765C13.5464 76.2949 13.5955 76.3508 13.7674 76.3508H14.6572C14.8218 76.3508 14.8766 76.2854 14.8766 76.0765V71.9121C14.8954 70.6067 15.8516 69.5574 17.0293 69.5574C18.2285 69.5574 19.1869 70.6196 19.1869 71.9352V76.0765C19.1869 76.2949 19.2209 76.3508 19.4081 76.3508H20.2911C20.4872 76.3508 20.5114 76.2949 20.5114 76.0765V71.9116C20.5112 69.83 18.9416 68.1004 17.0291 68.1004ZM4.66718 74.0322L4.66505 74.041C4.53311 74.2479 4.47438 74.3226 4.44811 74.3783C4.34959 74.5416 4.36523 74.6268 4.52017 74.7606C4.86557 75.0892 5.33037 75.418 5.63734 75.5833C6.49564 76.0752 7.41634 76.2949 8.4006 76.3493C9.03405 76.3572 9.84251 76.1853 10.4315 75.9121C11.5104 75.3643 12.1959 74.3224 12.3125 73.0483C12.504 70.9644 11.2898 69.6668 8.16917 68.6197L8.16705 68.6191C6.70408 68.0766 6.01868 67.373 6.01848 66.4181C6.06601 65.338 6.95908 64.5165 8.16898 64.4697C9.1318 64.4764 9.9901 64.7852 10.8397 65.3934C11.0198 65.5032 11.0936 65.478 11.2164 65.2913C11.234 65.284 11.2655 65.2283 11.4341 64.955H11.4351C11.5837 64.734 11.6327 64.6262 11.6333 64.6262C11.7363 64.4069 11.7309 64.3174 11.54 64.1879C11.3634 64.0231 10.8612 63.7497 10.5781 63.6131C9.7691 63.2563 8.93552 63.0923 8.11701 63.0923C6.23736 63.1467 4.76686 64.5168 4.66892 66.3046C4.61792 67.5851 5.20615 68.6247 6.43305 69.3917C6.77672 69.6109 8.02815 70.1424 8.61658 70.3245C10.2843 70.8723 11.1652 71.8709 10.9742 73.0636C10.8219 74.1577 9.80503 74.8704 8.39307 74.9211C7.36457 74.8704 6.32274 74.4667 5.42773 73.7208C5.42368 73.7202 5.40146 73.6731 5.35432 73.6649C5.29772 73.6112 5.29772 73.6112 5.28149 73.6078C5.10802 73.4457 4.9894 73.4487 4.88798 73.6649C4.86519 73.6652 4.73228 73.906 4.66718 74.0322Z" fill="#DEDEDE"/>
</g>
<defs>
<filter id="filter0_d_273_6478" x="0" y="0" width="59" height="89" filterUnits="userSpaceOnUse" color-interpolation-filters="sRGB">
<feFlood flood-opacity="0" result="BackgroundImageFix"/>
<feColorMatrix in="SourceAlpha" type="matrix" values="0 0 0 0 0 0 0 0 0 0 0 0 0 0 0 0 0 0 127 0" result="hardAlpha"/>
<feOffset dy="4"/>
<feGaussianBlur stdDeviation="2"/>
<feComposite in2="hardAlpha" operator="out"/>
<feColorMatrix type="matrix" values="0 0 0 0 0 0 0 0 0 0 0 0 0 0 0 0 0 0 0.25 0"/>
<feBlend mode="normal" in2="BackgroundImageFix" result="effect1_dropShadow_273_6478"/>
<feBlend mode="normal" in="SourceGraphic" in2="effect1_dropShadow_273_6478" result="shape"/>
</filter>
<clipPath id="clip0_273_6478">
<rect width="51" height="81" fill="white" transform="translate(4)"/>
</clipPath>
</defs>
</svg>
