<svg width="984" height="660" viewBox="0 0 984 660" fill="none" xmlns="http://www.w3.org/2000/svg">
<g clip-path="url(#clip0_443_9485)">
<path d="M124.305 365.391H552.678V382.609H124.305V365.391Z" fill="#E4E8F0"/>
<path d="M109.006 44H537.379V61.2173H109.006V44Z" fill="#E4E8F0"/>
<path d="M109.006 185.565H537.379V202.782H109.006V185.565Z" fill="#E4E8F0"/>
<path d="M311.717 382.608V47.8262H328.929V382.608H311.717Z" fill="#E4E8F0"/>
<path d="M74.7517 18.6934C55.4042 44.4196 34.4444 29.4127 26.3828 18.6934V637.043H169.291V18.6934C151.702 44.4196 131.182 29.4127 123.121 18.6934C97.8369 50.8512 75.8511 19.6121 74.7517 18.6934Z" fill="#EEF3FF"/>
<path fill-rule="evenodd" clip-rule="evenodd" d="M100.035 33.1787C106.972 32.9294 114.871 29.1861 123.121 18.6934C123.774 19.5625 124.51 20.4599 125.319 21.3615V637.043H100.035V33.1787ZM47.2695 32.5438C55.3894 33.9735 64.6647 31.3203 73.6526 20.1095V637.043H47.2695V32.5438ZM147.305 637.043V32.8981C154.423 32.9188 162.102 29.2087 169.291 18.6934V637.043H147.305Z" fill="#E8EBF2"/>
<path d="M514.468 18.6934C495.12 44.4196 474.16 29.4127 466.099 18.6934V637.043H609.007V18.6934C591.418 44.4196 570.897 29.4127 562.837 18.6934C537.552 50.8512 515.567 19.6121 514.468 18.6934Z" fill="#EEF3FF"/>
<path fill-rule="evenodd" clip-rule="evenodd" d="M539.752 33.1787C546.688 32.9294 554.588 29.1861 562.837 18.6934C563.491 19.5625 564.226 20.4599 565.035 21.3615V637.043H539.752V33.1787ZM486.986 32.5438C495.105 33.9735 504.381 31.3203 513.369 20.1095V637.043H486.986V32.5438ZM587.02 637.043V32.8981C594.138 32.9188 601.818 29.2087 609.008 18.6934V637.043H587.02Z" fill="#E8EBF2"/>
<path d="M13.1915 14.2958C13.1915 22.1911 10.2385 28.5916 6.59574 28.5916C2.95302 28.5916 0 22.1911 0 14.2958C0 6.40043 2.95302 0 6.59574 0C10.2385 0 13.1915 6.40043 13.1915 14.2958Z" fill="#E4E8F0"/>
<path d="M646.383 14.2958C646.383 22.1911 643.431 28.5916 639.787 28.5916C636.145 28.5916 633.191 22.1911 633.191 14.2958C633.191 6.40043 636.145 0 639.787 0C643.431 0 646.383 6.40043 646.383 14.2958Z" fill="#E4E8F0"/>
<path d="M10.9927 8.79785H635.391V17.5953H10.9927V8.79785Z" fill="#EEF3FF"/>
<path d="M416.897 324.741C433.727 231.385 370.681 214.104 338.49 219.524L253.389 260.653C228.912 324.166 215.141 391.695 260.083 490.218L423.591 584.913L491.482 558.13L475.225 530.391L498.173 555.26L520.166 546.652C493.074 526.246 400.069 418.097 416.897 324.741Z" fill="#FFCA63"/>
<path d="M416.897 324.741C433.727 231.385 370.681 214.104 338.49 219.524L253.389 260.653C228.912 324.166 215.141 391.695 260.083 490.218L423.591 584.913L491.482 558.13L475.225 530.391L498.173 555.26L520.166 546.652C493.074 526.246 400.069 418.097 416.897 324.741Z" fill="#FFCA63"/>
<path d="M276.338 479.217C254.92 450.139 255.94 365.71 259.128 327.13C314.905 304.173 420.149 275.479 394.907 344.349C369.664 413.217 425.186 513.333 456.103 554.783L369.089 568.173C347.098 550.638 297.758 508.296 276.338 479.217Z" fill="#F4B53B"/>
<path d="M333.71 434.738C321.47 428.617 331.159 408.913 333.71 400.305C319.366 383.405 292.21 355.921 298.331 381.174C304.45 406.426 280.163 413.695 271.558 423.259C301.391 448.513 325.742 447.811 333.71 434.738Z" fill="#FF8982"/>
<path d="M371.002 450.522C358.762 432.922 337.534 429.796 332.754 432.347L351.878 545.218C353.152 563.391 360.673 600.696 380.563 604.522C400.452 608.348 465.664 602.608 482.874 600.696V569.131L413.072 560.521C405.423 533.74 383.24 468.123 371.002 450.522Z" fill="#362C04"/>
<path d="M475.821 577.756C471.817 586.169 475.823 600.698 484.829 604.522L525.869 600.698C526.536 594.964 517.26 577.758 510.855 573.934C502.847 569.154 480.826 567.242 475.821 577.756Z" fill="#FBBDAA"/>
<path d="M475.821 577.756C471.817 586.169 475.823 600.698 484.829 604.522L525.869 600.698C526.536 594.964 517.26 577.758 510.855 573.934C502.847 569.154 480.826 567.242 475.821 577.756Z" fill="#FBBDAA"/>
<path d="M487.657 589.218L498.173 604.522L504.867 595.914L487.657 589.218Z" fill="#FF8982"/>
<mask id="mask0_443_9485" style="mask-type:alpha" maskUnits="userSpaceOnUse" x="332" y="431" width="155" height="174">
<path d="M371.002 450.522C358.762 432.922 337.534 429.796 332.754 432.347L351.878 545.218C353.152 563.391 360.673 600.696 380.563 604.522C400.452 608.348 462.795 572.639 486.699 552.871L474.269 517.479L409.248 552.871C401.598 526.088 383.239 468.123 371.002 450.522Z" fill="#3146CC"/>
</mask>
<g mask="url(#mask0_443_9485)">
<path d="M383.432 561.479C388.212 536.608 371.002 481.131 371.002 479.217L349.009 537.565L323.191 587.304C346.14 591.768 355.702 601.27 371.002 599.738C386.299 598.209 414.986 590.174 428.371 581.566C384.387 598.782 440.803 567.217 438.89 562.435L383.432 561.479Z" fill="#213094"/>
</g>
<path d="M374.827 490.697C364.069 447.651 340.722 429.002 330.841 432.828L329.885 437.608H300.242L268.688 419.436C218.966 435.504 241.917 563.391 216.099 616.957H371.958C371.958 547.13 386.301 536.608 374.827 490.697Z" fill="#66540E"/>
<path d="M442.581 555.537C437.188 546.172 427.972 545.413 424.038 546.203C408.786 559.646 407.346 572.352 408.531 577.023L403.955 580.098C405.581 582.22 409.485 587.381 412.09 591.039C415.348 595.612 435.386 594.943 442.568 591.714C448.314 589.129 449.709 584.551 449.686 582.584L462.495 599.301C466.765 604.873 470.393 606.7 473.163 603.204C475.378 600.407 453.697 570.261 442.581 555.537Z" fill="#FBBDAA"/>
<path d="M449.869 583.023L449.948 582.165L439.021 566.576C439.746 568.85 441.332 571.745 442.962 574.719C445.639 579.603 448.431 584.7 447.711 587.596C447.696 587.657 447.68 587.715 447.667 587.772C449.036 586.042 449.664 584.283 449.869 583.023Z" fill="#FF8982"/>
<path d="M432.294 594.2C433.35 594.072 434.385 593.919 435.382 593.743C440.732 589.912 444.702 582.284 435.397 571.814C439.13 576.259 443.254 587.658 432.294 594.2Z" fill="#FF8982"/>
<path d="M416.611 593.81C418.353 594.258 420.488 594.519 422.803 594.613C429.674 593.125 436.381 588.503 431.179 577.257L428.068 571.656C429.62 574.79 431.26 581.679 430.293 585.89C428.956 591.7 422.556 592.791 417.825 593.598C417.406 593.67 416.999 593.738 416.611 593.81Z" fill="#FF8982"/>
<path d="M409.331 577.136C409.346 577.221 409.365 577.3 409.382 577.379L404.79 580.617C404.823 580.662 404.857 580.707 404.891 580.754L405.206 580.69C407.276 580.26 409.395 581 410.739 582.619C412.115 584.283 414.011 585.418 416.123 585.848L419.585 586.551L409.331 577.136Z" fill="#FF8982"/>
<path d="M330.841 430.912C308.657 446.217 284.625 427.086 275.382 415.608C271.558 412.738 267.733 417.52 266.777 420.39C265.819 423.26 291.545 442.719 301.198 445.261C319.366 450.043 343.271 436.65 339.446 430.912C336.387 426.321 332.434 428.998 330.841 430.912Z" fill="white"/>
<path d="M249.565 312.782C250.656 299.678 266.594 297.309 271.097 304.119C288.519 230.05 319.994 240.651 362.361 245.807C404.727 250.96 406.243 300.892 397.574 334.152C388.902 367.411 371.334 416.153 321.125 405.41C280.956 396.816 275.382 359.653 275.382 340.522C266.257 338.225 247.653 335.74 249.565 312.782Z" fill="#FFAB94"/>
<mask id="mask1_443_9485" style="mask-type:alpha" maskUnits="userSpaceOnUse" x="249" y="242" width="153" height="165">
<path d="M249.565 312.783C250.656 299.68 266.594 297.311 271.097 304.12C288.519 230.052 319.994 240.653 362.361 245.809C404.727 250.962 406.243 300.894 397.574 334.152C388.902 367.413 371.334 416.155 321.125 405.412C280.956 396.818 275.382 359.655 275.382 340.524C266.257 338.227 247.653 335.742 249.565 312.783Z" fill="#FFAB94"/>
</mask>
<g mask="url(#mask1_443_9485)">
<g filter="url(#filter0_f_443_9485)">
<path d="M305.98 344.826C305.98 361.203 292.708 374.479 276.338 374.479C259.968 374.479 246.695 361.203 246.695 344.826C246.695 328.45 259.968 315.175 276.338 315.175C292.708 315.175 305.98 328.45 305.98 344.826Z" fill="#FF8982"/>
</g>
<g filter="url(#filter1_f_443_9485)">
<path d="M434.109 373.523C434.109 389.899 420.839 403.174 404.467 403.174C388.097 403.174 374.826 389.899 374.826 373.523C374.826 357.146 388.097 343.87 404.467 343.87C420.839 343.87 434.109 357.146 434.109 373.523Z" fill="#FF8982"/>
</g>
</g>
<path d="M353.791 374.955C338.492 375.911 326.697 371.766 322.235 367.303C321.28 372.085 320.352 383.026 328.929 385.477C342.315 389.303 349.009 380.695 353.791 374.955Z" fill="white"/>
<path d="M351.175 378.042C337.208 379.596 326.134 374.001 321.76 370.565C321.267 375.908 321.968 383.488 328.929 385.478C340.049 388.657 346.551 383.253 351.175 378.042Z" fill="#DE4444"/>
<path d="M355.703 303.772C396.245 303.006 407.337 251.162 387.257 248.294C367.703 233.667 362.397 212.901 334.668 212.901C262.951 205.249 233.31 278.424 231.398 348.25L241.917 341.556C241.917 341.556 258.809 346.261 258.172 334.783C239.048 328.088 246.698 310.468 253.391 300.902C258.745 293.25 267.733 299.627 271.558 303.772C315.926 306.832 351.241 285.279 363.352 274.121C367.943 284.834 360.165 298.352 355.703 303.772Z" fill="#FFCA63"/>
<path d="M295.462 196.812C262.57 208.95 247.972 239.623 245.74 254.436L280.163 264L407.336 234.349C399.687 192.262 336.579 181.641 295.462 196.812Z" fill="#66540E"/>
<path d="M245.949 253.949L240.959 281.217L299.994 260.01L413.075 253.949L407.337 232.435C359.445 213.044 280.316 238.799 245.949 253.949Z" fill="#BEAB32"/>
<path d="M218.968 291.737C164.413 339.655 206.538 383.565 231.398 383.565C229.102 355.253 234.904 316.289 238.092 300.347C305.025 258.26 414.03 262.086 415.941 267.824C417.855 273.564 419.766 313.737 415.941 326.172C413.223 335.01 414.03 350.403 414.986 357.737C426.779 348.81 480.771 312.206 476.18 275.476C470.444 229.563 297.375 222.869 218.968 291.737Z" fill="#66540E"/>
<path d="M414.986 330.956C434.651 313.9 455.143 296.996 445.584 280.261C437.345 265.837 397.496 261.123 351.72 266.118C387.421 262.576 414.99 264.962 415.942 267.823C417.855 273.563 419.767 313.736 415.942 326.17C414.863 329.68 414.986 330.956 414.986 330.956Z" fill="#362C04"/>
<path d="M250.703 293.184C245.989 295.439 241.454 297.828 237.135 300.347C207.494 336.696 209.04 354.654 230.876 368.507C230.984 342.776 235.44 313.602 238.091 300.346C242.151 297.792 246.368 295.407 250.703 293.184Z" fill="#362C04"/>
<path d="M359.818 336.776C358.393 341.294 359.326 345.618 361.905 346.431C364.482 347.245 367.726 344.241 369.153 339.721C370.578 335.203 369.645 330.881 367.066 330.066C364.489 329.254 361.245 332.256 359.818 336.776Z" fill="#2D2424"/>
<path d="M359.818 336.776C358.393 341.294 359.326 345.618 361.905 346.431C364.482 347.245 367.726 344.241 369.153 339.721C370.578 335.203 369.645 330.881 367.066 330.066C364.489 329.254 361.245 332.256 359.818 336.776Z" fill="#2D2424"/>
<path d="M323.734 330.232C322.773 334.872 324.139 339.078 326.786 339.626C329.432 340.175 332.356 336.858 333.318 332.217C334.277 327.577 332.91 323.371 330.264 322.823C327.617 322.276 324.693 325.593 323.734 330.232Z" fill="#2D2424"/>
<path fill-rule="evenodd" clip-rule="evenodd" d="M376.061 319.195C378.048 321.545 378.548 324.717 378.056 326.859C377.82 327.888 378.463 328.916 379.492 329.152C380.523 329.387 381.549 328.744 381.784 327.715C382.529 324.468 381.792 320.046 378.981 316.725C376.067 313.278 371.156 311.269 364.106 312.512C363.066 312.695 362.372 313.687 362.555 314.728C362.738 315.769 363.729 316.463 364.77 316.28C370.732 315.229 374.18 316.97 376.061 319.195ZM338.253 308.914C338.762 309.84 339.925 310.178 340.85 309.669C341.776 309.159 342.113 307.996 341.604 307.07C341.209 306.35 340.228 305.258 338.939 304.224C337.597 303.15 335.747 301.999 333.491 301.287C328.837 299.818 322.791 300.327 316.399 306.238C315.623 306.955 315.576 308.166 316.292 308.941C317.01 309.718 318.218 309.765 318.995 309.048C324.43 304.023 329.057 303.898 332.339 304.935C334.051 305.475 335.487 306.363 336.549 307.211C337.076 307.634 337.497 308.037 337.8 308.365C338.123 308.714 338.249 308.907 338.253 308.914Z" fill="#2D2424"/>
<path fill-rule="evenodd" clip-rule="evenodd" d="M349.463 339.483C348.673 339.532 348.072 340.213 348.121 341.005C348.177 341.918 348.6 343.7 349.542 346.31C350.504 348.965 352.044 352.58 354.419 357.2C355.495 359.291 355.529 360.656 355.226 361.537C354.924 362.417 354.164 363.162 352.886 363.747C350.274 364.946 346.264 365.118 343.269 364.839C342.481 364.765 341.781 365.346 341.708 366.134C341.634 366.924 342.215 367.622 343.003 367.695C346.155 367.99 350.777 367.873 354.083 366.355C355.767 365.583 357.288 364.361 357.938 362.47C358.589 360.581 358.247 358.371 356.971 355.887C354.641 351.356 353.152 347.854 352.24 345.333C351.312 342.766 351.014 341.309 350.984 340.826C350.935 340.036 350.255 339.434 349.463 339.483Z" fill="#F3724E"/>
<path d="M568.933 340.523C604.314 340.523 632.997 311.829 632.997 276.435C632.997 241.042 604.314 212.349 568.933 212.349C533.55 212.349 504.867 241.042 504.867 276.435C504.867 287.579 507.71 298.06 512.711 307.189L497.218 335.74L530.789 327.93C541.445 335.842 554.642 340.523 568.933 340.523Z" fill="#47BB8E"/>
<path fill-rule="evenodd" clip-rule="evenodd" d="M599.475 257.583C600.905 259.137 600.807 261.556 599.252 262.99L562.918 296.467C561.444 297.824 559.172 297.815 557.711 296.444L542.412 282.096C540.87 280.651 540.793 278.23 542.237 276.687C543.683 275.147 546.103 275.068 547.643 276.514L560.35 288.43L594.07 257.361C595.625 255.929 598.044 256.028 599.475 257.583Z" fill="white"/>
<path d="M230.441 440.957C206.61 472.026 237.372 582.293 242.871 597.828C252.353 624.611 375.783 606.436 410.206 577.741C402.873 563.851 427.416 545.218 427.416 545.218L293.549 563.393C287.439 528.362 287.813 484.004 283.988 458.176C279.571 428.353 254.274 409.886 230.441 440.957Z" fill="#362C04"/>
<path d="M663.763 606.953C663.763 604.841 662.051 603.127 659.938 603.127H409.25C407.136 603.127 405.425 604.841 405.425 606.953V613.93C405.425 616.042 407.136 617.756 409.25 617.756H659.938C662.051 617.756 663.763 616.042 663.763 613.93V606.953Z" fill="#697DB5"/>
<path d="M744.234 487.131C746.502 482.068 742.799 476.349 737.253 476.349H544.584C541.488 476.349 538.698 478.214 537.515 481.074L480.978 617.753H680.745C683.759 617.753 686.493 615.982 687.725 613.231L744.234 487.131Z" fill="#8397CC"/>
<path fill-rule="evenodd" clip-rule="evenodd" d="M549.475 476.349L685.701 608.002L678.17 617.753H646.795L527.341 505.673L537.516 481.074C538.698 478.214 541.488 476.349 544.583 476.349H549.475Z" fill="url(#paint0_linear_443_9485)"/>
<path d="M610.068 546.998C610.068 552.276 614.347 556.555 619.624 556.555C624.902 556.555 629.179 552.276 629.179 546.998C629.179 541.718 624.902 537.439 619.624 537.439C614.347 537.439 610.068 541.718 610.068 546.998Z" fill="#5B73B3"/>
<path d="M872.044 454.348C875.232 446.377 885.622 432.54 905.512 440.958C901.05 447.654 888.109 459.706 872.044 454.348Z" fill="#EFF2FA"/>
<path d="M864.395 485.913C864.076 483.043 861.718 477.112 854.834 476.349C854.515 479.537 855.98 485.913 864.395 485.913Z" fill="#EFF2FA"/>
<path d="M847.182 501.217C844.952 498.666 836.856 494.714 822.322 499.305C824.873 504.088 833.414 511.165 847.182 501.217Z" fill="#EFF2FA"/>
<path d="M814.673 449.566C810.848 444.145 805.495 430.626 814.673 419.913C821.685 426.609 831.503 441.914 814.673 449.566Z" fill="#EFF2FA"/>
<path d="M886.388 499.305C885.751 503.131 888.682 511.74 905.512 515.566C908.697 508.232 909.336 494.714 886.388 499.305Z" fill="#EFF2FA"/>
<path fill-rule="evenodd" clip-rule="evenodd" d="M869.205 473.857C865.377 501.86 863.756 532.39 863.437 551.945L859.614 551.882C859.933 532.22 861.561 501.532 865.416 473.339C867.343 459.245 869.831 445.726 873.006 434.502C876.157 423.365 880.065 414.172 885.008 409.022L887.766 411.672C883.528 416.088 879.818 424.472 876.687 435.543C873.579 446.529 871.121 459.852 869.205 473.857ZM846.66 490.966C851.705 506.508 855.12 523.499 856.724 534.417L852.941 534.973C851.358 524.211 847.985 507.438 843.022 492.147C840.539 484.5 837.678 477.28 834.471 471.385C831.24 465.445 827.774 461.066 824.185 458.843L826.198 455.59C830.639 458.341 834.496 463.425 837.831 469.558C841.19 475.733 844.138 483.197 846.66 490.966ZM875.865 544.581C875.867 544.833 875.869 545.047 875.869 545.218H872.044C872.044 545.05 872.042 544.841 872.041 544.59C872.022 541.281 871.961 530.872 874.116 520.44C875.273 514.83 877.094 509.086 879.994 504.396C882.906 499.684 886.983 495.92 892.637 494.574L893.523 498.296C889.136 499.341 885.803 502.273 883.247 506.408C880.678 510.566 878.974 515.824 877.862 521.213C875.794 531.228 875.848 541.266 875.865 544.581Z" fill="#E4E8F0"/>
<path d="M844.587 531.826L808.935 631.305H919.853L886.392 531.826H844.587Z" fill="#E8EBF2"/>
<path d="M0 617.913H982.961V660H0V617.913Z" fill="#EFF2FA"/>
<path d="M874.914 364.438C886.601 355.231 898.867 360.115 897.022 378.53C896.743 381.314 896.416 383.701 896.06 385.745C901.237 375.206 909.095 364.94 917.324 369.937C928.596 376.784 919.563 390.254 907.026 396.69C914.881 395.555 923.565 395.37 925.936 398.787C931.473 406.767 921.629 428.251 907.48 420.273C906.145 419.518 904.911 418.736 903.77 417.932C908.059 425.932 909.12 433.703 900.098 435.619C883.706 439.098 882.312 425.6 883.574 414.01C880.872 423.62 876.18 433.929 869.232 431.99C854.847 427.976 859.196 412.735 873.128 403.493C861.068 408.902 846.809 412.907 847.19 401.857C847.806 384.056 861.809 381.6 877.572 388.351C869.946 377.291 867.701 370.118 874.914 364.438Z" fill="#EEF3FF"/>
<path d="M904.554 399.826C904.554 405.108 897.704 409.39 889.255 409.39C880.806 409.39 873.956 405.108 873.956 399.826C873.956 394.544 880.806 390.262 889.255 390.262C897.704 390.262 904.554 394.544 904.554 399.826Z" fill="#E8EBF2"/>
<path d="M833.637 430.386C823.897 422.713 813.674 426.783 815.212 442.129C815.446 444.448 815.717 446.439 816.013 448.142C811.7 439.36 805.152 430.803 798.296 434.968C788.9 440.673 796.428 451.9 806.876 457.263C800.331 456.317 793.093 456.164 791.117 459.009C786.503 465.66 794.706 483.563 806.498 476.914C807.612 476.286 808.639 475.634 809.589 474.964C806.015 481.63 805.133 488.106 812.648 489.703C826.309 492.602 827.471 481.353 826.419 471.695C828.67 479.703 832.581 488.295 838.372 486.679C850.359 483.333 846.734 470.633 835.124 462.932C845.175 467.439 857.057 470.776 856.738 461.568C856.225 446.733 844.557 444.687 831.422 450.314C837.776 441.097 839.646 435.119 833.637 430.386Z" fill="#EEF3FF"/>
<path d="M808.935 459.877C808.935 464.278 814.643 467.848 821.683 467.848C828.726 467.848 834.434 464.278 834.434 459.877C834.434 455.474 828.726 451.904 821.683 451.904C814.643 451.904 808.935 455.474 808.935 459.877Z" fill="#E8EBF2"/>
<path d="M917.782 455.255C908.042 447.582 897.819 451.653 899.357 466.999C899.589 469.318 899.863 471.308 900.158 473.011C895.845 464.229 889.297 455.673 882.439 459.837C873.046 465.543 880.573 476.769 891.022 482.132C884.477 481.185 877.238 481.033 875.263 483.88C870.648 490.529 878.85 508.434 890.643 501.783C891.755 501.155 892.784 500.503 893.734 499.835C890.16 506.499 889.276 512.977 896.794 514.572C910.455 517.472 911.616 506.222 910.564 496.565C912.815 504.572 916.724 513.165 922.515 511.549C934.504 508.204 930.879 495.504 919.269 487.802C929.32 492.309 941.202 495.647 940.883 486.437C940.371 471.602 928.702 469.556 915.567 475.183C921.92 465.968 923.791 459.99 917.782 455.255Z" fill="#EEF3FF"/>
<path d="M893.08 484.745C893.08 489.148 898.788 492.716 905.829 492.716C912.869 492.716 918.577 489.148 918.577 484.745C918.577 480.342 912.869 476.774 905.829 476.774C898.788 476.774 893.08 480.342 893.08 484.745Z" fill="#E8EBF2"/>
</g>
<defs>
<filter id="filter0_f_443_9485" x="226.695" y="295.175" width="99.2852" height="99.3037" filterUnits="userSpaceOnUse" color-interpolation-filters="sRGB">
<feFlood flood-opacity="0" result="BackgroundImageFix"/>
<feBlend mode="normal" in="SourceGraphic" in2="BackgroundImageFix" result="shape"/>
<feGaussianBlur stdDeviation="10" result="effect1_foregroundBlur_443_9485"/>
</filter>
<filter id="filter1_f_443_9485" x="354.826" y="323.87" width="99.2832" height="99.3037" filterUnits="userSpaceOnUse" color-interpolation-filters="sRGB">
<feFlood flood-opacity="0" result="BackgroundImageFix"/>
<feBlend mode="normal" in="SourceGraphic" in2="BackgroundImageFix" result="shape"/>
<feGaussianBlur stdDeviation="10" result="effect1_foregroundBlur_443_9485"/>
</filter>
<linearGradient id="paint0_linear_443_9485" x1="541.909" y1="489.758" x2="651.62" y2="606.745" gradientUnits="userSpaceOnUse">
<stop stop-color="#8DA0D5"/>
<stop offset="1" stop-color="#8397CC"/>
</linearGradient>
<clipPath id="clip0_443_9485">
<rect width="984" height="660" fill="white"/>
</clipPath>
</defs>
</svg>
