<svg width="329" height="57" viewBox="0 0 329 57" fill="none" xmlns="http://www.w3.org/2000/svg">
<g clip-path="url(#clip0_541_6542)">
<path d="M26.6349 7.79923C31.1167 7.79923 31.8321 2.97715 31.8321 0C31.8321 0 29.8981 0.882779 25.6897 0.882779H6.33466C-1.18866 0.882779 0.0860533 9.6636 0.0860533 9.6636C0.0860533 9.6636 0.46878 7.6583 5.38799 7.82677H12.3567V38.9459C12.3567 42.6213 19.0536 42.6213 19.0536 42.6213V7.79599L26.6349 7.79923ZM43.5622 27.1361C42.3438 30.1214 33.3396 28.5664 33.3396 33.6153C33.3396 36.1421 35.1111 37.5724 38.2634 37.5724C40.0733 37.5532 41.8678 37.2247 43.5747 36.6005L43.5622 27.1361ZM43.1796 21.3422C43.1796 19.2219 42.072 17.3835 37.8682 17.3835C33.2348 17.3835 28.975 19.0972 28.975 23.8626C27.6572 22.2852 26.9313 20.2688 26.93 18.182C26.93 13.0765 33.3442 11.7029 37.826 11.7029C45.8852 11.7029 50.2732 15.2373 50.2732 21.6321V42.6893C48.9542 42.0666 47.517 41.7594 46.0679 41.7902C43.3576 41.7902 40.5894 42.7622 37.4886 42.7622C31.7384 42.7622 26.3114 40.5268 26.3114 33.6996C26.252 23.0559 40.9644 25.8291 43.1826 21.3325L43.1796 21.3422ZM74.3851 22.3756V38.7791C74.3851 42.3119 81.2007 42.4528 81.2007 42.4528V21.2531C81.2007 13.7357 75.449 11.7839 69.8611 11.7839C66.8712 11.7839 64.3826 13.0473 61.6739 13.0473C59.9576 13.0503 58.2668 12.6165 56.75 11.7839V38.7791C56.75 42.4528 63.275 42.4528 63.275 42.4528V18.4088C65.1887 17.8777 67.1559 17.5814 69.1361 17.526C73.0651 17.526 74.3929 19.1863 74.3929 22.3481L74.3851 22.3756ZM87.6634 38.7791C87.6634 42.4528 94.479 42.4528 94.479 42.4528V15.8301C94.479 12.1548 88.2303 12.1548 87.6634 12.1548V38.7791ZM94.7367 4.62932C94.7367 3.86944 94.5193 3.12659 94.1122 2.49475C93.705 1.86293 93.1263 1.37048 92.4493 1.07968C91.7723 0.788876 91.0272 0.712789 90.3085 0.861038C89.5897 1.00929 88.9294 1.37521 88.4112 1.91254C87.8929 2.44988 87.54 3.13447 87.3972 3.87977C87.2542 4.62506 87.3276 5.39759 87.6079 6.09965C87.8884 6.80169 88.3634 7.40175 88.9727 7.82392C89.5821 8.24611 90.2984 8.47144 91.0314 8.47144C91.9984 8.42128 92.9131 8.0004 93.5978 7.29044C94.2824 6.58049 94.6884 5.63209 94.7367 4.62932ZM122.851 38.8746C122.851 42.5483 129.546 42.5483 129.546 42.5483V4.35559C129.546 0.680307 122.851 0.680307 122.851 0.680307V18.5238H108.368V4.38959C108.368 0.715942 101.841 0.715942 101.841 0.715942V38.8941C101.841 42.5678 108.368 42.5678 108.368 42.5678V24.2028H122.851V38.8746ZM142.103 32.5057V15.9969C142.103 12.4642 135.407 12.3233 135.407 12.3233V33.3804C135.407 40.7196 140.884 42.7347 146.584 42.7347C149.575 42.7347 152.061 41.5862 154.609 41.5862C156.313 41.5786 157.997 41.9713 159.533 42.7347V15.9969C159.533 12.3233 152.838 12.3233 152.838 12.3233V36.3672C151.016 36.8961 149.139 37.1943 147.248 37.2548C143.432 37.2548 142.137 35.533 142.137 32.5478L142.103 32.5057ZM172.474 36.4629C173.947 37.0966 175.533 37.3975 177.126 37.3456C181.606 37.3456 183.267 35.6238 183.267 31.9581V23.7442C183.267 20.0691 180.943 18.3553 178.343 18.3553C175.353 18.3553 172.482 20.3606 172.482 23.0024V36.4824L172.474 36.4629ZM189.989 33.3853C189.989 39.7542 185.615 42.7394 177.321 42.7394C174.724 42.7394 173.224 42.1645 171.073 41.8551C169.693 41.7417 167.666 41.5732 165.875 42.7394V0.971868C166.43 0.971868 172.572 0.971868 172.572 5.22055V14.6817C172.572 14.6817 174.617 12.8432 179.098 12.8432C184.959 12.8432 189.994 16.2269 189.994 22.481L189.989 33.3853Z" fill="#2BAB97"/>
<g opacity="0.9">
<path opacity="0.9" d="M229.855 18.1126V43.0863C229.855 43.0863 225.382 43.0863 225.382 40.1886V13.3002C226.428 13.8975 227.6 14.2164 228.792 14.2283C231.137 14.2283 233.041 13.0103 236.114 13.0103C240.02 13.0103 242.711 14.575 242.711 17.7076C242.711 19.099 242.209 20.3154 241.148 21.8236C241.148 18.6357 238.466 17.1261 235.224 17.1261C233.394 17.1377 231.578 17.4712 229.855 18.1126Z" fill="#232323"/>
<path opacity="0.9" d="M269.09 34.0493C269.09 39.9032 265.233 43.3792 257.018 43.3792C248.802 43.3792 244.945 39.9032 244.945 34.0493V22.3433C244.945 16.4894 248.802 13.0117 257.019 13.0117C265.237 13.0117 269.092 16.4894 269.092 22.3433L269.09 34.0493ZM264.619 23.2115C264.619 19.1539 263.333 16.7793 257.018 16.7793C250.702 16.7793 249.414 19.1539 249.414 23.2115V33.1811C249.414 37.2307 250.7 39.6133 257.018 39.6133C263.335 39.6133 264.619 37.2372 264.619 33.1811V23.2115Z" fill="#232323"/>
<path opacity="0.9" d="M280.824 33.8178C280.824 37.4106 282.611 39.4968 287.586 39.4968C291.667 39.4968 294.294 38.2804 294.294 38.2804V13.3018C294.294 13.3018 298.766 13.3018 298.766 16.1995V43.0862C297.646 42.4734 296.399 42.1552 295.132 42.1597C292.449 42.1597 289.99 43.3746 286.804 43.3746C281.719 43.3746 276.353 41.5215 276.353 34.6829V13.3018C276.353 13.3018 280.824 13.3601 280.824 16.1995V33.8178Z" fill="#232323"/>
<path opacity="0.9" d="M218.678 35.7616V13.3017C214.544 15.1563 212.755 13.0117 208.004 13.0117C200.35 13.0117 196.265 16.3728 196.265 22.2266V34.2228C196.265 39.9617 200.796 43.3793 206.047 43.3793C210.902 43.3793 213.272 41.7416 214.227 40.8153V42.3362L214.208 42.4172V45.1626C214.006 48.1268 212.23 50.4691 206.625 50.4691C200.31 50.4691 198.21 48.0913 198.21 44.0354C197.149 45.6 196.702 46.9913 196.702 48.2078C196.702 52.2055 200.31 54.2351 206.625 54.2351C214.953 54.2351 218.699 50.1775 218.699 44.3253L218.678 35.7616ZM214.208 33.9328C214.208 37.2955 210.457 39.6134 206.774 39.6134C203.307 39.6134 200.738 37.7003 200.738 33.3546V23.0948C200.738 18.8656 202.358 16.7777 208.116 16.7777C212.308 16.7777 214.208 18.1108 214.208 18.1108V33.9328Z" fill="#232323"/>
<path opacity="0.9" d="M317.262 13.0117C312.512 13.0117 310.72 15.1563 306.586 13.3017V53.5225C306.586 57.0584 310.665 57.0001 311.057 57.0001V40.8347C312.025 41.7644 314.396 43.3794 319.217 43.3794C324.47 43.3794 329 39.9616 329 34.2227V22.2267C329 16.3728 324.917 13.0117 317.262 13.0117ZM324.527 33.3545C324.527 37.7005 321.956 39.6133 318.491 39.6133C314.803 39.6133 311.057 37.2954 311.057 33.9328V18.1124C311.057 18.1124 312.957 16.7793 317.148 16.7793C322.905 16.7793 324.527 18.8656 324.527 23.0965V33.3545Z" fill="#232323"/>
</g>
</g>
<defs>
<clipPath id="clip0_541_6542">
<rect width="329" height="57" fill="white"/>
</clipPath>
</defs>
</svg>
