<svg width="300" height="31" viewBox="0 0 300 31" fill="none" xmlns="http://www.w3.org/2000/svg">
<g clip-path="url(#clip0_273_6461)">
<path d="M0 0.236645C0.387489 1.70586 1.16134 3.04452 2.24114 4.11353C3.32095 5.18253 4.66731 5.94289 6.14035 6.31559H15.7281L16.2193 6.50857V30.7016H22.2018V6.54366L22.7456 6.35068H32.3421C33.8103 5.96796 35.1514 5.20423 36.2296 4.13677C37.3078 3.06932 38.085 1.736 38.4825 0.271733V0.210329H0V0.236645ZM209.307 0.201557H203.342V30.7717H230.658C231.952 30.2708 233.104 29.4604 234.012 28.4113C234.92 27.3623 235.558 26.1066 235.868 24.7542H209.289L209.307 0.201557ZM163.404 6.2191C166.579 5.34191 169.246 2.86822 169.886 0.184014L136.465 0.236645V18.263H163.807V24.6051H142.351C140.715 25.0291 139.188 25.7957 137.871 26.8543C136.554 27.9129 135.477 29.2392 134.711 30.7454H169.702V12.263H142.368V6.2191H163.404ZM265.307 30.7542H271.237V18.4559H292.798V30.7542H298.719V12.3156L265.307 12.2805V30.7542ZM74.8684 6.28928H97.6754C99.1695 5.92985 100.536 5.1672 101.627 4.08446C102.717 3.00171 103.49 1.64041 103.86 0.148926L68.6842 0.148926C69.0578 1.63869 69.8314 2.99807 70.9213 4.08025C72.0112 5.16242 73.376 5.92627 74.8684 6.28928ZM74.8684 18.3682H97.6754C99.1687 18.007 100.534 17.2438 101.625 16.1613C102.715 15.0788 103.488 13.7185 103.86 12.2279H68.6842C69.0596 13.7168 69.8337 15.0752 70.9233 16.1571C72.013 17.239 73.3769 18.0034 74.8684 18.3682ZM74.8684 30.7717H97.6754C99.1687 30.4105 100.534 29.6473 101.625 28.5648C102.715 27.4823 103.488 26.122 103.86 24.6314H68.6842C69.0587 26.1207 69.8326 27.4796 70.9223 28.5617C72.0121 29.6437 73.3765 30.4078 74.8684 30.7717ZM270.579 6.30682H293.386C294.881 5.94791 296.249 5.18559 297.341 4.10289C298.433 3.02019 299.207 1.65862 299.579 0.16647H264.395C264.767 1.6571 265.54 3.01743 266.63 4.09989C267.72 5.18235 269.086 5.9456 270.579 6.30682Z" fill="#DEDEDE"/>
</g>
<defs>
<clipPath id="clip0_273_6461">
<rect width="300" height="30.7018" fill="white" transform="translate(0 0.148926)"/>
</clipPath>
</defs>
</svg>
