<svg width="41" height="42" viewBox="0 0 41 42" fill="none" xmlns="http://www.w3.org/2000/svg">
<path d="M36.3875 19.3109C37.0538 19.3109 37.5834 18.7813 37.5834 18.1151V16.5263C37.5834 9.52214 35.4479 7.38672 28.4438 7.38672H12.5563C5.5521 7.38672 3.41669 9.52214 3.41669 16.5263V17.3292C3.41669 17.9955 3.94627 18.5251 4.61252 18.5251C6.15002 18.5251 7.3971 19.7721 7.3971 21.3096C7.3971 22.8471 6.15002 24.0771 4.61252 24.0771C3.94627 24.0771 3.41669 24.6067 3.41669 25.273V26.0759C3.41669 33.0801 5.5521 35.2155 12.5563 35.2155H28.4438C35.4479 35.2155 37.5834 33.0801 37.5834 26.0759C37.5834 25.4096 37.0538 24.8801 36.3875 24.8801C34.85 24.8801 33.6029 23.633 33.6029 22.0955C33.6029 20.558 34.85 19.3109 36.3875 19.3109ZM15.375 15.9626C16.3146 15.9626 17.0834 16.7313 17.0834 17.6709C17.0834 18.6105 16.3317 19.3792 15.375 19.3792C14.4354 19.3792 13.6667 18.6105 13.6667 17.6709C13.6667 16.7313 14.4184 15.9626 15.375 15.9626ZM25.625 27.9209C24.6684 27.9209 23.8996 27.1521 23.8996 26.2126C23.8996 25.273 24.6684 24.5042 25.6079 24.5042C26.5475 24.5042 27.3163 25.273 27.3163 26.2126C27.3163 27.1521 26.5817 27.9209 25.625 27.9209ZM27.1625 16.9876L15.6654 28.4846C15.4092 28.7409 15.0846 28.8605 14.76 28.8605C14.4354 28.8605 14.1109 28.7409 13.8546 28.4846C13.3592 27.9892 13.3592 27.1692 13.8546 26.6738L25.3517 15.1767C25.8471 14.6813 26.6671 14.6813 27.1625 15.1767C27.6579 15.6721 27.6579 16.4921 27.1625 16.9876Z" fill="#292D32"/>
</svg>
