<svg width="28" height="28" viewBox="0 0 28 28" fill="none" xmlns="http://www.w3.org/2000/svg">
<path d="M1.6875 16.625C1.6875 21.9752 6.02474 26.3125 11.375 26.3125H16.625C21.9752 26.3125 26.3125 21.9752 26.3125 16.625V11.375C26.3125 6.02474 21.9752 1.6875 16.625 1.6875H11.375C6.02474 1.6875 1.6875 6.02474 1.6875 11.375V16.625ZM0.5 11.375C0.5 5.3689 5.3689 0.5 11.375 0.5H16.625C22.6311 0.5 27.5 5.3689 27.5 11.375V16.625C27.5 22.6311 22.6311 27.5 16.625 27.5H11.375C5.3689 27.5 0.5 22.6311 0.5 16.625V11.375Z" fill="#999AA4" stroke="#999AA4"/>
<path d="M21.0824 10.6252L21.0851 10.6238C21.1365 10.5976 21.191 10.5992 21.2428 10.6319L21.2443 10.6328C21.2973 10.6661 21.3334 10.7242 21.3334 10.8019V17.1986C21.3334 17.2764 21.2979 17.3337 21.245 17.3672C21.2104 17.3887 21.1805 17.3949 21.1567 17.3949C21.1366 17.3949 21.113 17.3906 21.0853 17.3764L21.0813 17.3744L19.8493 16.7528C19.849 16.7527 19.8487 16.7525 19.8485 16.7524C19.7326 16.6932 19.6567 16.5756 19.6567 16.4305V11.5692C19.6567 11.422 19.7335 11.306 19.8467 11.249L19.8473 11.2487L21.0824 10.6252ZM13.9209 8.75C14.6952 8.75 15.2907 9.01296 15.689 9.40622C16.0864 9.79856 16.3485 10.3803 16.3485 11.1341V16.8659C16.3485 17.6197 16.0864 18.2014 15.689 18.5938C15.2907 18.987 14.6952 19.25 13.9209 19.25H9.09422C8.31994 19.25 7.72447 18.987 7.32612 18.5938C6.92871 18.2014 6.66669 17.6197 6.66669 16.8659V11.1341C6.66669 10.3803 6.92871 9.79856 7.32612 9.40622C7.72447 9.01296 8.31994 8.75 9.09422 8.75H13.9209Z" stroke="#999AA4" stroke-width="2"/>
</svg>
